{
.appVersion = "3151";
DisplayStrings = (
"?/Ze-cy 3"
);
copyright = "SIL Open Font License";
customParameters = (
{
name = "Use Typo Metrics";
value = 1;
},
{
name = fsType;
value = (
);
},
{
name = licenseURL;
value = "https://scripts.sil.org/OFL";
},
{
name = Axes;
value = (
{
Name = Weight;
Tag = wght;
},
{
Name = Eco;
Tag = eco;
}
);
}
);
date = "2022-08-01 10:00:35 +0000";
designer = "Luigi Gorlero";
designerURL = "http://luigigorlero.com/";
familyName = "Apfel Grotezk";
featurePrefixes = (
{
automatic = 1;
code = "languagesystem DFLT dflt;\012\012languagesystem latn dflt;\012languagesystem latn AZE;\012languagesystem latn CRT;\012languagesystem latn KAZ;\012languagesystem latn TAT;\012languagesystem latn TRK;\012languagesystem latn ROM;\012languagesystem latn MOL;\012";
name = Languagesystems;
}
);
features = (
{
code = "feature sups;\012feature frac;\012feature ordn;\012";
name = aalt;
},
{
automatic = 1;
code = "lookup locl_latn_0 {\012	script latn;\012	language AZE;\012	sub i by idotaccent;\012	language CRT;\012	sub i by idotaccent;\012	language KAZ;\012	sub i by idotaccent;\012	language TAT;\012	sub i by idotaccent;\012	language TRK;\012	sub i by idotaccent;\012} locl_latn_0;\012\012lookup locl_latn_1 {\012	script latn;\012	language ROM;\012	sub Scedilla by Scommaaccent;\012	sub scedilla by scommaaccent;\012	sub Tcedilla by Tcommaaccent;\012	sub tcedilla by tcommaaccent;\012	language MOL;\012	sub Scedilla by Scommaaccent;\012	sub scedilla by scommaaccent;\012	sub Tcedilla by Tcommaaccent;\012	sub tcedilla by tcommaaccent;\012} locl_latn_1;\012";
name = locl;
},
{
automatic = 1;
code = "sub zero by zerosuperior;\012sub one by onesuperior;\012sub two by twosuperior;\012sub three by threesuperior;\012sub four by foursuperior;\012";
name = sups;
},
{
automatic = 1;
code = "sub one slash four by onequarter;\012sub one slash two by onehalf;\012sub three slash four by threequarters;\012";
name = frac;
},
{
automatic = 1;

glyphs = (
{
color = 10;
glyphname = A;
lastChange = "2022-07-16 18:07:08 +0000";
layers = (
{
anchors = (
{
name = ogonek;
position = "{564, 0}";
},
{
name = top;
position = "{304, 650}";
}
);
layerId = "8007C042-6FBA-4E49-99B8-8B738A4EBE86";
paths = (
{
closed = 1;
nodes = (
"100 0 LINE",
"302 540 LINE",
"508 0 LINE",
"604 0 LINE",
"348 650 LINE",
"260 650 LINE",
"4 0 LINE"
);
},
{
closed = 1;
nodes = (
"464 176 LINE",
"464 256 LINE",
"144 256 LINE",
"144 176 LINE"
);
}
);
width = 608;
},
{
anchors = (
{
name = ogonek;
position = "{564, 0}";
},
{
name = top;
position = "{324, 650}";
}
);
layerId = "ADDE491E-C0C4-4659-943C-53377B387F47";
paths = (
{
closed = 1;
nodes = (
"166 0 LINE",
"322 500 LINE",
"484 0 LINE",
"644 0 LINE",
"414 650 LINE",
"234 650 LINE",
"4 0 LINE"
);
},
{
closed = 1;
nodes = (
"456 148 LINE",
"456 252 LINE",
"192 252 LINE",
"192 148 LINE"
);
}
);
width = 648;
},
{
anchors = (
{
name = ogonek;
position = "{540, 0}";
},
{
name = top;
position = "{334, 650}";
}
);
layerId = "0CF550E6-48ED-4BA5-8C66-195B58FED074";
paths = (
{
closed = 1;
nodes = (
"232 0 LINE",
"332 468 LINE",
"440 0 LINE",
"672 0 LINE",
"466 650 LINE",
"202 650 LINE",
"0 0 LINE"
);
},
{
closed = 1;
nodes = (
"474 132 LINE",
"474 232 LINE",
"194 232 LINE",
"194 132 LINE"
);
}
);
width = 672;
},
{
anchors = (
{
name = ogonek;
position = "{564, 0}";
},
{
name = top;
position = "{304, 650}";
}
);
components = (
{
name = inkstem_S;
transform = "{1, 0, 0, 1, -26, -194}";
},
{
name = inkstem_S;
transform = "{1, 0, 0, 1, 434, -194}";
},
{
name = inkstem_M;
transform = "{0.93358, -0.35837, 0.35837, 0.93358, 20, 194}";
},
{
name = inkstem_M;
transform = "{-0.93358, -0.35837, -0.35837, 0.93358, 587, 194}";
}
);
layerId = m004;
paths = (
{
closed = 1;
nodes = (
"100 0 LINE",
"153 142 LINE SMOOTH",
"156 149 OFFCURVE",
"153 156 OFFCURVE",
"147 159 CURVE SMOOTH",
"138 163 OFFCURVE",
"132 173 OFFCURVE",
"132 184 CURVE SMOOTH",
"132 200 OFFCURVE",
"144 212 OFFCURVE",
"160 212 CURVE SMOOTH",
"175 212 OFFCURVE",
"186 202 OFFCURVE",
"188 187 CURVE SMOOTH",
"189 181 OFFCURVE",
"193 176 OFFCURVE",
"203 176 CURVE SMOOTH",
"404 176 LINE SMOOTH",
"414 176 OFFCURVE",
"418 181 OFFCURVE",
"419 187 CURVE SMOOTH",
"421 202 OFFCURVE",
"432 212 OFFCURVE",
"447 212 CURVE SMOOTH",
"463 212 OFFCURVE",
"475 200 OFFCURVE",
"475 184 CURVE SMOOTH",
"475 173 OFFCURVE",
"469 163 OFFCURVE",
"460 159 CURVE SMOOTH",
"454 156 OFFCURVE",
"451 149 OFFCURVE",
"454 142 CURVE SMOOTH",
"508 0 LINE",
"604 0 LINE",
"348 650 LINE",
"260 650 LINE",
"4 0 LINE"
);
},
{
closed = 1;
nodes = (
"174 226 OFFCURVE",
"162 238 OFFCURVE",
"162 254 CURVE SMOOTH",
"162 270 OFFCURVE",
"174 282 OFFCURVE",
"190 282 CURVE SMOOTH",
"198 282 OFFCURVE",
"207 286 OFFCURVE",
"210 294 CURVE SMOOTH",
"287 502 LINE SMOOTH",
"290 509 OFFCURVE",
"288 515 OFFCURVE",
"284 518 CURVE SMOOTH",
"278 523 OFFCURVE",
"274 531 OFFCURVE",
"274 540 CURVE SMOOTH",
"274 556 OFFCURVE",
"286 568 OFFCURVE",
"302 568 CURVE SMOOTH",
"318 568 OFFCURVE",
"330 556 OFFCURVE",
"330 540 CURVE SMOOTH",
"330 531 OFFCURVE",
"326 523 OFFCURVE",
"319 518 CURVE SMOOTH",
"315 515 OFFCURVE",
"314 509 OFFCURVE",
"317 502 CURVE SMOOTH",
"396 294 LINE SMOOTH",
"399 286 OFFCURVE",
"408 282 OFFCURVE",
"416 282 CURVE SMOOTH",
"432 282 OFFCURVE",
"444 270 OFFCURVE",
"444 254 CURVE SMOOTH",
"444 238 OFFCURVE",
"432 226 OFFCURVE",
"416 226 CURVE SMOOTH",
"403 226 OFFCURVE",
"394 234 OFFCURVE",
"390 244 CURVE SMOOTH",
"387 252 OFFCURVE",
"382 256 OFFCURVE",
"374 256 CURVE SMOOTH",
"232 256 LINE SMOOTH",
"224 256 OFFCURVE",
"219 252 OFFCURVE",
"216 244 CURVE SMOOTH",
"212 234 OFFCURVE",
"203 226 OFFCURVE",
"190 226 CURVE SMOOTH"
);
}
);
width = 608;
}
);
leftKerningGroup = A;
rightKerningGroup = A;
rightMetricsKey = "=|A";
unicode = 0041;
},
{
glyphname = AE;
lastChange = "2022-07-26 21:28:00 +0000";
layers = (
{
layerId = "8007C042-6FBA-4E49-99B8-8B738A4EBE86";
paths = (
{
closed = 1;
nodes = (
"98 0 LINE",
"366 650 LINE",
"282 650 LINE",
"2 0 LINE"
);
},
{
closed = 1;
nodes = (
"432 176 LINE",
"432 256 LINE",
"132 256 LINE",
"132 176 LINE"
);
},
{
closed = 1;
nodes = (
"856 0 LINE",
"856 82 LINE",
"476 82 LINE",
"476 0 LINE"
);
},
{
closed = 1;
nodes = (
"496 0 LINE",
"496 650 LINE",
"412 650 LINE",
"412 0 LINE"
);
},
{
closed = 1;
nodes = (
"804 293 LINE",
"804 371 LINE",
"476 371 LINE",
"476 293 LINE"
);
},
{
closed = 1;
nodes = (
"844 570 LINE",
"844 650 LINE",
"302 650 LINE",
"302 570 LINE"
);
}
);
width = 888;
},
{
layerId = "ADDE491E-C0C4-4659-943C-53377B387F47";
paths = (
{
closed = 1;
nodes = (
"166 0 LINE",
"436 650 LINE",
"292 650 LINE",
"2 0 LINE"
);
},
{
closed = 1;
nodes = (
"460 152 LINE",
"460 256 LINE",
"176 256 LINE",
"176 152 LINE"
);
},
{
closed = 1;
nodes = (
"904 0 LINE",
"904 136 LINE",
"568 136 LINE",
"568 0 LINE"
);
},
{
closed = 1;
nodes = (
"588 0 LINE",
"588 650 LINE",
"440 650 LINE",
"440 0 LINE"
);
},
{
closed = 1;
nodes = (
"844 281 LINE",
"844 383 LINE",
"568 383 LINE",
"568 281 LINE"
);
},
{
closed = 1;
nodes = (
"896 518 LINE",
"896 650 LINE",
"336 650 LINE",
"336 518 LINE"
);
}
);
width = 932;
},
{
layerId = "0CF550E6-48ED-4BA5-8C66-195B58FED074";
paths = (
{
closed = 1;
nodes = (
"656 0 LINE",
"656 650 LINE",
"444 650 LINE",
"444 0 LINE"
);
},
{
closed = 1;
nodes = (
"914 0 LINE",
"914 168 LINE",
"636 168 LINE",
"636 0 LINE"
);
},
{
closed = 1;
nodes = (
"838 277 LINE",
"838 387 LINE",
"636 387 LINE",
"636 277 LINE"
);
},
{
closed = 1;
nodes = (
"902 484 LINE",
"902 650 LINE",
"335 650 LINE",
"335 484 LINE"
);
},
{
closed = 1;
nodes = (
"236 0 LINE",
"502 650 LINE",
"302 650 LINE",
"2 0 LINE"
);
},
{
closed = 1;
nodes = (
"470 136 LINE",
"470 248 LINE",
"186 248 LINE",
"186 136 LINE"
);
}
);
width = 938;
},
{
components = (
{
name = inkstem_S;
transform = "{1, 0, 0, 1, -27, -194}";
},
{
name = inkstem_L;
transform = "{0, -1, 1, 0, 380, 142}";
},
{
name = inkstem_M;
transform = "{0, -1, 1, 0, 444, 432}";
},
{
name = inkstem_M;
transform = "{0, -1, 1, 0, 352, 710}";
},
{
name = inkstem_S;
transform = "{1, 0, 0, 1, 688, 360}";
},
{
name = inkstem_M;
transform = "{0.91852, -0.39536, 0.39536, 0.91852, 26, 207}";
}
);
layerId = m004;
paths = (
{
closed = 1;
nodes = (
"98 0 LINE",
"171 176 LINE",
"360 176 LINE SMOOTH",
"372 176 OFFCURVE",
"382 182 OFFCURVE",
"388 191 CURVE SMOOTH",
"393 199 OFFCURVE",
"402 204 OFFCURVE",
"412 204 CURVE SMOOTH",
"428 204 OFFCURVE",
"440 192 OFFCURVE",
"440 176 CURVE SMOOTH",
"440 166 OFFCURVE",
"435 157 OFFCURVE",
"427 152 CURVE SMOOTH",
"418 146 OFFCURVE",
"412 136 OFFCURVE",
"412 124 CURVE SMOOTH",
"412 0 LINE",
"856 0 LINE",
"856 82 LINE",
"548 82 LINE SMOOTH",
"536 82 OFFCURVE",
"526 76 OFFCURVE",
"520 67 CURVE SMOOTH",
"515 59 OFFCURVE",
"506 54 OFFCURVE",
"496 54 CURVE SMOOTH",
"480 54 OFFCURVE",
"468 66 OFFCURVE",
"468 82 CURVE SMOOTH",
"468 92 OFFCURVE",
"473 101 OFFCURVE",
"481 106 CURVE SMOOTH",
"490 112 OFFCURVE",
"496 122 OFFCURVE",
"496 134 CURVE SMOOTH",
"496 240 LINE SMOOTH",
"496 252 OFFCURVE",
"490 262 OFFCURVE",
"481 268 CURVE SMOOTH",
"473 273 OFFCURVE",
"468 282 OFFCURVE",
"468 292 CURVE SMOOTH",
"468 308 OFFCURVE",
"480 320 OFFCURVE",
"496 320 CURVE SMOOTH",
"506 320 OFFCURVE",
"515 315 OFFCURVE",
"520 307 CURVE SMOOTH",
"526 298 OFFCURVE",
"536 292 OFFCURVE",
"548 292 CURVE SMOOTH",
"804 293 LINE",
"804 371 LINE",
"548 372 LINE SMOOTH",
"536 372 OFFCURVE",
"526 366 OFFCURVE",
"520 357 CURVE SMOOTH",
"515 349 OFFCURVE",
"506 344 OFFCURVE",
"496 344 CURVE SMOOTH",
"480 344 OFFCURVE",
"468 356 OFFCURVE",
"468 372 CURVE SMOOTH",
"468 382 OFFCURVE",
"473 391 OFFCURVE",
"481 396 CURVE SMOOTH",
"490 402 OFFCURVE",
"496 412 OFFCURVE",
"496 424 CURVE SMOOTH",
"496 518 LINE SMOOTH",
"496 530 OFFCURVE",
"490 540 OFFCURVE",
"481 546 CURVE SMOOTH",
"473 551 OFFCURVE",
"468 560 OFFCURVE",
"468 570 CURVE SMOOTH",
"468 586 OFFCURVE",
"480 598 OFFCURVE",
"496 598 CURVE SMOOTH",
"506 598 OFFCURVE",
"515 593 OFFCURVE",
"520 585 CURVE SMOOTH",
"526 576 OFFCURVE",
"536 570 OFFCURVE",
"548 570 CURVE SMOOTH",
"844 570 LINE",
"844 650 LINE",
"282 650 LINE",
"2 0 LINE"
);
},
{
closed = 1;
nodes = (
"188 228 OFFCURVE",
"176 240 OFFCURVE",
"176 256 CURVE SMOOTH",
"176 269 OFFCURVE",
"184 280 OFFCURVE",
"196 283 CURVE SMOOTH",
"212 287 OFFCURVE",
"215 284 OFFCURVE",
"222 301 CURVE SMOOTH",
"314 524 LINE SMOOTH",
"319 536 OFFCURVE",
"316 544 OFFCURVE",
"309 555 CURVE SMOOTH",
"306 559 OFFCURVE",
"305 564 OFFCURVE",
"305 570 CURVE SMOOTH",
"305 586 OFFCURVE",
"317 598 OFFCURVE",
"333 598 CURVE SMOOTH",
"343 598 OFFCURVE",
"352 593 OFFCURVE",
"357 585 CURVE SMOOTH",
"363 576 OFFCURVE",
"373 570 OFFCURVE",
"385 570 CURVE SMOOTH",
"412 570 LINE",
"412 256 LINE",
"248 256 LINE SMOOTH",
"239 256 OFFCURVE",
"233 251 OFFCURVE",
"229 243 CURVE SMOOTH",
"225 234 OFFCURVE",
"215 228 OFFCURVE",
"204 228 CURVE SMOOTH"
);
}
);
width = 888;
}
);
leftKerningGroup = A;
rightKerningGroup = E;
rightMetricsKey = E;
unicode = 00C6;
},
{
color = 10;
glyphname = B;
lastChange = "2022-07-16 20:43:50 +0000";
layers = (
{
layerId = "8007C042-6FBA-4E49-99B8-8B738A4EBE86";
paths = (
{
closed = 1;
nodes = (
"372 0 LINE SMOOTH",
"482 0 OFFCURVE",
"560 73 OFFCURVE",
"560 176 CURVE SMOOTH",
"560 256 OFFCURVE",
"508 318 OFFCURVE",
"428 338 CURVE",
"496 358 OFFCURVE",
"538 416 OFFCURVE",
"538 484 CURVE SMOOTH",
"538 581 OFFCURVE",
"459 650 OFFCURVE",
"348 650 CURVE SMOOTH",
"128 650 LINE",
"128 570 LINE",
"340 570 LINE SMOOTH",
"405 570 OFFCURVE",
"452 528 OFFCURVE",
"452 471 CURVE SMOOTH",
"452 414 OFFCURVE",
"405 372 OFFCURVE",
"340 372 CURVE SMOOTH",
"128 372 LINE",
"128 292 LINE",
"356 292 LINE SMOOTH",
"424 292 OFFCURVE",
"474 248 OFFCURVE",
"474 187 CURVE SMOOTH",
"474 126 OFFCURVE",
"424 82 OFFCURVE",
"356 82 CURVE SMOOTH",
"128 82 LINE",
"128 0 LINE"
);
},
{
closed = 1;
nodes = (
"148 0 LINE",
"148 650 LINE",
"64 650 LINE",
"64 0 LINE"
);
}
);
width = 592;
},
{
layerId = "ADDE491E-C0C4-4659-943C-53377B387F47";
paths = (
{
closed = 1;
nodes = (
"400 0 LINE SMOOTH",
"502 0 OFFCURVE",
"574 73 OFFCURVE",
"574 176 CURVE SMOOTH",
"574 260 OFFCURVE",
"520 324 OFFCURVE",
"436 340 CURVE",
"503 360 OFFCURVE",
"546 418 OFFCURVE",
"546 488 CURVE SMOOTH",
"546 583 OFFCURVE",
"479 650 OFFCURVE",
"384 650 CURVE SMOOTH",
"178 650 LINE",
"178 520 LINE",
"332 520 LINE SMOOTH",
"371 520 OFFCURVE",
"398 492 OFFCURVE",
"398 452 CURVE SMOOTH",
"398 412 OFFCURVE",
"370 384 OFFCURVE",
"330 384 CURVE SMOOTH",
"178 384 LINE",
"178 280 LINE",
"350 280 LINE SMOOTH",
"392 280 OFFCURVE",
"422 249 OFFCURVE",
"422 206 CURVE SMOOTH",
"422 163 OFFCURVE",
"391 132 OFFCURVE",
"348 132 CURVE SMOOTH",
"178 132 LINE",
"178 0 LINE"
);
},
{
closed = 1;
nodes = (
"198 0 LINE",
"198 650 LINE",
"50 650 LINE",
"50 0 LINE"
);
}
);
width = 600;
},
{
layerId = "0CF550E6-48ED-4BA5-8C66-195B58FED074";
paths = (
{
closed = 1;
nodes = (
"424 0 LINE SMOOTH",
"526 0 OFFCURVE",
"598 71 OFFCURVE",
"598 172 CURVE SMOOTH",
"598 258 OFFCURVE",
"538 326 OFFCURVE",
"452 342 CURVE",
"520 362 OFFCURVE",
"568 419 OFFCURVE",
"568 490 CURVE SMOOTH",
"568 584 OFFCURVE",
"498 650 OFFCURVE",
"400 650 CURVE SMOOTH",
"234 650 LINE",
"234 490 LINE",
"304 490 LINE SMOOTH",
"339 490 OFFCURVE",
"362 468 OFFCURVE",
"362 434 CURVE SMOOTH",
"362 400 OFFCURVE",
"338 378 OFFCURVE",
"300 378 CURVE SMOOTH",
"234 378 LINE",
"234 286 LINE",
"324 286 LINE SMOOTH",
"363 286 OFFCURVE",
"388 262 OFFCURVE",
"388 224 CURVE SMOOTH",
"388 186 OFFCURVE",
"362 162 OFFCURVE",
"322 162 CURVE SMOOTH",
"234 162 LINE",
"234 0 LINE"
);
},
{
closed = 1;
nodes = (
"254 0 LINE",
"254 650 LINE",
"42 650 LINE",
"42 0 LINE"
);
}
);
width = 612;
},
{
components = (
{
name = inkstem_M;
transform = "{0, -1, 1, 0, 40, 142}";
},
{
name = inkstem_S;
transform = "{1, 0, 0, 1, 180, 82}";
},
{
name = inkstem_S;
transform = "{1, 0, 0, 1, 412, -96}";
},
{
name = inkstem_M;
transform = "{0, -1, 1, 0, 16, 710}";
},
{
name = inkcurve_S;
transform = "{-1, 0, 0, 1, 592, 196}";
}
);
layerId = m004;
paths = (
{
closed = 1;
nodes = (
"372 0 LINE SMOOTH",
"482 0 OFFCURVE",
"560 73 OFFCURVE",
"560 176 CURVE SMOOTH",
"560 241 OFFCURVE",
"526 294 OFFCURVE",
"470 322 CURVE SMOOTH",
"463 325 OFFCURVE",
"455 324 OFFCURVE",
"448 318 CURVE SMOOTH",
"443 314 OFFCURVE",
"435 311 OFFCURVE",
"428 311 CURVE SMOOTH",
"412 311 OFFCURVE",
"400 323 OFFCURVE",
"400 339 CURVE SMOOTH",
"400 355 OFFCURVE",
"412 367 OFFCURVE",
"428 367 CURVE SMOOTH",
"435 367 OFFCURVE",
"442 364 OFFCURVE",
"447 360 CURVE SMOOTH",
"454 353 OFFCURVE",
"462 352 OFFCURVE",
"469 356 CURVE SMOOTH",
"512 384 OFFCURVE",
"538 431 OFFCURVE",
"538 484 CURVE SMOOTH",
"538 581 OFFCURVE",
"459 650 OFFCURVE",
"348 650 CURVE SMOOTH",
"64 650 LINE",
"64 0 LINE"
);
},
{
closed = 1;
nodes = (
"132 54 OFFCURVE",
"120 66 OFFCURVE",
"120 82 CURVE SMOOTH",
"120 92 OFFCURVE",
"125 101 OFFCURVE",
"133 106 CURVE SMOOTH",
"142 112 OFFCURVE",
"148 122 OFFCURVE",
"148 134 CURVE SMOOTH",
"148 240 LINE SMOOTH",
"148 252 OFFCURVE",
"142 262 OFFCURVE",
"133 268 CURVE SMOOTH",
"125 273 OFFCURVE",
"120 282 OFFCURVE",
"120 292 CURVE SMOOTH",
"120 308 OFFCURVE",
"132 320 OFFCURVE",
"148 320 CURVE SMOOTH",
"158 320 OFFCURVE",
"167 315 OFFCURVE",
"172 307 CURVE SMOOTH",
"178 298 OFFCURVE",
"188 292 OFFCURVE",
"200 292 CURVE SMOOTH",
"356 292 LINE SMOOTH",
"424 292 OFFCURVE",
"474 248 OFFCURVE",
"474 187 CURVE SMOOTH",
"474 126 OFFCURVE",
"424 82 OFFCURVE",
"356 82 CURVE SMOOTH",
"200 82 LINE SMOOTH",
"188 82 OFFCURVE",
"178 76 OFFCURVE",
"172 67 CURVE SMOOTH",
"167 59 OFFCURVE",
"158 54 OFFCURVE",
"148 54 CURVE SMOOTH"
);
},
{
closed = 1;
nodes = (
"132 344 OFFCURVE",
"120 356 OFFCURVE",
"120 372 CURVE SMOOTH",
"120 382 OFFCURVE",
"125 391 OFFCURVE",
"133 396 CURVE SMOOTH",
"142 402 OFFCURVE",
"148 412 OFFCURVE",
"148 424 CURVE SMOOTH",
"148 518 LINE SMOOTH",
"148 530 OFFCURVE",
"142 540 OFFCURVE",
"133 546 CURVE SMOOTH",
"125 551 OFFCURVE",
"120 560 OFFCURVE",
"120 570 CURVE SMOOTH",
"120 586 OFFCURVE",
"132 598 OFFCURVE",
"148 598 CURVE SMOOTH",
"158 598 OFFCURVE",
"167 593 OFFCURVE",
"172 585 CURVE SMOOTH",
"178 576 OFFCURVE",
"188 570 OFFCURVE",
"200 570 CURVE SMOOTH",
"340 570 LINE SMOOTH",
"405 570 OFFCURVE",
"452 528 OFFCURVE",
"452 471 CURVE SMOOTH",
"452 414 OFFCURVE",
"405 372 OFFCURVE",
"340 372 CURVE SMOOTH",
"200 372 LINE SMOOTH",
"188 372 OFFCURVE",
"178 366 OFFCURVE",
"172 357 CURVE SMOOTH",
"167 349 OFFCURVE",
"158 344 OFFCURVE",
"148 344 CURVE SMOOTH"
);
}
);
width = 592;
}
);
leftKerningGroup = l;
leftMetricsKey = l;
rightKerningGroup = B;
unicode = 0042;
},
{
color = 10;
glyphname = C;
lastChange = "2022-07-16 20:00:29 +0000";
layers = (
{
anchors = (
{
name = bottom;
position = "{348, 0}";
},
{
name = top;
position = "{344, 650}";
}
);
layerId = "8007C042-6FBA-4E49-99B8-8B738A4EBE86";
paths = (
{
closed = 1;
nodes = (
"498 -12 OFFCURVE",
"608 84 OFFCURVE",
"632 224 CURVE",
"542 252 LINE",
"530 144 OFFCURVE",
"453 72 OFFCURVE",
"350 72 CURVE SMOOTH",
"220 72 OFFCURVE",
"126 178 OFFCURVE",
"126 325 CURVE SMOOTH",
"126 473 OFFCURVE",
"218 580 OFFCURVE",
"344 580 CURVE SMOOTH",
"439 580 OFFCURVE",
"520 508 OFFCURVE",
"536 408 CURVE",
"624 440 LINE",
"600 572 OFFCURVE",
"485 662 OFFCURVE",
"344 662 CURVE SMOOTH",
"165 662 OFFCURVE",
"36 520 OFFCURVE",
"36 325 CURVE SMOOTH",
"36 130 OFFCURVE",
"168 -12 OFFCURVE",
"350 -12 CURVE SMOOTH"
);
}
);
width = 664;
},
{
anchors = (
{
name = bottom;
position = "{338, 0}";
},
{
name = top;
position = "{346, 650}";
}
);
layerId = "ADDE491E-C0C4-4659-943C-53377B387F47";
paths = (
{
closed = 1;
nodes = (
"488 -12 OFFCURVE",
"606 72 OFFCURVE",
"634 196 CURVE",
"488 260 LINE",
"480 184 OFFCURVE",
"422 132 OFFCURVE",
"346 132 CURVE SMOOTH",
"252 132 OFFCURVE",
"188 211 OFFCURVE",
"188 325 CURVE SMOOTH",
"188 440 OFFCURVE",
"253 522 OFFCURVE",
"346 522 CURVE SMOOTH",
"418 522 OFFCURVE",
"470 472 OFFCURVE",
"482 392 CURVE",
"626 428 LINE",
"614 556 OFFCURVE",
"500 662 OFFCURVE",
"344 662 CURVE SMOOTH",
"160 662 OFFCURVE",
"28 522 OFFCURVE",
"28 325 CURVE SMOOTH",
"28 128 OFFCURVE",
"159 -12 OFFCURVE",
"344 -12 CURVE SMOOTH"
);
}
);
width = 662;
},
{
anchors = (
{
name = bottom;
position = "{332, 0}";
},
{
name = top;
position = "{344, 650}";
}
);
layerId = "0CF550E6-48ED-4BA5-8C66-195B58FED074";
paths = (
{
closed = 1;
nodes = (
"486 -12 OFFCURVE",
"608 72 OFFCURVE",
"636 200 CURVE",
"448 278 LINE",
"441 220 OFFCURVE",
"401 182 OFFCURVE",
"346 182 CURVE SMOOTH",
"279 182 OFFCURVE",
"236 239 OFFCURVE",
"236 328 CURVE SMOOTH",
"236 414 OFFCURVE",
"277 470 OFFCURVE",
"342 470 CURVE SMOOTH",
"395 470 OFFCURVE",
"432 433 OFFCURVE",
"436 376 CURVE",
"632 425 LINE",
"608 564 OFFCURVE",
"488 662 OFFCURVE",
"342 662 CURVE SMOOTH",
"153 662 OFFCURVE",
"20 522 OFFCURVE",
"20 324 CURVE SMOOTH",
"20 127 OFFCURVE",
"153 -12 OFFCURVE",
"342 -12 CURVE SMOOTH"
);
}
);
width = 656;
},
{
anchors = (
{
name = bottom;
position = "{348, 0}";
},
{
name = top;
position = "{344, 650}";
}
);
components = (
{
name = inkstem_S;
transform = "{1, 0, 0, 1, 50, -128}";
},
{
name = inkcurve_L;
transform = "{0, 1, -1, 0, 632, -70}";
},
{
name = inkcurve_L;
transform = "{1, 0, 0, 1, -21, 47}";
},
{
name = inkstem_S;
transform = "{1, 0, 0, -1, 52, 780}";
},
{
name = inkstem_S;
transform = "{1, 0, 0, 1, 471, -66}";
},
{
name = inkcurve_L;
transform = "{0, -1, -1, 0, 620, 722}";
},
{
name = inkstem_S;
transform = "{1, 0, 0, -1, 463, 728}";
}
);
layerId = m004;
paths = (
{
closed = 1;
nodes = (
"498 -12 OFFCURVE",
"608 84 OFFCURVE",
"632 224 CURVE",
"542 252 LINE",
"530 144 OFFCURVE",
"453 72 OFFCURVE",
"350 72 CURVE SMOOTH",
"220 72 OFFCURVE",
"126 178 OFFCURVE",
"126 325 CURVE SMOOTH",
"126 473 OFFCURVE",
"218 580 OFFCURVE",
"344 580 CURVE SMOOTH",
"439 580 OFFCURVE",
"520 508 OFFCURVE",
"536 408 CURVE",
"624 440 LINE",
"600 572 OFFCURVE",
"485 662 OFFCURVE",
"344 662 CURVE SMOOTH",
"165 662 OFFCURVE",
"36 520 OFFCURVE",
"36 325 CURVE SMOOTH",
"36 130 OFFCURVE",
"168 -12 OFFCURVE",
"350 -12 CURVE SMOOTH"
);
}
);
width = 664;
}
);
leftKerningGroup = O;
leftMetricsKey = O;
rightKerningGroup = C;
unicode = 0043;
},
{
glyphname = Ccedilla;
lastChange = "2022-07-26 21:31:14 +0000";
layers = (
{
components = (
{
name = C;
},
{
name = cedillacomb;
transform = "{1, 0, 0, 1, 48, 0}";
}
);
layerId = "8007C042-6FBA-4E49-99B8-8B738A4EBE86";
width = 664;
},
{
components = (
{
name = C;
},
{
name = cedillacomb;
transform = "{1, 0, 0, 1, 38, 0}";
}
);
layerId = "ADDE491E-C0C4-4659-943C-53377B387F47";
width = 662;
},
{
components = (
{
name = C;
},
{
name = cedillacomb;
transform = "{1, 0, 0, 1, 32, 0}";
}
);
layerId = "0CF550E6-48ED-4BA5-8C66-195B58FED074";
width = 656;
},
{
components = (
{
name = C;
}
);
layerId = m004;
paths = (
{
closed = 1;
nodes = (
"372 -209 OFFCURVE",
"440 -180 OFFCURVE",
"440 -124 CURVE SMOOTH",
"440 -84 OFFCURVE",
"405 -56 OFFCURVE",
"356 -48 CURVE",
"371 0 LINE",
"326 0 LINE",
"304 -76 LINE",
"344 -80 LINE SMOOTH",
"373 -83 OFFCURVE",
"392 -98 OFFCURVE",
"392 -118 CURVE SMOOTH",
"392 -148 OFFCURVE",
"348 -160 OFFCURVE",
"280 -144 CURVE",
"278 -196 LINE"
);
}
);
width = 664;
}
);
leftKerningGroup = O;
leftMetricsKey = C;
rightKerningGroup = C;
rightMetricsKey = C;
unicode = 00C7;
},
{
glyphname = D;
lastChange = "2022-07-16 18:07:05 +0000";
layers = (
{
anchors = (
{
name = top;
position = "{292, 650}";
}
);
layerId = "8007C042-6FBA-4E49-99B8-8B738A4EBE86";
paths = (
{
closed = 1;
nodes = (
"324 0 LINE SMOOTH",
"501 0 OFFCURVE",
"624 142 OFFCURVE",
"624 326 CURVE SMOOTH",
"624 520 OFFCURVE",
"487 650 OFFCURVE",
"308 650 CURVE SMOOTH",
"128 650 LINE",
"128 570 LINE",
"304 570 LINE SMOOTH",
"439 570 OFFCURVE",
"536 467 OFFCURVE",
"536 324 CURVE SMOOTH",
"536 184 OFFCURVE",
"444 82 OFFCURVE",
"316 82 CURVE SMOOTH",
"128 82 LINE",
"128 0 LINE"
);
},
{
closed = 1;
nodes = (
"148 0 LINE",
"148 650 LINE",
"64 650 LINE",
"64 0 LINE"
);
}
);
width = 660;
},
{
anchors = (
{
name = top;
position = "{284, 650}";
}
);
layerId = "ADDE491E-C0C4-4659-943C-53377B387F47";
paths = (
{
closed = 1;
nodes = (
"310 0 LINE SMOOTH",
"490 0 OFFCURVE",
"622 137 OFFCURVE",
"622 325 CURVE SMOOTH",
"622 515 OFFCURVE",
"487 650 OFFCURVE",
"298 650 CURVE SMOOTH",
"178 650 LINE",
"178 516 LINE",
"294 516 LINE SMOOTH",
"394 516 OFFCURVE",
"466 437 OFFCURVE",
"466 326 CURVE SMOOTH",
"466 216 OFFCURVE",
"397 136 OFFCURVE",
"302 136 CURVE SMOOTH",
"178 136 LINE",
"178 0 LINE"
);
},
{
closed = 1;
nodes = (
"198 0 LINE",
"198 650 LINE",
"50 650 LINE",
"50 0 LINE"
);
}
);
width = 650;
},
{
anchors = (
{
name = top;
position = "{302, 650}";
}
);
layerId = "0CF550E6-48ED-4BA5-8C66-195B58FED074";
paths = (
{
closed = 1;
nodes = (
"320 0 LINE SMOOTH",
"503 0 OFFCURVE",
"632 135 OFFCURVE",
"632 325 CURVE SMOOTH",
"632 515 OFFCURVE",
"503 650 OFFCURVE",
"320 650 CURVE SMOOTH",
"234 650 LINE",
"234 474 LINE",
"304 474 LINE SMOOTH",
"372 474 OFFCURVE",
"416 416 OFFCURVE",
"416 326 CURVE SMOOTH",
"416 236 OFFCURVE",
"372 178 OFFCURVE",
"304 178 CURVE SMOOTH",
"234 178 LINE",
"234 0 LINE"
);
},
{
closed = 1;
nodes = (
"254 0 LINE",
"254 650 LINE",
"42 650 LINE",
"42 0 LINE"
);
}
);
width = 652;
},
{
anchors = (
{
name = top;
position = "{292, 650}";
}
);
components = (
{
name = inkstem_M;
transform = "{0, -1, 1, 0, 40, 142}";
},
{
name = inkstem_L;
transform = "{1, 0, 0, 1, 6, 47}";
},
{
name = inkstem_S;
transform = "{1, 0, 0, 1, 405, -128}";
},
{
name = inkcurve_L;
transform = "{-1, 0, 0, 1, 681, 47}";
},
{
name = inkstem_M;
transform = "{0, -1, 1, 0, 16, 710}";
},
{
name = inkstem_S;
transform = "{1, 0, 0, -1, 401, 780}";
}
);
layerId = m004;
paths = (
{
closed = 1;
nodes = (
"324 0 LINE SMOOTH",
"501 0 OFFCURVE",
"624 142 OFFCURVE",
"624 326 CURVE SMOOTH",
"624 520 OFFCURVE",
"487 650 OFFCURVE",
"308 650 CURVE SMOOTH",
"64 650 LINE",
"64 0 LINE"
);
},
{
closed = 1;
nodes = (
"132 54 OFFCURVE",
"120 66 OFFCURVE",
"120 82 CURVE SMOOTH",
"120 92 OFFCURVE",
"125 101 OFFCURVE",
"133 106 CURVE SMOOTH",
"142 112 OFFCURVE",
"148 122 OFFCURVE",
"148 134 CURVE SMOOTH",
"148 518 LINE SMOOTH",
"148 530 OFFCURVE",
"142 540 OFFCURVE",
"133 546 CURVE SMOOTH",
"125 551 OFFCURVE",
"120 560 OFFCURVE",
"120 570 CURVE SMOOTH",
"120 586 OFFCURVE",
"132 598 OFFCURVE",
"148 598 CURVE SMOOTH",
"158 598 OFFCURVE",
"167 593 OFFCURVE",
"172 585 CURVE SMOOTH",
"178 576 OFFCURVE",
"188 570 OFFCURVE",
"200 570 CURVE SMOOTH",
"304 570 LINE SMOOTH",
"439 570 OFFCURVE",
"536 467 OFFCURVE",
"536 324 CURVE SMOOTH",
"536 184 OFFCURVE",
"444 82 OFFCURVE",
"316 82 CURVE SMOOTH",
"200 82 LINE SMOOTH",
"188 82 OFFCURVE",
"178 76 OFFCURVE",
"172 67 CURVE SMOOTH",
"167 59 OFFCURVE",
"158 54 OFFCURVE",
"148 54 CURVE SMOOTH"
);
}
);
width = 660;
}
);
leftKerningGroup = l;
leftMetricsKey = l;
rightKerningGroup = O;
rightMetricsKey = O;
unicode = 0044;
},
{
glyphname = Eth;
lastChange = "2022-07-26 16:14:15 +0000";
layers = (
{
components = (
{
name = D;
transform = "{1, 0, 0, 1, 4, 0}";
}
);
layerId = "8007C042-6FBA-4E49-99B8-8B738A4EBE86";
paths = (
{
closed = 1;
nodes = (
"392 292 LINE",
"392 364 LINE",
"8 364 LINE",
"8 292 LINE"
);
}
);
width = 664;
},
{
components = (
{
name = D;
transform = "{1, 0, 0, 1, 10, 0}";
}
);
layerId = "ADDE491E-C0C4-4659-943C-53377B387F47";
paths = (
{
closed = 1;
nodes = (
"358 276 LINE",
"358 380 LINE",
"4 380 LINE",
"4 276 LINE"
);
}
);
width = 660;
},
{
components = (
{
name = D;
transform = "{1, 0, 0, 1, 10, 0}";
}
);
layerId = "0CF550E6-48ED-4BA5-8C66-195B58FED074";
paths = (
{
closed = 1;
nodes = (
"360 278 LINE",
"360 378 LINE",
"0 378 LINE",
"0 278 LINE"
);
}
);
width = 662;
},
{
components = (
{
name = inkstem_M;
transform = "{0, -1, 1, 0, 44, 142}";
},
{
name = inkstem_S;
transform = "{1, 0, 0, 1, 409, -128}";
},
{
name = inkcurve_L;
transform = "{-1, 0, 0, 1, 685, 47}";
},
{
name = inkstem_M;
transform = "{0, -1, 1, 0, 20, 710}";
},
{
name = inkstem_S;
transform = "{1, 0, 0, -1, 405, 780}";
}
);
layerId = m004;
paths = (
{
closed = 1;
nodes = (
"328 0 LINE SMOOTH",
"505 0 OFFCURVE",
"628 142 OFFCURVE",
"628 326 CURVE SMOOTH",
"628 520 OFFCURVE",
"491 650 OFFCURVE",
"312 650 CURVE SMOOTH",
"68 650 LINE",
"68 364 LINE",
"8 364 LINE",
"8 292 LINE",
"16 292 LINE SMOOTH",
"28 292 OFFCURVE",
"38 298 OFFCURVE",
"44 307 CURVE SMOOTH",
"49 315 OFFCURVE",
"58 320 OFFCURVE",
"68 320 CURVE SMOOTH",
"84 320 OFFCURVE",
"96 308 OFFCURVE",
"96 292 CURVE SMOOTH",
"96 282 OFFCURVE",
"91 273 OFFCURVE",
"83 268 CURVE SMOOTH",
"74 262 OFFCURVE",
"68 252 OFFCURVE",
"68 240 CURVE SMOOTH",
"68 0 LINE"
);
},
{
closed = 1;
nodes = (
"136 54 OFFCURVE",
"124 66 OFFCURVE",
"124 82 CURVE SMOOTH",
"124 92 OFFCURVE",
"129 101 OFFCURVE",
"137 106 CURVE SMOOTH",
"146 112 OFFCURVE",
"152 122 OFFCURVE",
"152 134 CURVE SMOOTH",
"152 292 LINE",
"396 292 LINE",
"396 364 LINE",
"204 364 LINE SMOOTH",
"192 364 OFFCURVE",
"182 358 OFFCURVE",
"176 349 CURVE SMOOTH",
"171 341 OFFCURVE",
"162 336 OFFCURVE",
"152 336 CURVE SMOOTH",
"136 336 OFFCURVE",
"124 348 OFFCURVE",
"124 364 CURVE SMOOTH",
"124 374 OFFCURVE",
"129 383 OFFCURVE",
"137 388 CURVE SMOOTH",
"146 394 OFFCURVE",
"152 404 OFFCURVE",
"152 416 CURVE SMOOTH",
"152 518 LINE SMOOTH",
"152 530 OFFCURVE",
"146 540 OFFCURVE",
"137 546 CURVE SMOOTH",
"129 551 OFFCURVE",
"124 560 OFFCURVE",
"124 570 CURVE SMOOTH",
"124 586 OFFCURVE",
"136 598 OFFCURVE",
"152 598 CURVE SMOOTH",
"162 598 OFFCURVE",
"171 593 OFFCURVE",
"176 585 CURVE SMOOTH",
"182 576 OFFCURVE",
"192 570 OFFCURVE",
"204 570 CURVE SMOOTH",
"308 570 LINE SMOOTH",
"443 570 OFFCURVE",
"540 467 OFFCURVE",
"540 324 CURVE SMOOTH",
"540 184 OFFCURVE",
"448 82 OFFCURVE",
"320 82 CURVE SMOOTH",
"204 82 LINE SMOOTH",
"192 82 OFFCURVE",
"182 76 OFFCURVE",
"176 67 CURVE SMOOTH",
"171 59 OFFCURVE",
"162 54 OFFCURVE",
"152 54 CURVE SMOOTH"
);
}
);
width = 664;
}
);
leftKerningGroup = lslash;
rightKerningGroup = O;
rightMetricsKey = O;
unicode = 00D0;
},
{
color = 10;
glyphname = E;
lastChange = "2022-07-26 21:23:17 +0000";
layers = (
{
anchors = (
{
name = ogonek;
position = "{516, 0}";
},
{
name = top;
position = "{288, 650}";
}
);
layerId = "8007C042-6FBA-4E49-99B8-8B738A4EBE86";
paths = (
{
closed = 1;
nodes = (
"148 0 LINE",
"148 650 LINE",
"64 650 LINE",
"64 0 LINE"
);
},
{
closed = 1;
nodes = (
"516 0 LINE",
"516 82 LINE",
"128 82 LINE",
"128 0 LINE"
);
},
{
closed = 1;
nodes = (
"460 292 LINE",
"460 372 LINE",
"128 372 LINE",
"128 292 LINE"
);
},
{
closed = 1;
nodes = (
"508 570 LINE",
"508 650 LINE",
"128 650 LINE",
"128 570 LINE"
);
}
);
width = 548;
},
{
anchors = (
{
name = ogonek;
position = "{526, 0}";
},
{
name = top;
position = "{288, 650}";
}
);
layerId = "ADDE491E-C0C4-4659-943C-53377B387F47";
paths = (
{
closed = 1;
nodes = (
"198 0 LINE",
"198 650 LINE",
"50 650 LINE",
"50 0 LINE"
);
},
{
closed = 1;
nodes = (
"526 0 LINE",
"526 136 LINE",
"178 136 LINE",
"178 0 LINE"
);
},
{
closed = 1;
nodes = (
"458 280 LINE",
"458 384 LINE",
"178 384 LINE",
"178 280 LINE"
);
},
{
closed = 1;
nodes = (
"516 516 LINE",
"516 650 LINE",
"178 650 LINE",
"178 516 LINE"
);
}
);
width = 554;
},
{
anchors = (
{
name = ogonek;
position = "{528, 0}";
},
{
name = top;
position = "{288, 650}";
}
);
layerId = "0CF550E6-48ED-4BA5-8C66-195B58FED074";
paths = (
{
closed = 1;
nodes = (
"254 0 LINE",
"254 650 LINE",
"42 650 LINE",
"42 0 LINE"
);
},
{
closed = 1;
nodes = (
"528 0 LINE",
"528 170 LINE",
"234 170 LINE",
"234 0 LINE"
);
},
{
closed = 1;
nodes = (
"448 276 LINE",
"448 388 LINE",
"234 388 LINE",
"234 276 LINE"
);
},
{
closed = 1;
nodes = (
"516 482 LINE",
"516 650 LINE",
"234 650 LINE",
"234 482 LINE"
);
}
);
width = 552;
},
{
anchors = (
{
name = ogonek;
position = "{516, 0}";
},
{
name = top;
position = "{288, 650}";
}
);
components = (
{
name = inkstem_L;
transform = "{0, -1, 1, 0, 40, 142}";
},
{
name = inkstem_M;
transform = "{0, -1, 1, 0, 100, 432}";
},
{
name = inkstem_M;
transform = "{0, -1, 1, 0, 16, 710}";
},
{
name = inkstem_S;
transform = "{1, 0, 0, 1, 352, 360}";
}
);
layerId = m004;
paths = (
{
closed = 1;
nodes = (
"516 0 LINE",
"516 82 LINE",
"200 82 LINE SMOOTH",
"188 82 OFFCURVE",
"178 76 OFFCURVE",
"172 67 CURVE SMOOTH",
"167 59 OFFCURVE",
"158 54 OFFCURVE",
"148 54 CURVE SMOOTH",
"132 54 OFFCURVE",
"120 66 OFFCURVE",
"120 82 CURVE SMOOTH",
"120 92 OFFCURVE",
"125 101 OFFCURVE",
"133 106 CURVE SMOOTH",
"142 112 OFFCURVE",
"148 122 OFFCURVE",
"148 134 CURVE SMOOTH",
"148 240 LINE SMOOTH",
"148 252 OFFCURVE",
"142 262 OFFCURVE",
"133 268 CURVE SMOOTH",
"125 273 OFFCURVE",
"120 282 OFFCURVE",
"120 292 CURVE SMOOTH",
"120 308 OFFCURVE",
"132 320 OFFCURVE",
"148 320 CURVE SMOOTH",
"158 320 OFFCURVE",
"167 315 OFFCURVE",
"172 307 CURVE SMOOTH",
"178 298 OFFCURVE",
"188 292 OFFCURVE",
"200 292 CURVE SMOOTH",
"460 292 LINE",
"460 372 LINE",
"200 372 LINE SMOOTH",
"188 372 OFFCURVE",
"178 366 OFFCURVE",
"172 357 CURVE SMOOTH",
"167 349 OFFCURVE",
"158 344 OFFCURVE",
"148 344 CURVE SMOOTH",
"132 344 OFFCURVE",
"120 356 OFFCURVE",
"120 372 CURVE SMOOTH",
"120 382 OFFCURVE",
"125 391 OFFCURVE",
"133 396 CURVE SMOOTH",
"142 402 OFFCURVE",
"148 412 OFFCURVE",
"148 424 CURVE SMOOTH",
"148 518 LINE SMOOTH",
"148 530 OFFCURVE",
"142 540 OFFCURVE",
"133 546 CURVE SMOOTH",
"125 551 OFFCURVE",
"120 560 OFFCURVE",
"120 570 CURVE SMOOTH",
"120 586 OFFCURVE",
"132 598 OFFCURVE",
"148 598 CURVE SMOOTH",
"158 598 OFFCURVE",
"167 593 OFFCURVE",
"172 585 CURVE SMOOTH",
"178 576 OFFCURVE",
"188 570 OFFCURVE",
"200 570 CURVE SMOOTH",
"508 570 LINE",
"508 650 LINE",
"64 650 LINE",
"64 0 LINE"
);
}
);
width = 548;
}
);
leftKerningGroup = l;
leftMetricsKey = l;
rightKerningGroup = E;
unicode = 0045;
},
{
glyphname = Schwa;
lastChange = "2022-07-27 20:38:25 +0000";
layers = (
{
components = (
{
name = inkstem_S;
transform = "{1, 0, 0, 1, 42, -128}";
},
{
name = inkcurve_L;
transform = "{0, 1, -1, 0, 616, -71}";
},
{
name = inkstem_S;
transform = "{1, 0, 0, -1, 24, 752}";
},
{
name = inkstem_S;
transform = "{1, 0, 0, 1, 429, -128}";
},
{
name = inkcurve_L;
transform = "{0, -1, -1, 0, 618, 722}";
},
{
name = inkstem_S;
transform = "{1, 0, 0, -1, 428, 780}";
},
{
name = inkstem_M;
transform = "{0, -1, 1, 0, 60, 428}";
}
);
layerId = m004;
paths = (
{
closed = 1;
nodes = (
"511 -12 OFFCURVE",
"636 128 OFFCURVE",
"636 324 CURVE SMOOTH",
"636 521 OFFCURVE",
"511 662 OFFCURVE",
"336 662 CURVE SMOOTH",
"204 662 OFFCURVE",
"87 581 OFFCURVE",
"56 468 CURVE",
"152 436 LINE",
"170 524 OFFCURVE",
"248 580 OFFCURVE",
"340 580 CURVE SMOOTH",
"438 580 OFFCURVE",
"510 518 OFFCURVE",
"537 416 CURVE SMOOTH",
"540 406 OFFCURVE",
"551 397 OFFCURVE",
"562 395 CURVE SMOOTH",
"574 393 OFFCURVE",
"581 381 OFFCURVE",
"581 368 CURVE SMOOTH",
"581 352 OFFCURVE",
"569 340 OFFCURVE",
"553 340 CURVE SMOOTH",
"541 340 OFFCURVE",
"531 347 OFFCURVE",
"527 357 CURVE SMOOTH",
"525 364 OFFCURVE",
"519 368 OFFCURVE",
"511 368 CURVE SMOOTH",
"38 368 LINE",
"18 144 OFFCURVE",
"148 -12 OFFCURVE",
"336 -12 CURVE SMOOTH"
);
},
{
closed = 1;
nodes = (
"231 72 OFFCURVE",
"154 139 OFFCURVE",
"133 248 CURVE SMOOTH",
"131 257 OFFCURVE",
"124 259 OFFCURVE",
"116 260 CURVE SMOOTH",
"102 262 OFFCURVE",
"92 273 OFFCURVE",
"92 288 CURVE SMOOTH",
"92 304 OFFCURVE",
"104 316 OFFCURVE",
"120 316 CURVE SMOOTH",
"132 316 OFFCURVE",
"142 309 OFFCURVE",
"146 299 CURVE SMOOTH",
"148 292 OFFCURVE",
"154 288 OFFCURVE",
"162 288 CURVE SMOOTH",
"511 288 LINE SMOOTH",
"519 288 OFFCURVE",
"525 292 OFFCURVE",
"527 299 CURVE SMOOTH",
"531 309 OFFCURVE",
"541 316 OFFCURVE",
"553 316 CURVE SMOOTH",
"569 316 OFFCURVE",
"581 304 OFFCURVE",
"581 288 CURVE SMOOTH",
"581 273 OFFCURVE",
"571 262 OFFCURVE",
"557 260 CURVE SMOOTH",
"549 259 OFFCURVE",
"542 254 OFFCURVE",
"540 247 CURVE SMOOTH",
"518 141 OFFCURVE",
"446 72 OFFCURVE",
"338 72 CURVE SMOOTH"
);
}
);
width = 672;
},
{
layerId = "8007C042-6FBA-4E49-99B8-8B738A4EBE86";
paths = (
{
closed = 1;
nodes = (
"511 -12 OFFCURVE",
"636 128 OFFCURVE",
"636 324 CURVE SMOOTH",
"636 521 OFFCURVE",
"511 662 OFFCURVE",
"336 662 CURVE SMOOTH",
"204 662 OFFCURVE",
"87 581 OFFCURVE",
"56 468 CURVE",
"152 436 LINE",
"170 524 OFFCURVE",
"248 580 OFFCURVE",
"340 580 CURVE SMOOTH",
"464 580 OFFCURVE",
"548 480 OFFCURVE",
"548 324 CURVE SMOOTH",
"548 176 OFFCURVE",
"470 72 OFFCURVE",
"338 72 CURVE SMOOTH",
"218 72 OFFCURVE",
"136 156 OFFCURVE",
"128 288 CURVE",
"568 288 LINE",
"568 368 LINE",
"38 368 LINE",
"18 144 OFFCURVE",
"148 -12 OFFCURVE",
"336 -12 CURVE SMOOTH"
);
}
);
width = 672;
},
{
layerId = "ADDE491E-C0C4-4659-943C-53377B387F47";
paths = (
{
closed = 1;
nodes = (
"520 -12 OFFCURVE",
"644 128 OFFCURVE",
"644 324 CURVE SMOOTH",
"644 520 OFFCURVE",
"520 662 OFFCURVE",
"336 662 CURVE SMOOTH",
"200 662 OFFCURVE",
"88 588 OFFCURVE",
"52 488 CURVE",
"206 428 LINE",
"222 488 OFFCURVE",
"274 522 OFFCURVE",
"334 522 CURVE SMOOTH",
"426 522 OFFCURVE",
"488 444 OFFCURVE",
"488 324 CURVE SMOOTH",
"488 208 OFFCURVE",
"432 132 OFFCURVE",
"340 132 CURVE SMOOTH",
"262 132 OFFCURVE",
"206 187 OFFCURVE",
"196 272 CURVE",
"508 272 LINE",
"508 384 LINE",
"30 384 LINE",
"10 153 OFFCURVE",
"136 -12 OFFCURVE",
"336 -12 CURVE SMOOTH"
);
}
);
width = 672;
},
{
layerId = "0CF550E6-48ED-4BA5-8C66-195B58FED074";
paths = (
{
closed = 1;
nodes = (
"517 -12 OFFCURVE",
"650 129 OFFCURVE",
"650 325 CURVE SMOOTH",
"650 521 OFFCURVE",
"514 662 OFFCURVE",
"324 662 CURVE SMOOTH",
"188 662 OFFCURVE",
"72 591 OFFCURVE",
"36 487 CURVE",
"248 408 LINE",
"256 448 OFFCURVE",
"292 476 OFFCURVE",
"332 476 CURVE SMOOTH",
"392 476 OFFCURVE",
"430 416 OFFCURVE",
"430 320 CURVE SMOOTH",
"430 232 OFFCURVE",
"396 176 OFFCURVE",
"336 176 CURVE SMOOTH",
"284 176 OFFCURVE",
"246 220 OFFCURVE",
"244 284 CURVE",
"449 284 LINE",
"449 368 LINE",
"23 367 LINE",
"-1 146 OFFCURVE",
"128 -12 OFFCURVE",
"332 -12 CURVE SMOOTH"
);
}
);
width = 670;
}
);
leftKerningGroup = O;
leftMetricsKey = O;
rightKerningGroup = O;
rightMetricsKey = O;
unicode = 018F;
},
{
color = 10;
glyphname = F;
lastChange = "2022-07-16 18:08:05 +0000";
layers = (
{
layerId = "8007C042-6FBA-4E49-99B8-8B738A4EBE86";
paths = (
{
closed = 1;
nodes = (
"148 0 LINE",
"148 650 LINE",
"64 650 LINE",
"64 0 LINE"
);
},
{
closed = 1;
nodes = (
"468 276 LINE",
"468 356 LINE",
"128 356 LINE",
"128 276 LINE"
);
},
{
closed = 1;
nodes = (
"504 570 LINE",
"504 650 LINE",
"128 650 LINE",
"128 570 LINE"
);
}
);
width = 528;
},
{
layerId = "ADDE491E-C0C4-4659-943C-53377B387F47";
paths = (
{
closed = 1;
nodes = (
"198 0 LINE",
"198 650 LINE",
"50 650 LINE",
"50 0 LINE"
);
},
{
closed = 1;
nodes = (
"456 250 LINE",
"456 358 LINE",
"178 358 LINE",
"178 250 LINE"
);
},
{
closed = 1;
nodes = (
"500 514 LINE",
"500 650 LINE",
"178 650 LINE",
"178 514 LINE"
);
}
);
width = 512;
},
{
layerId = "0CF550E6-48ED-4BA5-8C66-195B58FED074";
paths = (
{
closed = 1;
nodes = (
"254 0 LINE",
"254 650 LINE",
"42 650 LINE",
"42 0 LINE"
);
},
{
closed = 1;
nodes = (
"458 226 LINE",
"458 358 LINE",
"234 358 LINE",
"234 226 LINE"
);
},
{
closed = 1;
nodes = (
"506 466 LINE",
"506 650 LINE",
"234 650 LINE",
"234 466 LINE"
);
}
);
width = 512;
},
{
components = (
{
name = inkstem_M;
transform = "{-1, 0, 0, -1, 206, 360}";
},
{
name = inkstem_L;
transform = "{0, -1, 1, 0, 44, 417}";
},
{
name = inkstem_M;
transform = "{0, -1, 1, 0, 16, 710}";
},
{
name = inkstem_S;
transform = "{1, 0, 0, 1, 348, 360}";
}
);
layerId = m004;
paths = (
{
closed = 1;
nodes = (
"148 0 LINE",
"148 224 LINE SMOOTH",
"148 236 OFFCURVE",
"142 246 OFFCURVE",
"133 252 CURVE SMOOTH",
"125 257 OFFCURVE",
"120 266 OFFCURVE",
"120 276 CURVE SMOOTH",
"120 292 OFFCURVE",
"132 304 OFFCURVE",
"148 304 CURVE SMOOTH",
"158 304 OFFCURVE",
"167 299 OFFCURVE",
"172 291 CURVE SMOOTH",
"178 282 OFFCURVE",
"188 276 OFFCURVE",
"200 276 CURVE SMOOTH",
"468 276 LINE",
"468 356 LINE",
"200 356 LINE SMOOTH",
"188 356 OFFCURVE",
"178 350 OFFCURVE",
"172 341 CURVE SMOOTH",
"167 333 OFFCURVE",
"158 328 OFFCURVE",
"148 328 CURVE SMOOTH",
"132 328 OFFCURVE",
"120 340 OFFCURVE",
"120 356 CURVE SMOOTH",
"120 366 OFFCURVE",
"125 375 OFFCURVE",
"133 380 CURVE SMOOTH",
"142 386 OFFCURVE",
"148 396 OFFCURVE",
"148 408 CURVE SMOOTH",
"148 518 LINE SMOOTH",
"148 530 OFFCURVE",
"142 540 OFFCURVE",
"133 546 CURVE SMOOTH",
"125 551 OFFCURVE",
"120 560 OFFCURVE",
"120 570 CURVE SMOOTH",
"120 586 OFFCURVE",
"132 598 OFFCURVE",
"148 598 CURVE SMOOTH",
"158 598 OFFCURVE",
"167 593 OFFCURVE",
"172 585 CURVE SMOOTH",
"178 576 OFFCURVE",
"188 570 OFFCURVE",
"200 570 CURVE SMOOTH",
"504 570 LINE",
"504 650 LINE",
"64 650 LINE",
"64 0 LINE"
);
}
);
width = 528;
}
);
leftKerningGroup = l;
leftMetricsKey = l;
rightKerningGroup = F;
unicode = 0046;
},
{
color = 10;
glyphname = G;
lastChange = "2022-07-16 20:00:23 +0000";
layers = (
{
anchors = (
{
name = bottom;
position = "{352, 0}";
},
{
name = top;
position = "{348, 650}";
}
);
layerId = "8007C042-6FBA-4E49-99B8-8B738A4EBE86";
paths = (
{
closed = 1;
nodes = (
"482 -12 OFFCURVE",
"584 84 OFFCURVE",
"584 216 CURVE",
"584 300 LINE",
"558 300 LINE",
"558 268 LINE",
"554 155 OFFCURVE",
"465 72 OFFCURVE",
"348 72 CURVE SMOOTH",
"217 72 OFFCURVE",
"124 179 OFFCURVE",
"124 327 CURVE SMOOTH",
"124 473 OFFCURVE",
"217 580 OFFCURVE",
"344 580 CURVE SMOOTH",
"445 580 OFFCURVE",
"525 512 OFFCURVE",
"536 416 CURVE",
"632 448 LINE",
"609 572 OFFCURVE",
"489 662 OFFCURVE",
"346 662 CURVE SMOOTH",
"166 662 OFFCURVE",
"36 519 OFFCURVE",
"36 325 CURVE SMOOTH",
"36 130 OFFCURVE",
"164 -12 OFFCURVE",
"340 -12 CURVE SMOOTH"
);
},
{
closed = 1;
nodes = (
"652 0 LINE",
"632 355 LINE",
"266 355 LINE",
"266 277 LINE",
"576 277 LINE",
"576 184 LINE",
"596 0 LINE"
);
}
);
width = 696;
},
{
anchors = (
{
name = bottom;
position = "{348, 0}";
},
{
name = top;
position = "{348, 650}";
}
);
layerId = "ADDE491E-C0C4-4659-943C-53377B387F47";
paths = (
{
closed = 1;
nodes = (
"448 -12 OFFCURVE",
"540 60 OFFCURVE",
"548 160 CURVE",
"548 282 LINE",
"492 282 LINE",
"492 262 LINE",
"488 184 OFFCURVE",
"428 128 OFFCURVE",
"350 128 CURVE SMOOTH",
"254 128 OFFCURVE",
"184 213 OFFCURVE",
"184 328 CURVE SMOOTH",
"184 443 OFFCURVE",
"250 524 OFFCURVE",
"344 524 CURVE SMOOTH",
"416 524 OFFCURVE",
"470 474 OFFCURVE",
"482 404 CURVE",
"628 456 LINE",
"604 577 OFFCURVE",
"488 662 OFFCURVE",
"348 662 CURVE SMOOTH",
"164 662 OFFCURVE",
"28 524 OFFCURVE",
"28 324 CURVE SMOOTH",
"28 129 OFFCURVE",
"154 -12 OFFCURVE",
"328 -12 CURVE SMOOTH"
);
},
{
closed = 1;
nodes = (
"664 0 LINE",
"632 360 LINE",
"278 360 LINE",
"278 256 LINE",
"536 256 LINE",
"536 152 LINE",
"572 0 LINE"
);
}
);
width = 700;
},
{
anchors = (
{
name = bottom;
position = "{338, 0}";
},
{
name = top;
position = "{344, 650}";
}
);
layerId = "0CF550E6-48ED-4BA5-8C66-195B58FED074";
paths = (
{
closed = 1;
nodes = (
"443 -12 OFFCURVE",
"552 76 OFFCURVE",
"560 200 CURVE",
"560 276 LINE",
"444 276 LINE",
"444 276 LINE",
"440 210 OFFCURVE",
"401 168 OFFCURVE",
"346 168 CURVE SMOOTH",
"278 168 OFFCURVE",
"232 230 OFFCURVE",
"232 324 CURVE SMOOTH",
"232 417 OFFCURVE",
"277 476 OFFCURVE",
"346 476 CURVE SMOOTH",
"402 476 OFFCURVE",
"440 438 OFFCURVE",
"444 380 CURVE",
"640 425 LINE",
"620 565 OFFCURVE",
"500 662 OFFCURVE",
"346 662 CURVE SMOOTH",
"155 662 OFFCURVE",
"20 519 OFFCURVE",
"20 316 CURVE SMOOTH",
"20 124 OFFCURVE",
"141 -12 OFFCURVE",
"312 -12 CURVE SMOOTH"
);
},
{
closed = 1;
nodes = (
"672 0 LINE",
"628 356 LINE",
"290 356 LINE",
"290 260 LINE",
"460 260 LINE",
"459 152 LINE",
"544 0 LINE"
);
}
);
width = 700;
},
{
anchors = (
{
name = bottom;
position = "{352, 0}";
},
{
name = top;
position = "{348, 650}";
}
);
components = (
{
name = inkstem_S;
transform = "{1, 0, 0, 1, 50, -128}";
},
{
name = inkcurve_L;
transform = "{0, 1, -1, 0, 626, -70}";
},
{
name = inkcurve_L;
transform = "{1, 0, 0, 1, -21, 47}";
},
{
name = inkstem_S;
transform = "{1, 0, 0, -1, 52, 780}";
},
{
name = inkstem_L;
transform = "{0, -1, 1, 0, 70, 416}";
},
{
name = inkcurve_L;
transform = "{0, -1, -1, 0, 626, 722}";
},
{
name = inkstem_S;
transform = "{1, 0, 0, -1, 468, 736}";
}
);
layerId = m004;
paths = (
{
closed = 1;
nodes = (
"440 -12 OFFCURVE",
"520 36 OFFCURVE",
"559 110 CURVE SMOOTH",
"563 117 OFFCURVE",
"562 124 OFFCURVE",
"556 128 CURVE SMOOTH",
"550 133 OFFCURVE",
"546 141 OFFCURVE",
"546 150 CURVE SMOOTH",
"546 166 OFFCURVE",
"558 178 OFFCURVE",
"574 178 CURVE SMOOTH",
"590 178 OFFCURVE",
"602 166 OFFCURVE",
"602 150 CURVE SMOOTH",
"602 141 OFFCURVE",
"598 133 OFFCURVE",
"591 128 CURVE SMOOTH",
"586 124 OFFCURVE",
"583 117 OFFCURVE",
"584 110 CURVE SMOOTH",
"596 0 LINE",
"652 0 LINE",
"632 355 LINE",
"266 355 LINE",
"266 277 LINE",
"502 277 LINE SMOOTH",
"514 277 OFFCURVE",
"524 283 OFFCURVE",
"530 292 CURVE SMOOTH",
"535 300 OFFCURVE",
"544 305 OFFCURVE",
"554 305 CURVE SMOOTH",
"570 305 OFFCURVE",
"582 293 OFFCURVE",
"582 277 CURVE SMOOTH",
"582 267 OFFCURVE",
"577 258 OFFCURVE",
"569 253 CURVE SMOOTH",
"561 247 OFFCURVE",
"555 237 OFFCURVE",
"554 228 CURVE SMOOTH",
"535 136 OFFCURVE",
"451 72 OFFCURVE",
"348 72 CURVE SMOOTH",
"217 72 OFFCURVE",
"124 179 OFFCURVE",
"124 327 CURVE SMOOTH",
"124 473 OFFCURVE",
"217 580 OFFCURVE",
"344 580 CURVE SMOOTH",
"445 580 OFFCURVE",
"525 512 OFFCURVE",
"536 416 CURVE",
"632 448 LINE",
"609 572 OFFCURVE",
"489 662 OFFCURVE",
"346 662 CURVE SMOOTH",
"166 662 OFFCURVE",
"36 519 OFFCURVE",
"36 325 CURVE SMOOTH",
"36 130 OFFCURVE",
"164 -12 OFFCURVE",
"340 -12 CURVE SMOOTH"
);
}
);
width = 696;
}
);
leftKerningGroup = O;
leftMetricsKey = O;
rightKerningGroup = G;
unicode = 0047;
},
{
glyphname = H;
lastChange = "2022-07-26 20:46:00 +0000";
layers = (
{
layerId = "8007C042-6FBA-4E49-99B8-8B738A4EBE86";
paths = (
{
closed = 1;
nodes = (
"596 0 LINE",
"596 650 LINE",
"512 650 LINE",
"512 0 LINE"
);
},
{
closed = 1;
nodes = (
"148 0 LINE",
"148 650 LINE",
"64 650 LINE",
"64 0 LINE"
);
},
{
closed = 1;
nodes = (
"532 292 LINE",
"532 372 LINE",
"128 372 LINE",
"128 292 LINE"
);
}
);
width = 660;
},
{
layerId = "ADDE491E-C0C4-4659-943C-53377B387F47";
paths = (
{
closed = 1;
nodes = (
"602 0 LINE",
"602 650 LINE",
"454 650 LINE",
"454 0 LINE"
);
},
{
closed = 1;
nodes = (
"198 0 LINE",
"198 650 LINE",
"50 650 LINE",
"50 0 LINE"
);
},
{
closed = 1;
nodes = (
"474 272 LINE",
"474 392 LINE",
"178 392 LINE",
"178 272 LINE"
);
}
);
width = 652;
},
{
layerId = "0CF550E6-48ED-4BA5-8C66-195B58FED074";
paths = (
{
closed = 1;
nodes = (
"630 0 LINE",
"630 650 LINE",
"418 650 LINE",
"418 0 LINE"
);
},
{
closed = 1;
nodes = (
"254 0 LINE",
"254 650 LINE",
"42 650 LINE",
"42 0 LINE"
);
},
{
closed = 1;
nodes = (
"438 256 LINE",
"438 408 LINE",
"234 408 LINE",
"234 256 LINE"
);
}
);
width = 672;
},
{
components = (
{
name = inkstem_M;
transform = "{0, -1, 1, 0, 52, 432}";
},
{
name = inkstem_M;
transform = "{-1, 0, 0, -1, 654, 846}";
},
{
name = inkstem_S;
transform = "{1, 0, 0, 1, 6, 344}";
},
{
name = inkstem_S;
transform = "{1, 0, 0, 1, 454, -194}";
},
{
name = inkstem_L;
transform = "{-1, 0, 0, -1, 206, 424}";
}
);
layerId = m004;
paths = (
{
closed = 1;
nodes = (
"148 0 LINE",
"148 240 LINE SMOOTH",
"148 252 OFFCURVE",
"142 262 OFFCURVE",
"133 268 CURVE SMOOTH",
"125 273 OFFCURVE",
"120 282 OFFCURVE",
"120 292 CURVE SMOOTH",
"120 308 OFFCURVE",
"132 320 OFFCURVE",
"148 320 CURVE SMOOTH",
"158 320 OFFCURVE",
"167 315 OFFCURVE",
"172 307 CURVE SMOOTH",
"178 298 OFFCURVE",
"188 292 OFFCURVE",
"200 292 CURVE SMOOTH",
"460 292 LINE SMOOTH",
"472 292 OFFCURVE",
"482 298 OFFCURVE",
"488 307 CURVE SMOOTH",
"493 315 OFFCURVE",
"502 320 OFFCURVE",
"512 320 CURVE SMOOTH",
"528 320 OFFCURVE",
"540 308 OFFCURVE",
"540 292 CURVE SMOOTH",
"540 282 OFFCURVE",
"535 273 OFFCURVE",
"527 268 CURVE SMOOTH",
"518 262 OFFCURVE",
"512 252 OFFCURVE",
"512 240 CURVE SMOOTH",
"512 0 LINE",
"596 0 LINE",
"596 650 LINE",
"512 650 LINE",
"512 424 LINE SMOOTH",
"512 412 OFFCURVE",
"518 402 OFFCURVE",
"527 396 CURVE SMOOTH",
"535 391 OFFCURVE",
"540 382 OFFCURVE",
"540 372 CURVE SMOOTH",
"540 356 OFFCURVE",
"528 344 OFFCURVE",
"512 344 CURVE SMOOTH",
"502 344 OFFCURVE",
"493 349 OFFCURVE",
"488 357 CURVE SMOOTH",
"482 366 OFFCURVE",
"472 372 OFFCURVE",
"460 372 CURVE SMOOTH",
"200 372 LINE SMOOTH",
"188 372 OFFCURVE",
"178 366 OFFCURVE",
"172 357 CURVE SMOOTH",
"167 349 OFFCURVE",
"158 344 OFFCURVE",
"148 344 CURVE SMOOTH",
"132 344 OFFCURVE",
"120 356 OFFCURVE",
"120 372 CURVE SMOOTH",
"120 382 OFFCURVE",
"125 391 OFFCURVE",
"133 396 CURVE SMOOTH",
"142 402 OFFCURVE",
"148 412 OFFCURVE",
"148 424 CURVE SMOOTH",
"148 650 LINE",
"64 650 LINE",
"64 0 LINE"
);
}
);
width = 660;
}
);
leftKerningGroup = l;
leftMetricsKey = l;
rightKerningGroup = l;
rightMetricsKey = l;
unicode = 0048;
},
{
glyphname = Hbar;
lastChange = "2022-07-17 10:05:07 +0000";
layers = (
{
components = (
{
name = H;
transform = "{1, 0, 0, 1, 4, 0}";
}
);
layerId = "8007C042-6FBA-4E49-99B8-8B738A4EBE86";
paths = (
{
closed = 1;
nodes = (
"660 510 LINE",
"660 582 LINE",
"8 582 LINE",
"8 510 LINE"
);
}
);
width = 668;
},
{
components = (
{
name = H;
transform = "{1, 0, 0, 1, 10, 0}";
}
);
layerId = "ADDE491E-C0C4-4659-943C-53377B387F47";
paths = (
{
closed = 1;
nodes = (
"668 488 LINE",
"668 590 LINE",
"4 590 LINE",
"4 488 LINE"
);
}
);
width = 672;
},
{
components = (
{
name = H;
transform = "{1, 0, 0, 1, 10, 0}";
}
);
layerId = "0CF550E6-48ED-4BA5-8C66-195B58FED074";
paths = (
{
closed = 1;
nodes = (
"696 497 LINE",
"696 599 LINE",
"0 599 LINE",
"0 497 LINE"
);
}
);
width = 696;
},
{
components = (
{
name = inkstem_L;
transform = "{-1, 0, 0, -1, 206, 424}";
},
{
name = inkstem_S;
transform = "{1, 0, 0, 1, 454, -194}";
},
{
name = inkstem_M;
transform = "{0, -1, 1, 0, 52, 432}";
},
{
name = inkstem_L;
transform = "{0, -1, 1, 0, 20, 646}";
}
);
layerId = m004;
paths = (
{
closed = 1;
nodes = (
"148 0 LINE",
"148 240 LINE SMOOTH",
"148 252 OFFCURVE",
"142 262 OFFCURVE",
"133 268 CURVE SMOOTH",
"125 273 OFFCURVE",
"120 282 OFFCURVE",
"120 292 CURVE SMOOTH",
"120 308 OFFCURVE",
"132 320 OFFCURVE",
"148 320 CURVE SMOOTH",
"158 320 OFFCURVE",
"167 315 OFFCURVE",
"172 307 CURVE SMOOTH",
"178 298 OFFCURVE",
"188 292 OFFCURVE",
"200 292 CURVE SMOOTH",
"460 292 LINE SMOOTH",
"472 292 OFFCURVE",
"482 298 OFFCURVE",
"488 307 CURVE SMOOTH",
"493 315 OFFCURVE",
"502 320 OFFCURVE",
"512 320 CURVE SMOOTH",
"528 320 OFFCURVE",
"540 308 OFFCURVE",
"540 292 CURVE SMOOTH",
"540 282 OFFCURVE",
"535 273 OFFCURVE",
"527 268 CURVE SMOOTH",
"518 262 OFFCURVE",
"512 252 OFFCURVE",
"512 240 CURVE SMOOTH",
"512 0 LINE",
"596 0 LINE",
"596 510 LINE",
"660 510 LINE",
"660 582 LINE",
"648 582 LINE SMOOTH",
"636 582 OFFCURVE",
"626 576 OFFCURVE",
"620 567 CURVE SMOOTH",
"615 559 OFFCURVE",
"606 554 OFFCURVE",
"596 554 CURVE SMOOTH",
"580 554 OFFCURVE",
"568 566 OFFCURVE",
"568 582 CURVE SMOOTH",
"568 592 OFFCURVE",
"573 601 OFFCURVE",
"581 606 CURVE SMOOTH",
"590 612 OFFCURVE",
"596 622 OFFCURVE",
"596 634 CURVE SMOOTH",
"596 650 LINE",
"512 650 LINE",
"512 582 LINE",
"200 582 LINE SMOOTH",
"188 582 OFFCURVE",
"178 576 OFFCURVE",
"172 567 CURVE SMOOTH",
"167 559 OFFCURVE",
"158 554 OFFCURVE",
"148 554 CURVE SMOOTH",
"132 554 OFFCURVE",
"120 566 OFFCURVE",
"120 582 CURVE SMOOTH",
"120 592 OFFCURVE",
"125 601 OFFCURVE",
"133 606 CURVE SMOOTH",
"142 612 OFFCURVE",
"148 622 OFFCURVE",
"148 634 CURVE SMOOTH",
"148 650 LINE",
"64 650 LINE",
"64 582 LINE",
"8 582 LINE",
"8 510 LINE",
"12 510 LINE SMOOTH",
"24 510 OFFCURVE",
"34 516 OFFCURVE",
"40 525 CURVE SMOOTH",
"45 533 OFFCURVE",
"54 538 OFFCURVE",
"64 538 CURVE SMOOTH",
"80 538 OFFCURVE",
"92 526 OFFCURVE",
"92 510 CURVE SMOOTH",
"92 500 OFFCURVE",
"87 491 OFFCURVE",
"79 486 CURVE SMOOTH",
"70 480 OFFCURVE",
"64 470 OFFCURVE",
"64 458 CURVE SMOOTH",
"64 0 LINE"
);
},
{
closed = 1;
nodes = (
"132 344 OFFCURVE",
"120 356 OFFCURVE",
"120 372 CURVE SMOOTH",
"120 382 OFFCURVE",
"125 391 OFFCURVE",
"133 396 CURVE SMOOTH",
"142 402 OFFCURVE",
"148 412 OFFCURVE",
"148 424 CURVE SMOOTH",
"148 510 LINE",
"460 510 LINE SMOOTH",
"472 510 OFFCURVE",
"482 516 OFFCURVE",
"488 525 CURVE SMOOTH",
"493 533 OFFCURVE",
"502 538 OFFCURVE",
"512 538 CURVE SMOOTH",
"528 538 OFFCURVE",
"540 526 OFFCURVE",
"540 510 CURVE SMOOTH",
"540 500 OFFCURVE",
"535 491 OFFCURVE",
"527 486 CURVE SMOOTH",
"518 480 OFFCURVE",
"512 470 OFFCURVE",
"512 458 CURVE SMOOTH",
"512 424 LINE SMOOTH",
"512 412 OFFCURVE",
"518 402 OFFCURVE",
"527 396 CURVE SMOOTH",
"535 391 OFFCURVE",
"540 382 OFFCURVE",
"540 372 CURVE SMOOTH",
"540 356 OFFCURVE",
"528 344 OFFCURVE",
"512 344 CURVE SMOOTH",
"502 344 OFFCURVE",
"493 349 OFFCURVE",
"488 357 CURVE SMOOTH",
"482 366 OFFCURVE",
"472 372 OFFCURVE",
"460 372 CURVE SMOOTH",
"200 372 LINE SMOOTH",
"188 372 OFFCURVE",
"178 366 OFFCURVE",
"172 357 CURVE SMOOTH",
"167 349 OFFCURVE",
"158 344 OFFCURVE",
"148 344 CURVE SMOOTH"
);
}
);
width = 668;
}
);
leftKerningGroup = lslash;
leftMetricsKey = Eth;
rightKerningGroup = lslash;
rightMetricsKey = "=|Eth";
unicode = 0126;
},
{
glyphname = I;
lastChange = "2022-07-16 19:59:15 +0000";
layers = (
{
anchors = (
{
name = ogonek;
position = "{148, 0}";
},
{
name = top;
position = "{106, 650}";
}
);
layerId = "8007C042-6FBA-4E49-99B8-8B738A4EBE86";
paths = (
{
closed = 1;
nodes = (
"148 0 LINE",
"148 650 LINE",
"64 650 LINE",
"64 0 LINE"
);
}
);
width = 212;
},
{
anchors = (
{
name = ogonek;
position = "{198, 0}";
},
{
name = top;
position = "{124, 650}";
}
);
layerId = "ADDE491E-C0C4-4659-943C-53377B387F47";
paths = (
{
closed = 1;
nodes = (
"198 0 LINE",
"198 650 LINE",
"50 650 LINE",
"50 0 LINE"
);
}
);
width = 248;
},
{
anchors = (
{
name = ogonek;
position = "{254, 0}";
},
{
name = top;
position = "{148, 650}";
}
);
layerId = "0CF550E6-48ED-4BA5-8C66-195B58FED074";
paths = (
{
closed = 1;
nodes = (
"254 0 LINE",
"254 650 LINE",
"42 650 LINE",
"42 0 LINE"
);
}
);
width = 296;
},
{
anchors = (
{
name = ogonek;
position = "{148, 0}";
},
{
name = top;
position = "{106, 650}";
}
);
components = (
{
name = inkstem_M;
transform = "{-1, 0, 0, -1, 206, 360}";
},
{
name = inkstem_L;
transform = "{1, 0, 0, 1, 6, 47}";
},
{
name = inkstem_S;
transform = "{1, 0, 0, 1, 6, 344}";
}
);
layerId = m004;
paths = (
{
closed = 1;
nodes = (
"148 0 LINE",
"148 650 LINE",
"64 650 LINE",
"64 0 LINE"
);
}
);
width = 212;
}
);
leftKerningGroup = l;
leftMetricsKey = l;
rightKerningGroup = l;
rightMetricsKey = l;
unicode = 0049;
},
{
glyphname = Idieresis;
lastChange = "2022-07-26 16:13:38 +0000";
layers = (
{
components = (
{
name = I;
}
);
layerId = "8007C042-6FBA-4E49-99B8-8B738A4EBE86";
paths = (
{
closed = 1;
nodes = (
"67 694 OFFCURVE",
"92 720 OFFCURVE",
"92 756 CURVE SMOOTH",
"92 792 OFFCURVE",
"67 818 OFFCURVE",
"32 818 CURVE SMOOTH",
"-3 818 OFFCURVE",
"-28 792 OFFCURVE",
"-28 756 CURVE SMOOTH",
"-28 720 OFFCURVE",
"-3 694 OFFCURVE",
"32 694 CURVE SMOOTH"
);
},
{
closed = 1;
nodes = (
"223 694 OFFCURVE",
"248 720 OFFCURVE",
"248 756 CURVE SMOOTH",
"248 792 OFFCURVE",
"223 818 OFFCURVE",
"188 818 CURVE SMOOTH",
"153 818 OFFCURVE",
"128 792 OFFCURVE",
"128 756 CURVE SMOOTH",
"128 720 OFFCURVE",
"153 694 OFFCURVE",
"188 694 CURVE SMOOTH"
);
}
);
width = 220;
},
{
components = (
{
name = I;
transform = "{1, 0, 0, 1, 6, 0}";
}
);
layerId = "ADDE491E-C0C4-4659-943C-53377B387F47";
paths = (
{
closed = 1;
nodes = (
"268 692 OFFCURVE",
"300 724 OFFCURVE",
"300 770 CURVE SMOOTH",
"300 816 OFFCURVE",
"268 848 OFFCURVE",
"222 848 CURVE SMOOTH",
"176 848 OFFCURVE",
"144 816 OFFCURVE",
"144 770 CURVE SMOOTH",
"144 724 OFFCURVE",
"176 692 OFFCURVE",
"222 692 CURVE SMOOTH"
);
},
{
closed = 1;
nodes = (
"84 692 OFFCURVE",
"116 724 OFFCURVE",
"116 770 CURVE SMOOTH",
"116 816 OFFCURVE",
"84 848 OFFCURVE",
"38 848 CURVE SMOOTH",
"-8 848 OFFCURVE",
"-40 816 OFFCURVE",
"-40 770 CURVE SMOOTH",
"-40 724 OFFCURVE",
"-8 692 OFFCURVE",
"38 692 CURVE SMOOTH"
);
}
);
width = 260;
},
{
components = (
{
name = I;
transform = "{1, 0, 0, 1, 2, 0}";
}
);
layerId = "0CF550E6-48ED-4BA5-8C66-195B58FED074";
paths = (
{
closed = 1;
nodes = (
"307 690 OFFCURVE",
"344 725 OFFCURVE",
"344 780 CURVE SMOOTH",
"344 835 OFFCURVE",
"307 870 OFFCURVE",
"250 870 CURVE SMOOTH",
"193 870 OFFCURVE",
"156 835 OFFCURVE",
"156 780 CURVE SMOOTH",
"156 725 OFFCURVE",
"193 690 OFFCURVE",
"250 690 CURVE SMOOTH"
);
},
{
closed = 1;
nodes = (
"99 690 OFFCURVE",
"136 725 OFFCURVE",
"136 780 CURVE SMOOTH",
"136 835 OFFCURVE",
"99 870 OFFCURVE",
"42 870 CURVE SMOOTH",
"-15 870 OFFCURVE",
"-52 835 OFFCURVE",
"-52 780 CURVE SMOOTH",
"-52 725 OFFCURVE",
"-15 690 OFFCURVE",
"42 690 CURVE SMOOTH"
);
}
);
width = 292;
},
{
components = (
{
name = I;
},
{
name = inkstem_S;
transform = "{1, 0, 0, 1, -68, 506}";
},
{
name = inkstem_S;
transform = "{1, 0, 0, 1, 88, 506}";
}
);
layerId = m004;
paths = (
{
closed = 1;
nodes = (
"223 694 OFFCURVE",
"248 720 OFFCURVE",
"248 756 CURVE SMOOTH",
"248 792 OFFCURVE",
"223 818 OFFCURVE",
"188 818 CURVE SMOOTH",
"153 818 OFFCURVE",
"128 792 OFFCURVE",
"128 756 CURVE SMOOTH",
"128 720 OFFCURVE",
"153 694 OFFCURVE",
"188 694 CURVE SMOOTH"
);
},
{
closed = 1;
nodes = (
"67 694 OFFCURVE",
"92 720 OFFCURVE",
"92 756 CURVE SMOOTH",
"92 792 OFFCURVE",
"67 818 OFFCURVE",
"32 818 CURVE SMOOTH",
"-3 818 OFFCURVE",
"-28 792 OFFCURVE",
"-28 756 CURVE SMOOTH",
"-28 720 OFFCURVE",
"-3 694 OFFCURVE",
"32 694 CURVE SMOOTH"
);
}
);
width = 220;
}
);
leftKerningGroup = l;
rightKerningGroup = l;
rightMetricsKey = "=|";
unicode = 00CF;
},
{
color = 10;
glyphname = J;
lastChange = "2022-07-16 20:10:20 +0000";
layers = (
{
layerId = "8007C042-6FBA-4E49-99B8-8B738A4EBE86";
paths = (
{
closed = 1;
nodes = (
"415 -12 OFFCURVE",
"512 88 OFFCURVE",
"512 228 CURVE SMOOTH",
"512 650 LINE",
"428 650 LINE",
"428 228 LINE SMOOTH",
"428 137 OFFCURVE",
"367 72 OFFCURVE",
"281 72 CURVE SMOOTH",
"195 72 OFFCURVE",
"134 137 OFFCURVE",
"134 228 CURVE SMOOTH",
"134 344 LINE",
"48 344 LINE",
"48 224 LINE SMOOTH",
"48 86 OFFCURVE",
"145 -12 OFFCURVE",
"280 -12 CURVE SMOOTH"
);
}
);
width = 568;
},
{
layerId = "ADDE491E-C0C4-4659-943C-53377B387F47";
paths = (
{
closed = 1;
nodes = (
"430 -12 OFFCURVE",
"532 91 OFFCURVE",
"532 236 CURVE SMOOTH",
"532 650 LINE",
"384 650 LINE",
"384 236 LINE SMOOTH",
"384 174 OFFCURVE",
"342 130 OFFCURVE",
"284 130 CURVE SMOOTH",
"228 130 OFFCURVE",
"188 173 OFFCURVE",
"188 232 CURVE SMOOTH",
"188 356 LINE",
"40 356 LINE",
"40 232 LINE SMOOTH",
"40 90 OFFCURVE",
"143 -12 OFFCURVE",
"288 -12 CURVE SMOOTH"
);
}
);
width = 576;
},
{
layerId = "0CF550E6-48ED-4BA5-8C66-195B58FED074";
paths = (
{
closed = 1;
nodes = (
"456 -12 OFFCURVE",
"570 90 OFFCURVE",
"570 232 CURVE SMOOTH",
"570 650 LINE",
"358 650 LINE",
"358 252 LINE SMOOTH",
"358 212 OFFCURVE",
"332 184 OFFCURVE",
"296 184 CURVE SMOOTH",
"261 184 OFFCURVE",
"236 212 OFFCURVE",
"236 250 CURVE SMOOTH",
"236 368 LINE",
"26 368 LINE",
"26 228 LINE SMOOTH",
"26 88 OFFCURVE",
"139 -12 OFFCURVE",
"296 -12 CURVE SMOOTH"
);
}
);
width = 604;
},
{
components = (
{
name = inkstem_L;
transform = "{1, 0, 0, 1, 370, 47}";
},
{
name = inkcurve_L;
transform = "{0, 1, -1, 0, 560, -69}";
},
{
name = inkstem_S;
transform = "{1, 0, 0, 1, 36, -156}";
},
{
name = inkstem_S;
transform = "{1, 0, 0, 1, 323, -156}";
},
{
name = inkstem_M;
transform = "{-1, 0, 0, -1, 570, 846}";
},
{
name = inkstem_M;
transform = "{1, 0, 0, 1, -9, -16}";
}
);
layerId = m004;
paths = (
{
closed = 1;
nodes = (
"415 -12 OFFCURVE",
"512 88 OFFCURVE",
"512 228 CURVE SMOOTH",
"512 650 LINE",
"428 650 LINE",
"428 228 LINE SMOOTH",
"428 137 OFFCURVE",
"367 72 OFFCURVE",
"281 72 CURVE SMOOTH",
"195 72 OFFCURVE",
"134 137 OFFCURVE",
"134 228 CURVE SMOOTH",
"134 344 LINE",
"48 344 LINE",
"48 224 LINE SMOOTH",
"48 86 OFFCURVE",
"145 -12 OFFCURVE",
"280 -12 CURVE SMOOTH"
);
}
);
width = 568;
}
);
leftKerningGroup = J;
rightKerningGroup = U;
rightMetricsKey = U;
unicode = 004A;
},
{
glyphname = K;
lastChange = "2022-07-16 20:09:26 +0000";
layers = (
{
anchors = (
{
name = bottom;
position = "{304, 0}";
},
{
name = top;
position = "{302, 650}";
}
);
components = (
{
name = I;
}
);
layerId = "8007C042-6FBA-4E49-99B8-8B738A4EBE86";
paths = (
{
closed = 1;
nodes = (
"568 650 LINE",
"456 650 LINE",
"128 254 LINE",
"128 136 LINE"
);
},
{
closed = 1;
nodes = (
"596 0 LINE",
"320 372 LINE",
"264 304 LINE",
"490 0 LINE"
);
}
);
width = 604;
},
{
anchors = (
{
name = bottom;
position = "{312, 0}";
},
{
name = top;
position = "{309, 650}";
}
);
components = (
{
name = I;
}
);
layerId = "ADDE491E-C0C4-4659-943C-53377B387F47";
paths = (
{
closed = 1;
nodes = (
"594 650 LINE",
"398 650 LINE",
"178 344 LINE",
"178 154 LINE"
);
},
{
closed = 1;
nodes = (
"614 0 LINE",
"356 390 LINE",
"270 284 LINE",
"434 0 LINE"
);
}
);
width = 618;
},
{
anchors = (
{
name = bottom;
position = "{336, 0}";
},
{
name = top;
position = "{336, 650}";
}
);
components = (
{
name = I;
}
);
layerId = "0CF550E6-48ED-4BA5-8C66-195B58FED074";
paths = (
{
closed = 1;
nodes = (
"660 650 LINE",
"384 650 LINE",
"218 380 LINE",
"218 132 LINE"
);
},
{
closed = 1;
nodes = (
"672 0 LINE",
"436 400 LINE",
"308 252 LINE",
"420 0 LINE"
);
}
);
width = 672;
},
{
associatedMasterId = "0CF550E6-48ED-4BA5-8C66-195B58FED074";
components = (
{
name = I;
}
);
layerId = "60DA9591-F1EB-4E00-88E8-7C8EA325C9E9";
name = "8 feb 22, 17:03";
paths = (
{
closed = 1;
nodes = (
"672 650 LINE",
"384 650 LINE",
"218 414 LINE",
"218 152 LINE"
);
},
{
closed = 1;
nodes = (
"684 0 LINE",
"432 428 LINE",
"292 280 LINE",
"432 0 LINE"
);
}
);
width = 684;
},
{
anchors = (
{
name = bottom;
position = "{304, 0}";
},
{
name = ogonek;
position = "{148, 0}";
},
{
name = top;
position = "{302, 650}";
}
);
components = (
{
name = inkstem_M;
transform = "{-1, 0, 0, -1, 206, 360}";
},
{
name = inkstem_L;
transform = "{1, 0, 0, 1, 6, 226}";
},
{
name = inkstem_L;
transform = "{0.80436, 0.59414, -0.59414, 0.80436, 576, -212}";
},
{
name = inkstem_S;
transform = "{1, 0, 0, 1, 364, 344}";
}
);
layerId = m004;
paths = (
{
closed = 1;
nodes = (
"148 0 LINE",
"148 159 LINE",
"243 270 LINE SMOOTH",
"247 275 OFFCURVE",
"247 280 OFFCURVE",
"244 285 CURVE SMOOTH",
"241 289 OFFCURVE",
"240 294 OFFCURVE",
"240 300 CURVE SMOOTH",
"240 316 OFFCURVE",
"252 328 OFFCURVE",
"268 328 CURVE SMOOTH",
"284 328 OFFCURVE",
"296 316 OFFCURVE",
"296 300 CURVE SMOOTH",
"296 294 OFFCURVE",
"295 289 OFFCURVE",
"292 285 CURVE SMOOTH",
"288 279 OFFCURVE",
"287 272 OFFCURVE",
"292 266 CURVE SMOOTH",
"490 0 LINE",
"596 0 LINE",
"352 329 LINE SMOOTH",
"340 345 OFFCURVE",
"334 338 OFFCURVE",
"324 338 CURVE SMOOTH",
"308 338 OFFCURVE",
"296 350 OFFCURVE",
"296 366 CURVE SMOOTH",
"296 382 OFFCURVE",
"308 394 OFFCURVE",
"324 394 CURVE SMOOTH",
"332 394 OFFCURVE",
"342 386 OFFCURVE",
"352 398 CURVE SMOOTH",
"568 650 LINE",
"456 650 LINE",
"176 312 LINE SMOOTH",
"172 307 OFFCURVE",
"171 300 OFFCURVE",
"174 293 CURVE SMOOTH",
"175 290 OFFCURVE",
"176 286 OFFCURVE",
"176 282 CURVE SMOOTH",
"176 266 OFFCURVE",
"164 254 OFFCURVE",
"148 254 CURVE SMOOTH",
"132 254 OFFCURVE",
"120 266 OFFCURVE",
"120 282 CURVE SMOOTH",
"120 294 OFFCURVE",
"127 304 OFFCURVE",
"137 308 CURVE SMOOTH",
"144 310 OFFCURVE",
"148 315 OFFCURVE",
"148 321 CURVE SMOOTH",
"148 650 LINE",
"64 650 LINE",
"64 0 LINE"
);
}
);
width = 604;
}
);
leftKerningGroup = l;
leftMetricsKey = l;
rightKerningGroup = X;
rightMetricsKey = X;
unicode = 004B;
},
{
color = 10;
glyphname = L;
lastChange = "2022-07-16 20:11:18 +0000";
layers = (
{
anchors = (
{
name = bottom;
position = "{280, 0}";
},
{
name = top;
position = "{116, 650}";
},
{
name = topright;
position = "{276, 470}";
}
);
layerId = "8007C042-6FBA-4E49-99B8-8B738A4EBE86";
paths = (
{
closed = 1;
nodes = (
"148 0 LINE",
"148 650 LINE",
"64 650 LINE",
"64 0 LINE"
);
},
{
closed = 1;
nodes = (
"500 0 LINE",
"500 82 LINE",
"128 82 LINE",
"128 0 LINE"
);
}
);
width = 508;
},
{
anchors = (
{
name = bottom;
position = "{280, 0}";
},
{
name = top;
position = "{132, 650}";
},
{
name = topright;
position = "{318, 470}";
}
);
layerId = "ADDE491E-C0C4-4659-943C-53377B387F47";
paths = (
{
closed = 1;
nodes = (
"198 0 LINE",
"198 650 LINE",
"50 650 LINE",
"50 0 LINE"
);
},
{
closed = 1;
nodes = (
"498 0 LINE",
"498 142 LINE",
"178 142 LINE",
"178 0 LINE"
);
}
);
width = 504;
},
{
anchors = (
{
name = bottom;
position = "{288, 0}";
},
{
name = top;
position = "{156, 650}";
},
{
name = topright;
position = "{366, 470}";
}
);
layerId = "0CF550E6-48ED-4BA5-8C66-195B58FED074";
paths = (
{
closed = 1;
nodes = (
"254 0 LINE",
"254 650 LINE",
"42 650 LINE",
"42 0 LINE"
);
},
{
closed = 1;
nodes = (
"516 0 LINE",
"516 194 LINE",
"234 194 LINE",
"234 0 LINE"
);
}
);
width = 520;
},
{
anchors = (
{
name = bottom;
position = "{280, 0}";
},
{
name = top;
position = "{116, 650}";
},
{
name = topright;
position = "{276, 470}";
}
);
components = (
{
name = inkstem_M;
transform = "{1, 0, 0, 1, 6, -16}";
},
{
name = inkstem_L;
transform = "{1, 0, 0, 1, 6, 226}";
},
{
name = inkstem_M;
transform = "{0, -1, 1, 0, 40, 142}";
},
{
name = inkstem_S;
transform = "{1, 0, 0, 1, 344, -208}";
}
);
layerId = m004;
paths = (
{
closed = 1;
nodes = (
"500 0 LINE",
"500 82 LINE",
"200 82 LINE SMOOTH",
"188 82 OFFCURVE",
"178 76 OFFCURVE",
"172 67 CURVE SMOOTH",
"167 59 OFFCURVE",
"158 54 OFFCURVE",
"148 54 CURVE SMOOTH",
"132 54 OFFCURVE",
"120 66 OFFCURVE",
"120 82 CURVE SMOOTH",
"120 92 OFFCURVE",
"125 101 OFFCURVE",
"133 106 CURVE SMOOTH",
"142 112 OFFCURVE",
"148 122 OFFCURVE",
"148 134 CURVE SMOOTH",
"148 650 LINE",
"64 650 LINE",
"64 0 LINE"
);
}
);
width = 508;
}
);
leftKerningGroup = l;
leftMetricsKey = l;
rightKerningGroup = L;
unicode = 004C;
},
{
glyphname = Lslash;
lastChange = "2022-07-17 16:06:59 +0000";
layers = (
{
components = (
{
name = L;
}
);
layerId = "8007C042-6FBA-4E49-99B8-8B738A4EBE86";
paths = (
{
closed = 1;
nodes = (
"352 372 LINE",
"352 448 LINE",
"8 356 LINE",
"8 280 LINE"
);
}
);
width = 500;
},
{
components = (
{
name = L;
transform = "{1, 0, 0, 1, 4, 0}";
}
);
layerId = "ADDE491E-C0C4-4659-943C-53377B387F47";
paths = (
{
closed = 1;
nodes = (
"368 360 LINE",
"368 468 LINE",
"4 372 LINE",
"4 264 LINE"
);
}
);
width = 510;
},
{
components = (
{
name = L;
transform = "{1, 0, 0, 1, 4, 0}";
}
);
layerId = "0CF550E6-48ED-4BA5-8C66-195B58FED074";
paths = (
{
closed = 1;
nodes = (
"396 368 LINE",
"396 492 LINE",
"0 388 LINE",
"0 264 LINE"
);
}
);
width = 524;
},
{
components = (
{
name = inkstem_M;
transform = "{0, -1, 1, 0, 40, 142}";
},
{
name = inkstem_S;
transform = "{1, 0, 0, 1, 344, -208}";
},
{
name = inkstem_M;
transform = "{1, 0, 0, 1, 6, 290}";
},
{
name = inkstem_S;
transform = "{1, 0, 0, 1, 196, 145}";
}
);
layerId = m004;
paths = (
{
closed = 1;
nodes = (
"500 0 LINE",
"500 82 LINE",
"200 82 LINE SMOOTH",
"188 82 OFFCURVE",
"178 76 OFFCURVE",
"172 67 CURVE SMOOTH",
"167 59 OFFCURVE",
"158 54 OFFCURVE",
"148 54 CURVE SMOOTH",
"132 54 OFFCURVE",
"120 66 OFFCURVE",
"120 82 CURVE SMOOTH",
"120 92 OFFCURVE",
"125 101 OFFCURVE",
"133 106 CURVE SMOOTH",
"142 112 OFFCURVE",
"148 122 OFFCURVE",
"148 134 CURVE SMOOTH",
"148 278 LINE SMOOTH",
"148 287 OFFCURVE",
"144 290 OFFCURVE",
"136 292 CURVE SMOOTH",
"124 295 OFFCURVE",
"116 306 OFFCURVE",
"116 319 CURVE SMOOTH",
"116 335 OFFCURVE",
"128 347 OFFCURVE",
"144 347 CURVE SMOOTH",
"154 347 OFFCURVE",
"163 342 OFFCURVE",
"168 334 CURVE SMOOTH",
"172 328 OFFCURVE",
"182 326 OFFCURVE",
"189 328 CURVE SMOOTH",
"352 372 LINE",
"352 448 LINE",
"148 393 LINE",
"148 650 LINE",
"64 650 LINE",
"64 412 LINE SMOOTH",
"64 405 OFFCURVE",
"69 398 OFFCURVE",
"77 396 CURVE SMOOTH",
"89 393 OFFCURVE",
"97 382 OFFCURVE",
"97 369 CURVE SMOOTH",
"97 353 OFFCURVE",
"85 341 OFFCURVE",
"69 341 CURVE SMOOTH",
"59 341 OFFCURVE",
"51 346 OFFCURVE",
"46 353 CURVE SMOOTH",
"41 361 OFFCURVE",
"33 363 OFFCURVE",
"26 361 CURVE SMOOTH",
"8 356 LINE",
"8 280 LINE",
"64 295 LINE",
"64 0 LINE"
);
}
);
width = 500;
}
);
leftKerningGroup = lslash;
leftMetricsKey = Eth;
rightKerningGroup = L;
unicode = 0141;
},
{
glyphname = M;
lastChange = "2022-07-16 20:36:57 +0000";
layers = (
{
layerId = "8007C042-6FBA-4E49-99B8-8B738A4EBE86";
paths = (
{
closed = 1;
nodes = (
"148 0 LINE",
"148 528 LINE",
"354 2 LINE",
"436 2 LINE",
"636 528 LINE",
"636 0 LINE",
"720 0 LINE",
"720 650 LINE",
"598 650 LINE",
"396 116 LINE",
"190 650 LINE",
"64 650 LINE",
"64 0 LINE"
);
}
);
width = 784;
},
{
layerId = "ADDE491E-C0C4-4659-943C-53377B387F47";
paths = (
{
closed = 1;
nodes = (
"198 0 LINE",
"198 504 LINE",
"343 0 LINE",
"449 0 LINE",
"590 504 LINE",
"590 0 LINE",
"738 0 LINE",
"738 650 LINE",
"542 650 LINE",
"398 136 LINE",
"252 650 LINE",
"50 650 LINE",
"50 0 LINE"
);
}
);
width = 788;
},
{
layerId = "0CF550E6-48ED-4BA5-8C66-195B58FED074";
paths = (
{
closed = 1;
nodes = (
"246 0 LINE",
"246 488 LINE",
"346 0 LINE",
"460 0 LINE",
"558 488 LINE",
"558 0 LINE",
"762 0 LINE",
"762 650 LINE",
"498 650 LINE",
"406 148 LINE",
"312 650 LINE",
"42 650 LINE",
"42 0 LINE"
);
}
);
width = 804;
},
{
associatedMasterId = "0CF550E6-48ED-4BA5-8C66-195B58FED074";
layerId = "7D3194E7-07DE-4ED1-B62A-2847223E7A41";
name = "22 feb 22, 17:37";
paths = (
{
closed = 1;
nodes = (
"246 0 LINE",
"246 480 LINE",
"342 0 LINE",
"464 0 LINE",
"558 480 LINE",
"558 0 LINE",
"762 0 LINE",
"762 650 LINE",
"478 650 LINE",
"406 164 LINE",
"332 650 LINE",
"42 650 LINE",
"42 0 LINE"
);
}
);
width = 804;
},
{
components = (
{
name = inkstem_L;
transform = "{1, 0, 0, 1, 6, 47}";
},
{
name = inkstem_L;
transform = "{1, 0, 0, 1, 578, 47}";
},
{
name = inkstem_M;
transform = "{0.93358, 0.35837, -0.35837, 0.93358, 304, -37}";
},
{
name = inkstem_M;
transform = "{-0.93358, 0.35837, 0.35837, 0.93358, 486, -37}";
},
{
name = inkstem_S;
transform = "{1, 0, 0, 1, 451, 165}";
},
{
name = inkstem_S;
transform = "{1, 0, 0, 1, 137, 165}";
},
{
name = inkstem_M;
transform = "{1, 0, 0, 1, 578, -196}";
},
{
name = inkstem_M;
transform = "{1, 0, 0, 1, 6, -196}";
}
);
layerId = m004;
paths = (
{
closed = 1;
nodes = (
"621 488 OFFCURVE",
"620 496 OFFCURVE",
"616 500 CURVE SMOOTH",
"611 505 OFFCURVE",
"608 512 OFFCURVE",
"608 520 CURVE SMOOTH",
"608 536 OFFCURVE",
"620 548 OFFCURVE",
"636 548 CURVE SMOOTH",
"652 548 OFFCURVE",
"664 536 OFFCURVE",
"664 520 CURVE SMOOTH",
"664 509 OFFCURVE",
"658 500 OFFCURVE",
"649 495 CURVE SMOOTH",
"641 492 OFFCURVE",
"636 485 OFFCURVE",
"636 477 CURVE SMOOTH",
"636 0 LINE",
"720 0 LINE",
"720 650 LINE",
"598 650 LINE",
"411 155 LINE SMOOTH",
"408 148 OFFCURVE",
"410 141 OFFCURVE",
"416 136 CURVE SMOOTH",
"421 131 OFFCURVE",
"424 124 OFFCURVE",
"424 116 CURVE SMOOTH",
"424 100 OFFCURVE",
"412 88 OFFCURVE",
"396 88 CURVE SMOOTH",
"380 88 OFFCURVE",
"368 100 OFFCURVE",
"368 116 CURVE SMOOTH",
"368 124 OFFCURVE",
"371 131 OFFCURVE",
"376 136 CURVE SMOOTH",
"382 141 OFFCURVE",
"384 148 OFFCURVE",
"381 155 CURVE SMOOTH",
"190 650 LINE",
"64 650 LINE",
"64 0 LINE",
"148 0 LINE",
"148 477 LINE SMOOTH",
"148 485 OFFCURVE",
"143 492 OFFCURVE",
"135 495 CURVE SMOOTH",
"126 500 OFFCURVE",
"120 509 OFFCURVE",
"120 520 CURVE SMOOTH",
"120 536 OFFCURVE",
"132 548 OFFCURVE",
"148 548 CURVE SMOOTH",
"164 548 OFFCURVE",
"176 536 OFFCURVE",
"176 520 CURVE SMOOTH",
"176 512 OFFCURVE",
"173 505 OFFCURVE",
"168 500 CURVE SMOOTH",
"164 496 OFFCURVE",
"164 489 OFFCURVE",
"166 483 CURVE SMOOTH",
"354 2 LINE",
"436 2 LINE",
"618 480 LINE SMOOTH"
);
}
);
width = 784;
}
);
leftKerningGroup = l;
leftMetricsKey = l;
rightKerningGroup = l;
rightMetricsKey = l;
unicode = 004D;
},
{
glyphname = N;
lastChange = "2022-07-16 20:39:26 +0000";
layers = (
{
anchors = (
{
name = bottom;
position = "{324, 0}";
},
{
name = top;
position = "{332, 650}";
}
);
layerId = "8007C042-6FBA-4E49-99B8-8B738A4EBE86";
paths = (
{
closed = 1;
nodes = (
"148 0 LINE",
"148 524 LINE",
"500 0 LINE",
"596 0 LINE",
"596 650 LINE",
"512 650 LINE",
"512 122 LINE",
"168 650 LINE",
"64 650 LINE",
"64 0 LINE"
);
}
);
width = 660;
},
{
anchors = (
{
name = bottom;
position = "{314, 0}";
},
{
name = top;
position = "{322, 650}";
}
);
layerId = "ADDE491E-C0C4-4659-943C-53377B387F47";
paths = (
{
closed = 1;
nodes = (
"198 0 LINE",
"198 436 LINE",
"434 0 LINE",
"598 0 LINE",
"598 650 LINE",
"450 650 LINE",
"450 210 LINE",
"218 650 LINE",
"50 650 LINE",
"50 0 LINE"
);
}
);
width = 648;
},
{
anchors = (
{
name = bottom;
position = "{334, 0}";
},
{
name = top;
position = "{338, 650}";
}
);
layerId = "0CF550E6-48ED-4BA5-8C66-195B58FED074";
paths = (
{
closed = 1;
nodes = (
"246 0 LINE",
"246 392 LINE",
"414 0 LINE",
"638 0 LINE",
"638 650 LINE",
"434 650 LINE",
"434 244 LINE",
"266 650 LINE",
"42 650 LINE",
"42 0 LINE"
);
}
);
width = 680;
},
{
anchors = (
{
name = bottom;
position = "{324, 0}";
},
{
name = top;
position = "{332, 650}";
}
);
components = (
{
name = inkstem_M;
transform = "{1, 0, 0, 1, 6, -196}";
},
{
name = inkstem_M;
transform = "{1, 0, 0, 1, 454, 290}";
},
{
name = inkstem_L;
transform = "{1, 0, 0, 1, 454, 47}";
},
{
name = inkstem_L;
transform = "{1, 0, 0, 1, 6, 47}";
},
{
name = inkstem_M;
transform = "{0.83389, 0.55194, -0.55194, 0.83389, 449, -34}";
},
{
name = inkstem_S;
transform = "{1, 0, 0, 1, 171, 165}";
}
);
layerId = m004;
paths = (
{
closed = 1;
nodes = (
"148 0 LINE",
"148 476 LINE SMOOTH",
"148 484 OFFCURVE",
"145 491 OFFCURVE",
"137 494 CURVE SMOOTH",
"127 498 OFFCURVE",
"120 509 OFFCURVE",
"120 520 CURVE SMOOTH",
"120 536 OFFCURVE",
"132 548 OFFCURVE",
"148 548 CURVE SMOOTH",
"164 548 OFFCURVE",
"176 536 OFFCURVE",
"176 520 CURVE SMOOTH",
"176 514 OFFCURVE",
"175 509 OFFCURVE",
"172 505 CURVE SMOOTH",
"168 499 OFFCURVE",
"168 493 OFFCURVE",
"172 488 CURVE SMOOTH",
"500 0 LINE",
"596 0 LINE",
"596 650 LINE",
"512 650 LINE",
"512 170 LINE SMOOTH",
"512 162 OFFCURVE",
"515 155 OFFCURVE",
"523 152 CURVE SMOOTH",
"533 148 OFFCURVE",
"540 137 OFFCURVE",
"540 126 CURVE SMOOTH",
"540 110 OFFCURVE",
"528 98 OFFCURVE",
"512 98 CURVE SMOOTH",
"496 98 OFFCURVE",
"484 110 OFFCURVE",
"484 126 CURVE SMOOTH",
"484 132 OFFCURVE",
"485 137 OFFCURVE",
"488 141 CURVE SMOOTH",
"492 147 OFFCURVE",
"492 153 OFFCURVE",
"488 160 CURVE SMOOTH",
"168 650 LINE",
"64 650 LINE",
"64 0 LINE"
);
}
);
width = 660;
}
);
leftKerningGroup = l;
leftMetricsKey = l;
rightKerningGroup = l;
rightMetricsKey = l;
unicode = 004E;
},
{
color = 10;
glyphname = O;
lastChange = "2022-07-22 20:15:48 +0000";
layers = (
{
anchors = (
{
name = top;
position = "{352, 650}";
}
);
layerId = "8007C042-6FBA-4E49-99B8-8B738A4EBE86";
paths = (
{
closed = 1;
nodes = (
"535 -12 OFFCURVE",
"668 130 OFFCURVE",
"668 325 CURVE SMOOTH",
"668 520 OFFCURVE",
"535 662 OFFCURVE",
"352 662 CURVE SMOOTH",
"169 662 OFFCURVE",
"36 520 OFFCURVE",
"36 325 CURVE SMOOTH",
"36 130 OFFCURVE",
"169 -12 OFFCURVE",
"352 -12 CURVE SMOOTH"
);
},
{
closed = 1;
nodes = (
"220 72 OFFCURVE",
"124 178 OFFCURVE",
"124 325 CURVE SMOOTH",
"124 473 OFFCURVE",
"220 580 OFFCURVE",
"352 580 CURVE SMOOTH",
"484 580 OFFCURVE",
"580 473 OFFCURVE",
"580 325 CURVE SMOOTH",
"580 178 OFFCURVE",
"484 72 OFFCURVE",
"352 72 CURVE SMOOTH"
);
}
);
width = 704;
},
{
anchors = (
{
name = top;
position = "{352, 650}";
}
);
layerId = "ADDE491E-C0C4-4659-943C-53377B387F47";
paths = (
{
closed = 1;
nodes = (
"542 -12 OFFCURVE",
"676 128 OFFCURVE",
"676 325 CURVE SMOOTH",
"676 522 OFFCURVE",
"542 662 OFFCURVE",
"352 662 CURVE SMOOTH",
"162 662 OFFCURVE",
"28 522 OFFCURVE",
"28 325 CURVE SMOOTH",
"28 128 OFFCURVE",
"162 -12 OFFCURVE",
"352 -12 CURVE SMOOTH"
);
},
{
closed = 1;
nodes = (
"254 132 OFFCURVE",
"184 213 OFFCURVE",
"184 327 CURVE SMOOTH",
"184 441 OFFCURVE",
"254 522 OFFCURVE",
"352 522 CURVE SMOOTH",
"450 522 OFFCURVE",
"520 441 OFFCURVE",
"520 327 CURVE SMOOTH",
"520 213 OFFCURVE",
"450 132 OFFCURVE",
"352 132 CURVE SMOOTH"
);
}
);
width = 704;
},
{
anchors = (
{
name = top;
position = "{346, 650}";
}
);
layerId = "0CF550E6-48ED-4BA5-8C66-195B58FED074";
paths = (
{
closed = 1;
nodes = (
"538 -12 OFFCURVE",
"672 127 OFFCURVE",
"672 325 CURVE SMOOTH",
"672 523 OFFCURVE",
"538 662 OFFCURVE",
"346 662 CURVE SMOOTH",
"154 662 OFFCURVE",
"20 523 OFFCURVE",
"20 325 CURVE SMOOTH",
"20 127 OFFCURVE",
"154 -12 OFFCURVE",
"346 -12 CURVE SMOOTH"
);
},
{
closed = 1;
nodes = (
"282 182 OFFCURVE",
"242 238 OFFCURVE",
"242 326 CURVE SMOOTH",
"242 414 OFFCURVE",
"282 470 OFFCURVE",
"346 470 CURVE SMOOTH",
"410 470 OFFCURVE",
"450 414 OFFCURVE",
"450 326 CURVE SMOOTH",
"450 238 OFFCURVE",
"410 182 OFFCURVE",
"346 182 CURVE SMOOTH"
);
}
);
width = 692;
},
{
anchors = (
{
name = top;
position = "{352, 650}";
}
);
components = (
{
name = inkstem_S;
transform = "{1, 0, 0, 1, 50, -128}";
},
{
name = inkcurve_L;
transform = "{0, 1, -1, 0, 630, -70}";
},
{
name = inkcurve_L;
transform = "{1, 0, 0, 1, -21, 47}";
},
{
name = inkstem_S;
transform = "{1, 0, 0, 1, 452, -128}";
},
{
name = inkstem_S;
transform = "{1, 0, 0, -1, 52, 780}";
},
{
name = inkcurve_L;
transform = "{-1, 0, 0, 1, 725, 47}";
},
{
name = inkcurve_L;
transform = "{0, -1, -1, 0, 630, 722}";
},
{
name = inkstem_S;
transform = "{1, 0, 0, -1, 450, 780}";
}
);
layerId = m004;
paths = (
{
closed = 1;
nodes = (
"535 -12 OFFCURVE",
"668 130 OFFCURVE",
"668 325 CURVE SMOOTH",
"668 520 OFFCURVE",
"535 662 OFFCURVE",
"352 662 CURVE SMOOTH",
"169 662 OFFCURVE",
"36 520 OFFCURVE",
"36 325 CURVE SMOOTH",
"36 130 OFFCURVE",
"169 -12 OFFCURVE",
"352 -12 CURVE SMOOTH"
);
},
{
closed = 1;
nodes = (
"220 72 OFFCURVE",
"124 178 OFFCURVE",
"124 325 CURVE SMOOTH",
"124 473 OFFCURVE",
"220 580 OFFCURVE",
"352 580 CURVE SMOOTH",
"484 580 OFFCURVE",
"580 473 OFFCURVE",
"580 325 CURVE SMOOTH",
"580 178 OFFCURVE",
"484 72 OFFCURVE",
"352 72 CURVE SMOOTH"
);
}
);
width = 704;
}
);
leftKerningGroup = O;
rightKerningGroup = O;
rightMetricsKey = "=|O";
unicode = 004F;
},
{
glyphname = Oslash;
lastChange = "2022-07-26 21:36:47 +0000";
layers = (
{
components = (
{
name = O;
}
);
layerId = "8007C042-6FBA-4E49-99B8-8B738A4EBE86";
paths = (
{
closed = 1;
nodes = (
"660 629 LINE",
"600 679 LINE",
"60 35 LINE",
"120 -15 LINE"
);
}
);
width = 704;
},
{
components = (
{
name = O;
}
);
layerId = "ADDE491E-C0C4-4659-943C-53377B387F47";
paths = (
{
closed = 1;
nodes = (
"652 616 LINE",
"570 684 LINE",
"52 36 LINE",
"136 -32 LINE"
);
}
);
width = 704;
},
{
components = (
{
name = O;
}
);
layerId = "0CF550E6-48ED-4BA5-8C66-195B58FED074";
paths = (
{
closed = 1;
nodes = (
"660 612 LINE",
"564 690 LINE",
"44 42 LINE",
"140 -38 LINE"
);
}
);
width = 692;
},
{
components = (
{
name = inkcurve_L;
transform = "{0, 1, -1, 0, 630, -70}";
},
{
name = inkcurve_L;
transform = "{1, 0, 0, 1, -21, 47}";
},
{
name = inkstem_S;
transform = "{1, 0, 0, 1, 452, -128}";
},
{
name = inkstem_S;
transform = "{1, 0, 0, -1, 52, 780}";
},
{
name = inkcurve_L;
transform = "{-1, 0, 0, 1, 725, 47}";
},
{
name = inkcurve_L;
transform = "{0, -1, -1, 0, 630, 722}";
},
{
name = inkstem_M;
transform = "{0.76807, -0.64037, 0.64037, 0.76807, 36, 100}";
},
{
name = inkstem_S;
transform = "{1, 0, 0, 1, 329, 165}";
}
);
layerId = m004;
paths = (
{
closed = 1;
nodes = (
"140 9 LINE SMOOTH",
"151 22 OFFCURVE",
"142 28 OFFCURVE",
"142 44 CURVE SMOOTH",
"142 60 OFFCURVE",
"154 72 OFFCURVE",
"170 72 CURVE SMOOTH",
"186 72 OFFCURVE",
"198 60 OFFCURVE",
"198 44 CURVE SMOOTH",
"198 31 OFFCURVE",
"204 23 OFFCURVE",
"212 19 CURVE SMOOTH",
"253 -1 OFFCURVE",
"301 -12 OFFCURVE",
"352 -12 CURVE SMOOTH",
"535 -12 OFFCURVE",
"668 130 OFFCURVE",
"668 325 CURVE SMOOTH",
"668 414 OFFCURVE",
"641 491 OFFCURVE",
"593 550 CURVE",
"660 629 LINE",
"600 679 LINE",
"566 639 LINE SMOOTH",
"555 626 OFFCURVE",
"564 620 OFFCURVE",
"564 604 CURVE SMOOTH",
"564 588 OFFCURVE",
"552 576 OFFCURVE",
"536 576 CURVE SMOOTH",
"520 576 OFFCURVE",
"508 588 OFFCURVE",
"508 604 CURVE SMOOTH",
"508 617 OFFCURVE",
"502 626 OFFCURVE",
"494 630 CURVE SMOOTH",
"452 651 OFFCURVE",
"404 662 OFFCURVE",
"352 662 CURVE SMOOTH",
"169 662 OFFCURVE",
"36 520 OFFCURVE",
"36 325 CURVE SMOOTH",
"36 235 OFFCURVE",
"64 156 OFFCURVE",
"113 98 CURVE",
"60 35 LINE",
"120 -15 LINE"
);
},
{
closed = 1;
nodes = (
"154 138 OFFCURVE",
"142 150 OFFCURVE",
"142 166 CURVE SMOOTH",
"142 171 OFFCURVE",
"143 175 OFFCURVE",
"145 179 CURVE SMOOTH",
"149 187 OFFCURVE",
"156 189 OFFCURVE",
"150 202 CURVE SMOOTH",
"133 238 OFFCURVE",
"124 279 OFFCURVE",
"124 325 CURVE SMOOTH",
"124 473 OFFCURVE",
"220 580 OFFCURVE",
"352 580 CURVE SMOOTH",
"401 580 OFFCURVE",
"446 565 OFFCURVE",
"482 538 CURVE",
"199 201 LINE SMOOTH",
"187 187 OFFCURVE",
"198 176 OFFCURVE",
"198 166 CURVE SMOOTH",
"198 150 OFFCURVE",
"186 138 OFFCURVE",
"170 138 CURVE SMOOTH"
);
},
{
closed = 1;
nodes = (
"304 72 OFFCURVE",
"261 86 OFFCURVE",
"225 111 CURVE",
"507 447 LINE SMOOTH",
"519 461 OFFCURVE",
"508 472 OFFCURVE",
"508 482 CURVE SMOOTH",
"508 498 OFFCURVE",
"520 510 OFFCURVE",
"536 510 CURVE SMOOTH",
"552 510 OFFCURVE",
"564 498 OFFCURVE",
"564 482 CURVE SMOOTH",
"564 477 OFFCURVE",
"563 473 OFFCURVE",
"561 469 CURVE SMOOTH",
"557 461 OFFCURVE",
"550 459 OFFCURVE",
"556 446 CURVE SMOOTH",
"572 410 OFFCURVE",
"580 369 OFFCURVE",
"580 325 CURVE SMOOTH",
"580 178 OFFCURVE",
"484 72 OFFCURVE",
"352 72 CURVE SMOOTH"
);
}
);
width = 704;
}
);
leftKerningGroup = O;
leftMetricsKey = O;
rightKerningGroup = O;
rightMetricsKey = O;
unicode = 00D8;
},
{
glyphname = OE;
lastChange = "2022-07-27 19:25:44 +0000";
layers = (
{
layerId = "8007C042-6FBA-4E49-99B8-8B738A4EBE86";
paths = (
{
closed = 1;
nodes = (
"447 -12 OFFCURVE",
"534 28 OFFCURVE",
"582 100 CURVE",
"582 548 LINE",
"534 620 OFFCURVE",
"447 662 OFFCURVE",
"347 662 CURVE SMOOTH",
"167 662 OFFCURVE",
"36 520 OFFCURVE",
"36 325 CURVE SMOOTH",
"36 130 OFFCURVE",
"167 -12 OFFCURVE",
"347 -12 CURVE SMOOTH"
);
},
{
closed = 1;
nodes = (
"220 72 OFFCURVE",
"124 178 OFFCURVE",
"124 325 CURVE SMOOTH",
"124 473 OFFCURVE",
"220 580 OFFCURVE",
"353 580 CURVE SMOOTH",
"486 580 OFFCURVE",
"582 475 OFFCURVE",
"582 325 CURVE SMOOTH",
"582 176 OFFCURVE",
"486 72 OFFCURVE",
"353 72 CURVE SMOOTH"
);
},
{
closed = 1;
nodes = (
"1026 0 LINE",
"1026 82 LINE",
"646 82 LINE",
"646 0 LINE"
);
},
{
closed = 1;
nodes = (
"666 0 LINE",
"666 650 LINE",
"582 650 LINE",
"582 0 LINE"
);
},
{
closed = 1;
nodes = (
"974 294 LINE",
"974 372 LINE",
"646 372 LINE",
"646 294 LINE"
);
},
{
closed = 1;
nodes = (
"1014 570 LINE",
"1014 650 LINE",
"646 650 LINE",
"646 570 LINE"
);
}
);
width = 1058;
},
{
layerId = "ADDE491E-C0C4-4659-943C-53377B387F47";
paths = (
{
closed = 1;
nodes = (
"404 -12 OFFCURVE",
"480 16 OFFCURVE",
"512 54 CURVE",
"512 596 LINE",
"480 634 OFFCURVE",
"404 662 OFFCURVE",
"332 662 CURVE SMOOTH",
"156 662 OFFCURVE",
"28 517 OFFCURVE",
"28 325 CURVE SMOOTH",
"28 133 OFFCURVE",
"156 -12 OFFCURVE",
"332 -12 CURVE SMOOTH"
);
},
{
closed = 1;
nodes = (
"251 132 OFFCURVE",
"184 215 OFFCURVE",
"184 327 CURVE SMOOTH",
"184 441 OFFCURVE",
"251 522 OFFCURVE",
"348 522 CURVE SMOOTH",
"445 522 OFFCURVE",
"512 441 OFFCURVE",
"512 327 CURVE SMOOTH",
"512 215 OFFCURVE",
"445 132 OFFCURVE",
"348 132 CURVE SMOOTH"
);
},
{
closed = 1;
nodes = (
"976 0 LINE",
"976 136 LINE",
"640 136 LINE",
"640 0 LINE"
);
},
{
closed = 1;
nodes = (
"660 0 LINE",
"660 650 LINE",
"512 650 LINE",
"512 0 LINE"
);
},
{
closed = 1;
nodes = (
"916 281 LINE",
"916 383 LINE",
"640 383 LINE",
"640 281 LINE"
);
},
{
closed = 1;
nodes = (
"968 518 LINE",
"968 650 LINE",
"640 650 LINE",
"640 518 LINE"
);
}
);
width = 1004;
},
{
layerId = "0CF550E6-48ED-4BA5-8C66-195B58FED074";
paths = (
{
closed = 1;
nodes = (
"370 -12 OFFCURVE",
"410 -2 OFFCURVE",
"442 16 CURVE",
"442 634 LINE",
"410 652 OFFCURVE",
"370 662 OFFCURVE",
"322 662 CURVE SMOOTH",
"145 662 OFFCURVE",
"20 522 OFFCURVE",
"20 325 CURVE SMOOTH",
"20 128 OFFCURVE",
"145 -12 OFFCURVE",
"322 -12 CURVE SMOOTH"
);
},
{
closed = 1;
nodes = (
"281 182 OFFCURVE",
"242 238 OFFCURVE",
"242 326 CURVE SMOOTH",
"242 414 OFFCURVE",
"281 470 OFFCURVE",
"342 470 CURVE SMOOTH",
"403 470 OFFCURVE",
"442 414 OFFCURVE",
"442 326 CURVE SMOOTH",
"442 238 OFFCURVE",
"403 182 OFFCURVE",
"342 182 CURVE SMOOTH"
);
},
{
closed = 1;
nodes = (
"650 0 LINE",
"650 650 LINE",
"442 650 LINE",
"442 0 LINE"
);
},
{
closed = 1;
nodes = (
"916 0 LINE",
"916 168 LINE",
"630 168 LINE",
"630 0 LINE"
);
},
{
closed = 1;
nodes = (
"840 277 LINE",
"840 387 LINE",
"630 387 LINE",
"630 277 LINE"
);
},
{
closed = 1;
nodes = (
"904 484 LINE",
"904 650 LINE",
"630 650 LINE",
"630 484 LINE"
);
}
);
width = 940;
},
{
components = (
{
name = inkstem_L;
transform = "{0, -1, 1, 0, 550, 142}";
},
{
name = inkstem_M;
transform = "{0, -1, 1, 0, 614, 432}";
},
{
name = inkstem_M;
transform = "{0, -1, 1, 0, 522, 710}";
},
{
name = inkstem_S;
transform = "{1, 0, 0, 1, 858, 360}";
},
{
name = inkstem_S;
transform = "{1, 0, 0, 1, 50, -128}";
},
{
name = inkcurve_L;
transform = "{0, 1, -1, 0, 630, -70}";
},
{
name = inkcurve_L;
transform = "{1, 0, 0, 1, -21, 47}";
},
{
name = inkstem_S;
transform = "{1, 0, 0, -1, 52, 780}";
},
{
name = inkcurve_L;
transform = "{0, -1, -1, 0, 630, 722}";
}
);
layerId = m004;
paths = (
{
closed = 1;
nodes = (
"974 294 LINE",
"974 372 LINE",
"718 372 LINE SMOOTH",
"706 372 OFFCURVE",
"696 366 OFFCURVE",
"690 357 CURVE SMOOTH",
"685 349 OFFCURVE",
"676 344 OFFCURVE",
"666 344 CURVE SMOOTH",
"650 344 OFFCURVE",
"638 356 OFFCURVE",
"638 372 CURVE SMOOTH",
"638 382 OFFCURVE",
"643 391 OFFCURVE",
"651 396 CURVE SMOOTH",
"660 402 OFFCURVE",
"666 412 OFFCURVE",
"666 424 CURVE SMOOTH",
"666 518 LINE SMOOTH",
"666 530 OFFCURVE",
"660 540 OFFCURVE",
"651 546 CURVE SMOOTH",
"643 551 OFFCURVE",
"638 560 OFFCURVE",
"638 570 CURVE SMOOTH",
"638 586 OFFCURVE",
"650 598 OFFCURVE",
"666 598 CURVE SMOOTH",
"676 598 OFFCURVE",
"685 593 OFFCURVE",
"690 585 CURVE SMOOTH",
"696 576 OFFCURVE",
"706 570 OFFCURVE",
"718 570 CURVE SMOOTH",
"1014 570 LINE",
"1014 650 LINE",
"582 650 LINE",
"582 600 LINE SMOOTH",
"582 588 OFFCURVE",
"588 578 OFFCURVE",
"597 572 CURVE SMOOTH",
"605 567 OFFCURVE",
"610 558 OFFCURVE",
"610 548 CURVE SMOOTH",
"610 532 OFFCURVE",
"598 520 OFFCURVE",
"582 520 CURVE SMOOTH",
"566 520 OFFCURVE",
"554 532 OFFCURVE",
"554 548 CURVE SMOOTH",
"554 552 OFFCURVE",
"555 556 OFFCURVE",
"556 559 CURVE SMOOTH",
"560 568 OFFCURVE",
"559 577 OFFCURVE",
"552 584 CURVE SMOOTH",
"502 634 OFFCURVE",
"429 662 OFFCURVE",
"347 662 CURVE SMOOTH",
"167 662 OFFCURVE",
"36 520 OFFCURVE",
"36 325 CURVE SMOOTH",
"36 130 OFFCURVE",
"167 -12 OFFCURVE",
"347 -12 CURVE SMOOTH",
"429 -12 OFFCURVE",
"502 15 OFFCURVE",
"552 64 CURVE SMOOTH",
"559 71 OFFCURVE",
"560 80 OFFCURVE",
"556 89 CURVE SMOOTH",
"555 92 OFFCURVE",
"554 96 OFFCURVE",
"554 100 CURVE SMOOTH",
"554 116 OFFCURVE",
"566 128 OFFCURVE",
"582 128 CURVE SMOOTH",
"598 128 OFFCURVE",
"610 116 OFFCURVE",
"610 100 CURVE SMOOTH",
"610 90 OFFCURVE",
"605 81 OFFCURVE",
"597 76 CURVE SMOOTH",
"588 70 OFFCURVE",
"582 60 OFFCURVE",
"582 48 CURVE SMOOTH",
"582 0 LINE",
"1026 0 LINE",
"1026 82 LINE",
"718 82 LINE SMOOTH",
"706 82 OFFCURVE",
"696 76 OFFCURVE",
"690 67 CURVE SMOOTH",
"685 59 OFFCURVE",
"676 54 OFFCURVE",
"666 54 CURVE SMOOTH",
"650 54 OFFCURVE",
"638 66 OFFCURVE",
"638 82 CURVE SMOOTH",
"638 92 OFFCURVE",
"643 101 OFFCURVE",
"651 106 CURVE SMOOTH",
"660 112 OFFCURVE",
"666 122 OFFCURVE",
"666 134 CURVE SMOOTH",
"666 240 LINE SMOOTH",
"666 252 OFFCURVE",
"660 262 OFFCURVE",
"651 268 CURVE SMOOTH",
"643 273 OFFCURVE",
"638 282 OFFCURVE",
"638 292 CURVE SMOOTH",
"638 308 OFFCURVE",
"650 320 OFFCURVE",
"666 320 CURVE SMOOTH",
"676 320 OFFCURVE",
"685 315 OFFCURVE",
"690 307 CURVE SMOOTH",
"696 298 OFFCURVE",
"706 292 OFFCURVE",
"718 292 CURVE SMOOTH"
);
},
{
closed = 1;
nodes = (
"220 72 OFFCURVE",
"124 178 OFFCURVE",
"124 325 CURVE SMOOTH",
"124 473 OFFCURVE",
"220 580 OFFCURVE",
"353 580 CURVE SMOOTH",
"486 580 OFFCURVE",
"582 475 OFFCURVE",
"582 325 CURVE SMOOTH",
"582 176 OFFCURVE",
"486 72 OFFCURVE",
"353 72 CURVE SMOOTH"
);
}
);
width = 1058;
}
);
leftKerningGroup = O;
leftMetricsKey = O;
rightKerningGroup = E;
rightMetricsKey = E;
unicode = 0152;
},
{
color = 10;
glyphname = P;
lastChange = "2022-07-16 22:13:05 +0000";
layers = (
{
layerId = "8007C042-6FBA-4E49-99B8-8B738A4EBE86";
paths = (
{
closed = 1;
nodes = (
"334 240 LINE SMOOTH",
"453 240 OFFCURVE",
"540 327 OFFCURVE",
"540 446 CURVE SMOOTH",
"540 564 OFFCURVE",
"455 650 OFFCURVE",
"338 650 CURVE SMOOTH",
"128 650 LINE",
"128 570 LINE",
"334 570 LINE SMOOTH",
"402 570 OFFCURVE",
"452 518 OFFCURVE",
"452 445 CURVE SMOOTH",
"452 372 OFFCURVE",
"402 320 OFFCURVE",
"334 320 CURVE SMOOTH",
"128 320 LINE",
"128 240 LINE"
);
},
{
closed = 1;
nodes = (
"148 0 LINE",
"148 650 LINE",
"64 650 LINE",
"64 0 LINE"
);
}
);
width = 560;
},
{
layerId = "ADDE491E-C0C4-4659-943C-53377B387F47";
paths = (
{
closed = 1;
nodes = (
"352 216 LINE SMOOTH",
"482 216 OFFCURVE",
"574 306 OFFCURVE",
"574 434 CURVE SMOOTH",
"574 561 OFFCURVE",
"485 650 OFFCURVE",
"360 650 CURVE SMOOTH",
"178 650 LINE",
"178 516 LINE",
"336 516 LINE SMOOTH",
"384 516 OFFCURVE",
"418 478 OFFCURVE",
"418 424 CURVE SMOOTH",
"418 370 OFFCURVE",
"384 332 OFFCURVE",
"336 332 CURVE SMOOTH",
"178 332 LINE",
"178 216 LINE"
);
},
{
closed = 1;
nodes = (
"198 0 LINE",
"198 650 LINE",
"50 650 LINE",
"50 0 LINE"
);
}
);
width = 588;
},
{
layerId = "0CF550E6-48ED-4BA5-8C66-195B58FED074";
paths = (
{
closed = 1;
nodes = (
"378 182 LINE SMOOTH",
"515 182 OFFCURVE",
"612 280 OFFCURVE",
"612 418 CURVE SMOOTH",
"612 554 OFFCURVE",
"520 650 OFFCURVE",
"390 650 CURVE SMOOTH",
"238 650 LINE",
"238 470 LINE",
"314 470 LINE SMOOTH",
"364 470 OFFCURVE",
"396 439 OFFCURVE",
"396 390 CURVE SMOOTH",
"396 341 OFFCURVE",
"364 310 OFFCURVE",
"314 310 CURVE SMOOTH",
"238 310 LINE",
"238 182 LINE"
);
},
{
closed = 1;
nodes = (
"258 0 LINE",
"258 650 LINE",
"42 650 LINE",
"42 0 LINE"
);
}
);
width = 620;
},
{
components = (
{
name = inkstem_M;
transform = "{-1, 0, 0, -1, 206, 360}";
},
{
name = inkstem_S;
transform = "{1, 0, 0, 1, 184, 30}";
},
{
name = inkstem_S;
transform = "{1, 0, 0, 1, 324, 56}";
},
{
name = inkstem_M;
transform = "{0, -1, 1, 0, 16, 710}";
},
{
name = inkcurve_L;
transform = "{-1, 0, 0, 1, 597, 168}";
},
{
name = inkstem_S;
transform = "{1, 0, 0, 1, 337, 325}";
}
);
layerId = m004;
paths = (
{
closed = 1;
nodes = (
"148 0 LINE",
"148 188 LINE SMOOTH",
"148 200 OFFCURVE",
"142 210 OFFCURVE",
"133 216 CURVE SMOOTH",
"125 221 OFFCURVE",
"120 230 OFFCURVE",
"120 240 CURVE SMOOTH",
"120 256 OFFCURVE",
"132 268 OFFCURVE",
"148 268 CURVE SMOOTH",
"158 268 OFFCURVE",
"167 263 OFFCURVE",
"172 255 CURVE SMOOTH",
"178 246 OFFCURVE",
"188 240 OFFCURVE",
"200 240 CURVE SMOOTH",
"334 240 LINE SMOOTH",
"453 240 OFFCURVE",
"540 327 OFFCURVE",
"540 446 CURVE SMOOTH",
"540 564 OFFCURVE",
"455 650 OFFCURVE",
"338 650 CURVE SMOOTH",
"64 650 LINE",
"64 0 LINE"
);
},
{
closed = 1;
nodes = (
"132 292 OFFCURVE",
"120 304 OFFCURVE",
"120 320 CURVE SMOOTH",
"120 330 OFFCURVE",
"125 339 OFFCURVE",
"133 344 CURVE SMOOTH",
"142 350 OFFCURVE",
"148 360 OFFCURVE",
"148 372 CURVE SMOOTH",
"148 518 LINE SMOOTH",
"148 530 OFFCURVE",
"142 540 OFFCURVE",
"133 546 CURVE SMOOTH",
"125 551 OFFCURVE",
"120 560 OFFCURVE",
"120 570 CURVE SMOOTH",
"120 586 OFFCURVE",
"132 598 OFFCURVE",
"148 598 CURVE SMOOTH",
"158 598 OFFCURVE",
"167 593 OFFCURVE",
"172 585 CURVE SMOOTH",
"178 576 OFFCURVE",
"188 570 OFFCURVE",
"200 570 CURVE SMOOTH",
"334 570 LINE SMOOTH",
"402 570 OFFCURVE",
"452 518 OFFCURVE",
"452 445 CURVE SMOOTH",
"452 372 OFFCURVE",
"402 320 OFFCURVE",
"334 320 CURVE SMOOTH",
"200 320 LINE SMOOTH",
"188 320 OFFCURVE",
"178 314 OFFCURVE",
"172 305 CURVE SMOOTH",
"167 297 OFFCURVE",
"158 292 OFFCURVE",
"148 292 CURVE SMOOTH"
);
}
);
width = 560;
}
);
leftKerningGroup = l;
leftMetricsKey = l;
rightKerningGroup = P;
unicode = 0050;
},
{
color = 10;
glyphname = Thorn;
lastChange = "2022-07-17 16:01:03 +0000";
layers = (
{
layerId = "8007C042-6FBA-4E49-99B8-8B738A4EBE86";
paths = (
{
closed = 1;
nodes = (
"338 127 LINE SMOOTH",
"455 127 OFFCURVE",
"540 214 OFFCURVE",
"540 333 CURVE SMOOTH",
"540 451 OFFCURVE",
"455 537 OFFCURVE",
"338 537 CURVE SMOOTH",
"128 537 LINE",
"128 457 LINE",
"334 457 LINE SMOOTH",
"402 457 OFFCURVE",
"452 405 OFFCURVE",
"452 332 CURVE SMOOTH",
"452 259 OFFCURVE",
"401 207 OFFCURVE",
"330 207 CURVE SMOOTH",
"128 207 LINE",
"128 127 LINE"
);
},
{
closed = 1;
nodes = (
"148 0 LINE",
"148 650 LINE",
"64 650 LINE",
"64 0 LINE"
);
}
);
width = 568;
},
{
layerId = "ADDE491E-C0C4-4659-943C-53377B387F47";
paths = (
{
closed = 1;
nodes = (
"350 119 LINE SMOOTH",
"479 119 OFFCURVE",
"572 208 OFFCURVE",
"572 332 CURVE SMOOTH",
"572 456 OFFCURVE",
"482 545 OFFCURVE",
"358 545 CURVE SMOOTH",
"178 545 LINE",
"178 413 LINE",
"334 413 LINE SMOOTH",
"382 413 OFFCURVE",
"416 380 OFFCURVE",
"416 334 CURVE SMOOTH",
"416 288 OFFCURVE",
"382 255 OFFCURVE",
"334 255 CURVE SMOOTH",
"178 255 LINE",
"178 119 LINE"
);
},
{
closed = 1;
nodes = (
"198 0 LINE",
"198 650 LINE",
"50 650 LINE",
"50 0 LINE"
);
}
);
width = 596;
},
{
layerId = "0CF550E6-48ED-4BA5-8C66-195B58FED074";
paths = (
{
closed = 1;
nodes = (
"380 90 LINE SMOOTH",
"521 90 OFFCURVE",
"620 191 OFFCURVE",
"620 334 CURVE SMOOTH",
"620 475 OFFCURVE",
"526 574 OFFCURVE",
"392 574 CURVE SMOOTH",
"238 574 LINE",
"238 406 LINE",
"330 406 LINE SMOOTH",
"375 406 OFFCURVE",
"404 377 OFFCURVE",
"404 332 CURVE SMOOTH",
"404 288 OFFCURVE",
"374 260 OFFCURVE",
"328 260 CURVE SMOOTH",
"238 260 LINE",
"238 90 LINE"
);
},
{
closed = 1;
nodes = (
"258 0 LINE",
"258 650 LINE",
"42 650 LINE",
"42 0 LINE"
);
}
);
width = 640;
},
{
components = (
{
name = inkstem_S;
transform = "{1, 0, 0, 1, 184, -83}";
},
{
name = inkstem_S;
transform = "{1, 0, 0, 1, 324, -57}";
},
{
name = inkstem_M;
transform = "{0, -1, 1, 0, 16, 597}";
},
{
name = inkcurve_L;
transform = "{-1, 0, 0, 1, 597, 55}";
},
{
name = inkstem_S;
transform = "{1, 0, 0, 1, 337, 212}";
},
{
name = inkstem_L;
transform = "{1, 0, 0, 1, 6, 23}";
}
);
layerId = m004;
paths = (
{
closed = 1;
nodes = (
"148 0 LINE",
"148 75 LINE SMOOTH",
"148 87 OFFCURVE",
"142 97 OFFCURVE",
"133 103 CURVE SMOOTH",
"125 108 OFFCURVE",
"120 117 OFFCURVE",
"120 127 CURVE SMOOTH",
"120 143 OFFCURVE",
"132 155 OFFCURVE",
"148 155 CURVE SMOOTH",
"158 155 OFFCURVE",
"167 150 OFFCURVE",
"172 142 CURVE SMOOTH",
"178 133 OFFCURVE",
"188 127 OFFCURVE",
"200 127 CURVE SMOOTH",
"338 127 LINE SMOOTH",
"455 127 OFFCURVE",
"540 214 OFFCURVE",
"540 333 CURVE SMOOTH",
"540 451 OFFCURVE",
"455 537 OFFCURVE",
"338 537 CURVE SMOOTH",
"200 537 LINE SMOOTH",
"188 537 OFFCURVE",
"178 531 OFFCURVE",
"172 522 CURVE SMOOTH",
"167 514 OFFCURVE",
"158 509 OFFCURVE",
"148 509 CURVE SMOOTH",
"132 509 OFFCURVE",
"120 521 OFFCURVE",
"120 537 CURVE SMOOTH",
"120 547 OFFCURVE",
"125 556 OFFCURVE",
"133 561 CURVE SMOOTH",
"142 567 OFFCURVE",
"148 577 OFFCURVE",
"148 589 CURVE SMOOTH",
"148 650 LINE",
"64 650 LINE",
"64 0 LINE"
);
},
{
closed = 1;
nodes = (
"148 457 LINE",
"334 457 LINE SMOOTH",
"402 457 OFFCURVE",
"452 405 OFFCURVE",
"452 332 CURVE SMOOTH",
"452 259 OFFCURVE",
"401 207 OFFCURVE",
"330 207 CURVE SMOOTH",
"148 207 LINE"
);
}
);
width = 568;
}
);
leftKerningGroup = l;
leftMetricsKey = l;
rightKerningGroup = Thorn;
unicode = 00DE;
},
{
glyphname = Q;
lastChange = "2022-07-16 22:13:03 +0000";
layers = (
{
layerId = "8007C042-6FBA-4E49-99B8-8B738A4EBE86";
paths = (
{
closed = 1;
nodes = (
"542 -12 OFFCURVE",
"668 123 OFFCURVE",
"668 321 CURVE SMOOTH",
"668 521 OFFCURVE",
"538 662 OFFCURVE",
"354 662 CURVE SMOOTH",
"168 662 OFFCURVE",
"36 522 OFFCURVE",
"36 323 CURVE SMOOTH",
"36 127 OFFCURVE",
"169 -12 OFFCURVE",
"356 -12 CURVE SMOOTH"
);
},
{
closed = 1;
nodes = (
"648 0 LINE",
"556 116 LINE",
"436 284 LINE",
"358 390 LINE",
"292 334 LINE",
"370 232 LINE",
"496 68 LINE",
"580 -52 LINE"
);
},
{
closed = 1;
nodes = (
"220 72 OFFCURVE",
"124 176 OFFCURVE",
"124 323 CURVE SMOOTH",
"124 474 OFFCURVE",
"219 580 OFFCURVE",
"354 580 CURVE SMOOTH",
"486 580 OFFCURVE",
"580 473 OFFCURVE",
"580 321 CURVE SMOOTH",
"580 173 OFFCURVE",
"490 72 OFFCURVE",
"356 72 CURVE SMOOTH"
);
}
);
width = 704;
},
{
layerId = "ADDE491E-C0C4-4659-943C-53377B387F47";
paths = (
{
closed = 1;
nodes = (
"546 -12 OFFCURVE",
"676 123 OFFCURVE",
"676 321 CURVE SMOOTH",
"676 521 OFFCURVE",
"543 662 OFFCURVE",
"354 662 CURVE SMOOTH",
"163 662 OFFCURVE",
"28 522 OFFCURVE",
"28 323 CURVE SMOOTH",
"28 127 OFFCURVE",
"164 -12 OFFCURVE",
"356 -12 CURVE SMOOTH"
);
},
{
closed = 1;
nodes = (
"664 -4 LINE",
"548 144 LINE",
"442 288 LINE",
"368 388 LINE",
"284 320 LINE",
"358 220 LINE",
"468 76 LINE",
"572 -76 LINE"
);
},
{
closed = 1;
nodes = (
"253 132 OFFCURVE",
"180 211 OFFCURVE",
"180 323 CURVE SMOOTH",
"180 440 OFFCURVE",
"252 522 OFFCURVE",
"354 522 CURVE SMOOTH",
"454 522 OFFCURVE",
"524 439 OFFCURVE",
"524 321 CURVE SMOOTH",
"524 207 OFFCURVE",
"456 132 OFFCURVE",
"356 132 CURVE SMOOTH"
);
}
);
width = 704;
},
{
layerId = "0CF550E6-48ED-4BA5-8C66-195B58FED074";
paths = (
{
closed = 1;
nodes = (
"526 -12 OFFCURVE",
"660 129 OFFCURVE",
"660 328 CURVE SMOOTH",
"660 524 OFFCURVE",
"527 662 OFFCURVE",
"340 662 CURVE SMOOTH",
"153 662 OFFCURVE",
"20 522 OFFCURVE",
"20 323 CURVE SMOOTH",
"20 127 OFFCURVE",
"151 -12 OFFCURVE",
"336 -12 CURVE SMOOTH"
);
},
{
closed = 1;
nodes = (
"278 182 OFFCURVE",
"236 238 OFFCURVE",
"236 326 CURVE SMOOTH",
"236 414 OFFCURVE",
"277 470 OFFCURVE",
"341 470 CURVE SMOOTH",
"404 470 OFFCURVE",
"444 414 OFFCURVE",
"444 326 CURVE SMOOTH",
"444 238 OFFCURVE",
"405 182 OFFCURVE",
"344 182 CURVE SMOOTH"
);
},
{
closed = 1;
nodes = (
"660 -12 LINE",
"524 152 LINE",
"400 60 LINE",
"536 -112 LINE"
);
}
);
width = 680;
},
{
associatedMasterId = "0CF550E6-48ED-4BA5-8C66-195B58FED074";
layerId = "FBB65DF0-51CD-4106-8CB6-94550218E2A7";
name = "31 gen 22, 14:56";
paths = (
{
closed = 1;
nodes = (
"538 -12 OFFCURVE",
"668 125 OFFCURVE",
"668 321 CURVE SMOOTH",
"668 521 OFFCURVE",
"534 662 OFFCURVE",
"345 662 CURVE SMOOTH",
"155 662 OFFCURVE",
"20 522 OFFCURVE",
"20 323 CURVE SMOOTH",
"20 127 OFFCURVE",
"156 -12 OFFCURVE",
"348 -12 CURVE SMOOTH"
);
},
{
closed = 1;
nodes = (
"274 170 OFFCURVE",
"227 230 OFFCURVE",
"227 324 CURVE SMOOTH",
"227 420 OFFCURVE",
"273 482 OFFCURVE",
"345 482 CURVE SMOOTH",
"416 482 OFFCURVE",
"461 419 OFFCURVE",
"461 322 CURVE SMOOTH",
"461 228 OFFCURVE",
"420 170 OFFCURVE",
"348 170 CURVE SMOOTH"
);
},
{
closed = 1;
nodes = (
"668 -8 LINE",
"526 148 LINE",
"400 312 LINE",
"352 372 LINE",
"284 312 LINE",
"332 252 LINE",
"464 96 LINE",
"588 -76 LINE"
);
}
);
width = 688;
},
{
components = (
{
name = inkstem_S;
transform = "{1, 0, 0, 1, 50, -128}";
},
{
name = inkcurve_L;
transform = "{0, 1, -1, 0, 630, -70}";
},
{
name = inkcurve_L;
transform = "{1, 0, 0, 1, -21, 47}";
},
{
name = inkstem_M;
transform = "{0.79341, 0.60869, -0.60869, 0.79341, 465, 14}";
},
{
name = inkstem_S;
transform = "{1, 0, 0, -1, 52, 780}";
},
{
name = inkcurve_L;
transform = "{-1, 0, 0, 1, 725, 47}";
},
{
name = inkcurve_L;
transform = "{0, -1, -1, 0, 630, 722}";
},
{
name = inkstem_S;
transform = "{1, 0, 0, -1, 450, 780}";
}
);
layerId = m004;
paths = (
{
closed = 1;
nodes = (
"648 0 LINE",
"583 82 LINE",
"637 140 OFFCURVE",
"668 223 OFFCURVE",
"668 321 CURVE SMOOTH",
"668 521 OFFCURVE",
"538 662 OFFCURVE",
"354 662 CURVE SMOOTH",
"168 662 OFFCURVE",
"36 522 OFFCURVE",
"36 323 CURVE SMOOTH",
"36 127 OFFCURVE",
"169 -12 OFFCURVE",
"356 -12 CURVE SMOOTH",
"405 -12 OFFCURVE",
"450 -3 OFFCURVE",
"490 15 CURVE SMOOTH",
"500 20 OFFCURVE",
"496 27 OFFCURVE",
"496 36 CURVE SMOOTH",
"496 52 OFFCURVE",
"508 64 OFFCURVE",
"524 64 CURVE SMOOTH",
"540 64 OFFCURVE",
"552 52 OFFCURVE",
"552 36 CURVE SMOOTH",
"552 29 OFFCURVE",
"549 22 OFFCURVE",
"545 17 CURVE SMOOTH",
"541 12 OFFCURVE",
"541 5 OFFCURVE",
"545 -1 CURVE SMOOTH",
"580 -52 LINE"
);
},
{
closed = 1;
nodes = (
"220 72 OFFCURVE",
"124 176 OFFCURVE",
"124 323 CURVE SMOOTH",
"124 474 OFFCURVE",
"219 580 OFFCURVE",
"354 580 CURVE SMOOTH",
"486 580 OFFCURVE",
"580 473 OFFCURVE",
"580 321 CURVE SMOOTH",
"580 272 OFFCURVE",
"570 229 OFFCURVE",
"553 192 CURVE SMOOTH",
"549 184 OFFCURVE",
"549 175 OFFCURVE",
"553 169 CURVE SMOOTH",
"556 165 OFFCURVE",
"557 160 OFFCURVE",
"557 154 CURVE SMOOTH",
"557 138 OFFCURVE",
"545 126 OFFCURVE",
"529 126 CURVE SMOOTH",
"513 126 OFFCURVE",
"501 138 OFFCURVE",
"501 154 CURVE SMOOTH",
"501 159 OFFCURVE",
"502 164 OFFCURVE",
"505 169 CURVE SMOOTH",
"509 175 OFFCURVE",
"509 183 OFFCURVE",
"504 189 CURVE SMOOTH",
"436 284 LINE",
"358 390 LINE",
"292 334 LINE",
"470 102 LINE",
"438 82 OFFCURVE",
"399 72 OFFCURVE",
"356 72 CURVE SMOOTH"
);
}
);
width = 704;
}
);
leftKerningGroup = O;
leftMetricsKey = O;
rightKerningGroup = O;
rightMetricsKey = O;
unicode = 0051;
},
{
color = 10;
glyphname = R;
lastChange = "2022-07-16 22:13:02 +0000";
layers = (
{
anchors = (
{
name = bottom;
position = "{300, 0}";
},
{
name = top;
position = "{296, 650}";
}
);
layerId = "8007C042-6FBA-4E49-99B8-8B738A4EBE86";
paths = (
{
closed = 1;
nodes = (
"362 261 LINE SMOOTH",
"475 261 OFFCURVE",
"556 342 OFFCURVE",
"556 455 CURVE SMOOTH",
"556 568 OFFCURVE",
"475 650 OFFCURVE",
"362 650 CURVE SMOOTH",
"128 650 LINE",
"128 570 LINE",
"358 570 LINE SMOOTH",
"422 570 OFFCURVE",
"468 521 OFFCURVE",
"468 454 CURVE SMOOTH",
"468 387 OFFCURVE",
"420 339 OFFCURVE",
"354 339 CURVE SMOOTH",
"128 339 LINE",
"128 261 LINE"
);
},
{
closed = 1;
nodes = (
"148 0 LINE",
"148 650 LINE",
"64 650 LINE",
"64 0 LINE"
);
},
{
closed = 1;
nodes = (
"572 0 LINE",
"416 280 LINE",
"322 280 LINE",
"472 0 LINE"
);
}
);
width = 604;
},
{
anchors = (
{
name = bottom;
position = "{298, 0}";
},
{
name = top;
position = "{306, 650}";
}
);
layerId = "ADDE491E-C0C4-4659-943C-53377B387F47";
paths = (
{
closed = 1;
nodes = (
"362 236 LINE SMOOTH",
"491 236 OFFCURVE",
"582 321 OFFCURVE",
"582 442 CURVE SMOOTH",
"582 564 OFFCURVE",
"497 650 OFFCURVE",
"378 650 CURVE SMOOTH",
"178 650 LINE",
"178 516 LINE",
"344 516 LINE SMOOTH",
"392 516 OFFCURVE",
"426 480 OFFCURVE",
"426 428 CURVE SMOOTH",
"426 376 OFFCURVE",
"390 340 OFFCURVE",
"340 340 CURVE SMOOTH",
"178 340 LINE",
"178 236 LINE"
);
},
{
closed = 1;
nodes = (
"198 0 LINE",
"198 650 LINE",
"50 650 LINE",
"50 0 LINE"
);
},
{
closed = 1;
nodes = (
"594 0 LINE",
"456 280 LINE",
"316 280 LINE",
"418 0 LINE"
);
}
);
width = 620;
},
{
anchors = (
{
name = bottom;
position = "{330, 0}";
},
{
name = top;
position = "{332, 650}";
}
);
layerId = "0CF550E6-48ED-4BA5-8C66-195B58FED074";
paths = (
{
closed = 1;
nodes = (
"408 212 LINE SMOOTH",
"539 212 OFFCURVE",
"632 303 OFFCURVE",
"632 432 CURVE SMOOTH",
"632 560 OFFCURVE",
"546 650 OFFCURVE",
"424 650 CURVE SMOOTH",
"238 650 LINE",
"238 478 LINE",
"332 478 LINE SMOOTH",
"383 478 OFFCURVE",
"416 448 OFFCURVE",
"416 402 CURVE SMOOTH",
"416 355 OFFCURVE",
"382 324 OFFCURVE",
"328 324 CURVE SMOOTH",
"238 324 LINE",
"238 212 LINE"
);
},
{
closed = 1;
nodes = (
"258 0 LINE",
"258 650 LINE",
"42 650 LINE",
"42 0 LINE"
);
},
{
closed = 1;
nodes = (
"644 0 LINE",
"508 280 LINE",
"320 280 LINE",
"404 0 LINE"
);
}
);
width = 660;
},
{
anchors = (
{
name = bottom;
position = "{330, 0}";
},
{
name = top;
position = "{332, 650}";
}
);
associatedMasterId = "0CF550E6-48ED-4BA5-8C66-195B58FED074";
layerId = "6AC75980-47B5-4A51-8689-61A56F979209";
name = "22 feb 22, 17:51";
paths = (
{
closed = 1;
nodes = (
"408 212 LINE SMOOTH",
"539 212 OFFCURVE",
"632 303 OFFCURVE",
"632 432 CURVE SMOOTH",
"632 560 OFFCURVE",
"546 650 OFFCURVE",
"424 650 CURVE SMOOTH",
"238 650 LINE",
"238 478 LINE",
"332 478 LINE SMOOTH",
"383 478 OFFCURVE",
"416 448 OFFCURVE",
"416 402 CURVE SMOOTH",
"416 355 OFFCURVE",
"382 324 OFFCURVE",
"328 324 CURVE SMOOTH",
"238 324 LINE",
"238 212 LINE"
);
},
{
closed = 1;
nodes = (
"258 0 LINE",
"258 650 LINE",
"42 650 LINE",
"42 0 LINE"
);
},
{
closed = 1;
nodes = (
"644 0 LINE",
"520 280 LINE",
"324 280 LINE",
"408 0 LINE"
);
}
);
width = 660;
},
{
anchors = (
{
name = bottom;
position = "{300, 0}";
},
{
name = top;
position = "{296, 650}";
}
);
components = (
{
name = inkstem_M;
transform = "{-1, 0, 0, -1, 206, 360}";
},
{
name = inkstem_L;
transform = "{-0.88258, -0.47016, 0.47016, -0.88258, 408, 424}";
},
{
name = inkstem_S;
transform = "{1, 0, 0, 1, 184, 50}";
},
{
name = inkstem_M;
transform = "{0, -1, 1, 0, 16, 710}";
},
{
name = inkcurve_L;
transform = "{-1, 0, 0, 1, 612, 174}";
},
{
name = inkstem_S;
transform = "{1, 0, 0, 1, 349, 332}";
}
);
layerId = m004;
paths = (
{
closed = 1;
nodes = (
"148 0 LINE",
"148 209 LINE SMOOTH",
"148 221 OFFCURVE",
"142 231 OFFCURVE",
"133 237 CURVE SMOOTH",
"125 242 OFFCURVE",
"120 251 OFFCURVE",
"120 261 CURVE SMOOTH",
"120 277 OFFCURVE",
"132 289 OFFCURVE",
"148 289 CURVE SMOOTH",
"158 289 OFFCURVE",
"167 284 OFFCURVE",
"172 276 CURVE SMOOTH",
"178 267 OFFCURVE",
"188 261 OFFCURVE",
"200 261 CURVE SMOOTH",
"332 261 LINE",
"472 0 LINE",
"572 0 LINE",
"442 233 LINE SMOOTH",
"434 247 OFFCURVE",
"430 242 OFFCURVE",
"420 242 CURVE SMOOTH",
"404 242 OFFCURVE",
"392 254 OFFCURVE",
"392 270 CURVE SMOOTH",
"392 286 OFFCURVE",
"404 298 OFFCURVE",
"420 298 CURVE SMOOTH",
"429 298 OFFCURVE",
"437 294 OFFCURVE",
"442 288 CURVE SMOOTH",
"446 282 OFFCURVE",
"452 280 OFFCURVE",
"459 284 CURVE SMOOTH",
"520 316 OFFCURVE",
"556 377 OFFCURVE",
"556 455 CURVE SMOOTH",
"556 568 OFFCURVE",
"475 650 OFFCURVE",
"362 650 CURVE SMOOTH",
"64 650 LINE",
"64 0 LINE"
);
},
{
closed = 1;
nodes = (
"132 311 OFFCURVE",
"120 323 OFFCURVE",
"120 339 CURVE SMOOTH",
"120 349 OFFCURVE",
"125 358 OFFCURVE",
"133 363 CURVE SMOOTH",
"142 369 OFFCURVE",
"148 379 OFFCURVE",
"148 391 CURVE SMOOTH",
"148 518 LINE SMOOTH",
"148 530 OFFCURVE",
"142 540 OFFCURVE",
"133 546 CURVE SMOOTH",
"125 551 OFFCURVE",
"120 560 OFFCURVE",
"120 570 CURVE SMOOTH",
"120 586 OFFCURVE",
"132 598 OFFCURVE",
"148 598 CURVE SMOOTH",
"158 598 OFFCURVE",
"167 593 OFFCURVE",
"172 585 CURVE SMOOTH",
"178 576 OFFCURVE",
"188 570 OFFCURVE",
"200 570 CURVE SMOOTH",
"358 570 LINE SMOOTH",
"422 570 OFFCURVE",
"468 521 OFFCURVE",
"468 454 CURVE SMOOTH",
"468 387 OFFCURVE",
"420 339 OFFCURVE",
"354 339 CURVE SMOOTH",
"200 339 LINE SMOOTH",
"188 339 OFFCURVE",
"178 333 OFFCURVE",
"172 324 CURVE SMOOTH",
"167 316 OFFCURVE",
"158 311 OFFCURVE",
"148 311 CURVE SMOOTH"
);
}
);
width = 604;
}
);
leftKerningGroup = l;
leftMetricsKey = l;
rightKerningGroup = R;
unicode = 0052;
},
{
color = 10;
glyphname = S;
lastChange = "2022-07-16 22:13:01 +0000";
layers = (
{
anchors = (
{
name = bottom;
position = "{292, 0}";
},
{
name = top;
position = "{288, 650}";
}
);
layerId = "8007C042-6FBA-4E49-99B8-8B738A4EBE86";
paths = (
{
closed = 1;
nodes = (
"441 -12 OFFCURVE",
"536 65 OFFCURVE",
"536 176 CURVE SMOOTH",
"536 400 OFFCURVE",
"156 360 OFFCURVE",
"156 496 CURVE SMOOTH",
"156 548 OFFCURVE",
"212 582 OFFCURVE",
"276 582 CURVE SMOOTH",
"356 582 OFFCURVE",
"412 530 OFFCURVE",
"420 462 CURVE",
"512 488 LINE",
"500 592 OFFCURVE",
"406 662 OFFCURVE",
"282 662 CURVE SMOOTH",
"160 662 OFFCURVE",
"64 596 OFFCURVE",
"64 492 CURVE SMOOTH",
"64 284 OFFCURVE",
"444 331 OFFCURVE",
"444 176 CURVE SMOOTH",
"444 114 OFFCURVE",
"382 70 OFFCURVE",
"302 70 CURVE SMOOTH",
"203 70 OFFCURVE",
"132 136 OFFCURVE",
"128 228 CURVE",
"36 204 LINE",
"44 76 OFFCURVE",
"153 -12 OFFCURVE",
"300 -12 CURVE SMOOTH"
);
}
);
width = 572;
},
{
anchors = (
{
name = bottom;
position = "{300, 0}";
},
{
name = top;
position = "{296, 650}";
}
);
layerId = "ADDE491E-C0C4-4659-943C-53377B387F47";
paths = (
{
closed = 1;
nodes = (
"463 -12 OFFCURVE",
"572 67 OFFCURVE",
"572 180 CURVE SMOOTH",
"572 388 OFFCURVE",
"200 352 OFFCURVE",
"200 470 CURVE SMOOTH",
"200 507 OFFCURVE",
"235 534 OFFCURVE",
"284 534 CURVE SMOOTH",
"342 534 OFFCURVE",
"386 497 OFFCURVE",
"390 444 CURVE",
"556 484 LINE",
"544 588 OFFCURVE",
"435 662 OFFCURVE",
"288 662 CURVE SMOOTH",
"144 662 OFFCURVE",
"48 588 OFFCURVE",
"48 484 CURVE SMOOTH",
"48 284 OFFCURVE",
"412 308 OFFCURVE",
"412 184 CURVE SMOOTH",
"412 140 OFFCURVE",
"365 120 OFFCURVE",
"316 120 CURVE SMOOTH",
"241 120 OFFCURVE",
"196 166 OFFCURVE",
"192 229 CURVE",
"20 193 LINE",
"24 75 OFFCURVE",
"146 -12 OFFCURVE",
"308 -12 CURVE SMOOTH"
);
}
);
width = 596;
},
{
anchors = (
{
name = bottom;
position = "{300, 0}";
},
{
name = top;
position = "{300, 650}";
}
);
layerId = "0CF550E6-48ED-4BA5-8C66-195B58FED074";
paths = (
{
closed = 1;
nodes = (
"470 -12 OFFCURVE",
"584 69 OFFCURVE",
"584 184 CURVE SMOOTH",
"584 392 OFFCURVE",
"242 346 OFFCURVE",
"242 446 CURVE SMOOTH",
"242 470 OFFCURVE",
"262 486 OFFCURVE",
"292 486 CURVE SMOOTH",
"328 486 OFFCURVE",
"354 460 OFFCURVE",
"360 418 CURVE",
"568 464 LINE",
"560 580 OFFCURVE",
"444 662 OFFCURVE",
"288 662 CURVE SMOOTH",
"138 662 OFFCURVE",
"32 587 OFFCURVE",
"32 480 CURVE SMOOTH",
"32 284 OFFCURVE",
"372 324 OFFCURVE",
"372 216 CURVE SMOOTH",
"372 187 OFFCURVE",
"347 168 OFFCURVE",
"308 168 CURVE SMOOTH",
"258 168 OFFCURVE",
"224 198 OFFCURVE",
"220 244 CURVE",
"4 204 LINE",
"8 76 OFFCURVE",
"132 -12 OFFCURVE",
"304 -12 CURVE SMOOTH"
);
}
);
width = 596;
},
{
anchors = (
{
name = bottom;
position = "{304, 0}";
},
{
name = top;
position = "{300, 650}";
}
);
associatedMasterId = "ADDE491E-C0C4-4659-943C-53377B387F47";
layerId = "F3E655FE-06D0-40A1-9A32-4C8EF396F9F5";
name = "4 feb 22, 17:42";
paths = (
{
closed = 1;
nodes = (
"28 75 OFFCURVE",
"150 -12 OFFCURVE",
"312 -12 CURVE SMOOTH",
"467 -12 OFFCURVE",
"576 67 OFFCURVE",
"576 180 CURVE SMOOTH",
"576 388 OFFCURVE",
"204 352 OFFCURVE",
"204 470 CURVE SMOOTH",
"204 507 OFFCURVE",
"243 534 OFFCURVE",
"292 534 CURVE SMOOTH",
"350 534 OFFCURVE",
"392 496 OFFCURVE",
"396 444 CURVE",
"564 484 LINE",
"556 587 OFFCURVE",
"433 662 OFFCURVE",
"288 662 CURVE SMOOTH",
"142 662 OFFCURVE",
"48 586 OFFCURVE",
"48 480 CURVE SMOOTH",
"48 272 OFFCURVE",
"416 308 OFFCURVE",
"416 184 CURVE SMOOTH",
"416 140 OFFCURVE",
"369 120 OFFCURVE",
"320 120 CURVE SMOOTH",
"245 120 OFFCURVE",
"200 166 OFFCURVE",
"196 229 CURVE",
"24 193 LINE"
);
}
);
width = 600;
},
{
anchors = (
{
name = bottom;
position = "{296, 0}";
},
{
name = top;
position = "{300, 650}";
}
);
associatedMasterId = "0CF550E6-48ED-4BA5-8C66-195B58FED074";
layerId = "5F7EB9B3-71F7-4E6D-AC0F-ECF753D15ED6";
name = "22 feb 22, 17:54";
paths = (
{
closed = 1;
nodes = (
"470 -12 OFFCURVE",
"584 69 OFFCURVE",
"584 184 CURVE SMOOTH",
"584 392 OFFCURVE",
"242 346 OFFCURVE",
"242 442 CURVE SMOOTH",
"242 464 OFFCURVE",
"260 478 OFFCURVE",
"288 478 CURVE SMOOTH",
"324 478 OFFCURVE",
"351 453 OFFCURVE",
"357 413 CURVE",
"569 467 LINE",
"561 579 OFFCURVE",
"451 662 OFFCURVE",
"292 662 CURVE SMOOTH",
"136 662 OFFCURVE",
"32 588 OFFCURVE",
"32 480 CURVE SMOOTH",
"32 280 OFFCURVE",
"372 324 OFFCURVE",
"372 220 CURVE SMOOTH",
"372 192 OFFCURVE",
"348 174 OFFCURVE",
"310 174 CURVE SMOOTH",
"260 174 OFFCURVE",
"228 206 OFFCURVE",
"224 256 CURVE",
"4 204 LINE",
"8 76 OFFCURVE",
"132 -12 OFFCURVE",
"304 -12 CURVE SMOOTH"
);
}
);
width = 596;
},
{
anchors = (
{
name = bottom;
position = "{292, 0}";
},
{
name = top;
position = "{288, 650}";
}
);
components = (
{
name = inkstem_S;
transform = "{1, 0, 0, -1, -6, 412}";
},
{
name = inkcurve_L;
transform = "{0, 1, -1, 0, 584, -72}";
},
{
name = inkcurve_S;
transform = "{1, 0, 0, 1, 12, 220}";
},
{
name = inkstem_L;
transform = "{0.34277, 0.93942, -0.93942, 0.34277, 556, 142}";
},
{
name = inkcurve_S;
transform = "{-1, 0, 0, 1, 588, -104}";
},
{
name = inkcurve_L;
transform = "{0, -1, -1, 0, 554, 722}";
},
{
name = inkstem_S;
transform = "{1, 0, 0, -1, 348, 778}";
}
);
layerId = m004;
paths = (
{
closed = 1;
nodes = (
"441 -12 OFFCURVE",
"536 65 OFFCURVE",
"536 176 CURVE SMOOTH",
"536 400 OFFCURVE",
"156 360 OFFCURVE",
"156 496 CURVE SMOOTH",
"156 548 OFFCURVE",
"212 582 OFFCURVE",
"276 582 CURVE SMOOTH",
"356 582 OFFCURVE",
"412 530 OFFCURVE",
"420 462 CURVE",
"512 488 LINE",
"500 592 OFFCURVE",
"406 662 OFFCURVE",
"282 662 CURVE SMOOTH",
"160 662 OFFCURVE",
"64 596 OFFCURVE",
"64 492 CURVE SMOOTH",
"64 284 OFFCURVE",
"444 331 OFFCURVE",
"444 176 CURVE SMOOTH",
"444 114 OFFCURVE",
"382 70 OFFCURVE",
"302 70 CURVE SMOOTH",
"203 70 OFFCURVE",
"132 136 OFFCURVE",
"128 228 CURVE",
"36 204 LINE",
"44 76 OFFCURVE",
"153 -12 OFFCURVE",
"300 -12 CURVE SMOOTH"
);
}
);
width = 572;
}
);
leftKerningGroup = S;
note = "Stretta?";
rightKerningGroup = S;
unicode = 0053;
},
{
glyphname = Scedilla;
lastChange = "2022-07-27 19:48:03 +0000";
layers = (
{
components = (
{
name = S;
},
{
name = cedillacomb;
transform = "{1, 0, 0, 1, -8, 0}";
}
);
layerId = "8007C042-6FBA-4E49-99B8-8B738A4EBE86";
width = 572;
},
{
components = (
{
name = S;
},
{
name = cedillacomb;
}
);
layerId = "ADDE491E-C0C4-4659-943C-53377B387F47";
width = 596;
},
{
components = (
{
name = S;
},
{
name = cedillacomb;
}
);
layerId = "0CF550E6-48ED-4BA5-8C66-195B58FED074";
width = 596;
},
{
components = (
{
name = S;
}
);
layerId = m004;
paths = (
{
closed = 1;
nodes = (
"316 -209 OFFCURVE",
"384 -180 OFFCURVE",
"384 -124 CURVE SMOOTH",
"384 -84 OFFCURVE",
"349 -56 OFFCURVE",
"300 -48 CURVE",
"315 0 LINE",
"270 0 LINE",
"248 -76 LINE",
"288 -80 LINE SMOOTH",
"317 -83 OFFCURVE",
"336 -98 OFFCURVE",
"336 -118 CURVE SMOOTH",
"336 -148 OFFCURVE",
"292 -160 OFFCURVE",
"224 -144 CURVE",
"222 -196 LINE"
);
}
);
width = 572;
}
);
leftKerningGroup = S;
leftMetricsKey = S;
rightKerningGroup = S;
rightMetricsKey = S;
unicode = 015E;
},
{
color = 3;
glyphname = Germandbls;
lastChange = "2022-07-27 19:20:39 +0000";
layers = (
{
layerId = "8007C042-6FBA-4E49-99B8-8B738A4EBE86";
paths = (
{
closed = 1;
nodes = (
"522 -12 OFFCURVE",
"604 61 OFFCURVE",
"604 164 CURVE SMOOTH",
"604 360 OFFCURVE",
"296 360 OFFCURVE",
"296 476 CURVE SMOOTH",
"296 552 OFFCURVE",
"408 576 OFFCURVE",
"480 520 CURVE",
"526 578 LINE",
"482 630 OFFCURVE",
"400 662 OFFCURVE",
"316 662 CURVE SMOOTH",
"171 662 OFFCURVE",
"64 569 OFFCURVE",
"64 440 CURVE SMOOTH",
"64 0 LINE",
"148 0 LINE",
"148 448 LINE SMOOTH",
"148 537 OFFCURVE",
"213 600 OFFCURVE",
"320 600 CURVE",
"250 581 OFFCURVE",
"216 528 OFFCURVE",
"216 468 CURVE SMOOTH",
"216 288 OFFCURVE",
"516 316 OFFCURVE",
"516 164 CURVE SMOOTH",
"516 104 OFFCURVE",
"470 68 OFFCURVE",
"410 68 CURVE SMOOTH",
"334 68 OFFCURVE",
"280 124 OFFCURVE",
"276 200 CURVE",
"186 184 LINE",
"194 70 OFFCURVE",
"287 -12 OFFCURVE",
"408 -12 CURVE SMOOTH"
);
}
);
width = 616;
},
{
layerId = "ADDE491E-C0C4-4659-943C-53377B387F47";
paths = (
{
closed = 1;
nodes = (
"581 -12 OFFCURVE",
"668 65 OFFCURVE",
"668 172 CURVE SMOOTH",
"668 360 OFFCURVE",
"408 352 OFFCURVE",
"408 452 CURVE SMOOTH",
"408 512 OFFCURVE",
"500 536 OFFCURVE",
"572 496 CURVE",
"612 616 LINE",
"556 646 OFFCURVE",
"476 662 OFFCURVE",
"396 662 CURVE SMOOTH",
"196 662 OFFCURVE",
"52 556 OFFCURVE",
"52 400 CURVE SMOOTH",
"52 0 LINE",
"200 0 LINE",
"200 384 LINE SMOOTH",
"200 493 OFFCURVE",
"277 564 OFFCURVE",
"396 564 CURVE",
"332 548 OFFCURVE",
"288 500 OFFCURVE",
"288 440 CURVE SMOOTH",
"288 296 OFFCURVE",
"528 292 OFFCURVE",
"528 180 CURVE SMOOTH",
"528 142 OFFCURVE",
"500 116 OFFCURVE",
"464 116 CURVE SMOOTH",
"420 116 OFFCURVE",
"388 152 OFFCURVE",
"386 208 CURVE",
"236 180 LINE",
"240 64 OFFCURVE",
"329 -12 OFFCURVE",
"460 -12 CURVE SMOOTH"
);
}
);
width = 676;
},
{
layerId = "0CF550E6-48ED-4BA5-8C66-195B58FED074";
paths = (
{
closed = 1;
nodes = (
"650 -12 OFFCURVE",
"748 61 OFFCURVE",
"748 164 CURVE SMOOTH",
"748 332 OFFCURVE",
"492 332 OFFCURVE",
"492 412 CURVE SMOOTH",
"492 452 OFFCURVE",
"556 476 OFFCURVE",
"628 440 CURVE",
"672 620 LINE",
"614 644 OFFCURVE",
"517 662 OFFCURVE",
"424 662 CURVE SMOOTH",
"200 662 OFFCURVE",
"40 561 OFFCURVE",
"40 420 CURVE SMOOTH",
"40 0 LINE",
"252 0 LINE",
"252 396 LINE SMOOTH",
"252 481 OFFCURVE",
"321 536 OFFCURVE",
"428 536 CURVE",
"370 521 OFFCURVE",
"332 474 OFFCURVE",
"332 416 CURVE SMOOTH",
"332 284 OFFCURVE",
"536 252 OFFCURVE",
"536 180 CURVE SMOOTH",
"536 161 OFFCURVE",
"523 148 OFFCURVE",
"504 148 CURVE SMOOTH",
"480 148 OFFCURVE",
"465 169 OFFCURVE",
"465 200 CURVE",
"268 172 LINE",
"272 58 OFFCURVE",
"371 -12 OFFCURVE",
"512 -12 CURVE SMOOTH"
);
}
);
width = 752;
},
{
components = (
{
name = inkstem_M;
transform = "{1, 0, 0, 1, 6, -196}";
},
{
name = inkstem_S;
transform = "{1, 0, 0, 1, 143, -112}";
},
{
name = inkcurve_L;
transform = "{0, 1, -1, 0, 690, -72}";
},
{
name = inkcurve_L;
transform = "{-1, 0, 0, 1, 659, -114}";
},
{
name = inkstem_S;
transform = "{1, 0, 0, 1, 360, 330}";
},
{
name = inkstem_L;
transform = "{1, 0, 0, 1, 4, 76}";
},
{
name = inkcurve_S;
transform = "{1, 0, 0, 1, 158, 196}";
},
{
name = inkstem_M;
transform = "{0.42672, 0.90438, -0.90438, 0.42672, 587, 134}";
}
);
layerId = m004;
paths = (
{
closed = 1;
nodes = (
"284 598 OFFCURVE",
"291 604 OFFCURVE",
"295 613 CURVE SMOOTH",
"300 622 OFFCURVE",
"309 628 OFFCURVE",
"320 628 CURVE SMOOTH",
"336 628 OFFCURVE",
"348 616 OFFCURVE",
"348 600 CURVE SMOOTH",
"348 584 OFFCURVE",
"336 572 OFFCURVE",
"320 572 CURVE SMOOTH",
"300 572 OFFCURVE",
"299 594 OFFCURVE",
"281 584 CURVE SMOOTH",
"237 559 OFFCURVE",
"216 515 OFFCURVE",
"216 468 CURVE SMOOTH",
"216 288 OFFCURVE",
"516 316 OFFCURVE",
"516 164 CURVE SMOOTH",
"516 104 OFFCURVE",
"470 68 OFFCURVE",
"410 68 CURVE SMOOTH",
"334 68 OFFCURVE",
"280 124 OFFCURVE",
"276 200 CURVE",
"186 184 LINE",
"194 70 OFFCURVE",
"287 -12 OFFCURVE",
"408 -12 CURVE SMOOTH",
"522 -12 OFFCURVE",
"604 61 OFFCURVE",
"604 164 CURVE SMOOTH",
"604 360 OFFCURVE",
"296 360 OFFCURVE",
"296 476 CURVE SMOOTH",
"296 552 OFFCURVE",
"408 576 OFFCURVE",
"480 520 CURVE",
"526 578 LINE",
"482 630 OFFCURVE",
"400 662 OFFCURVE",
"316 662 CURVE SMOOTH",
"171 662 OFFCURVE",
"64 569 OFFCURVE",
"64 440 CURVE SMOOTH",
"64 0 LINE",
"148 0 LINE",
"148 448 LINE SMOOTH",
"148 523 OFFCURVE",
"195 580 OFFCURVE",
"274 596 CURVE SMOOTH"
);
}
);
width = 616;
}
);
leftKerningGroup = Germandbls;
rightKerningGroup = B;
unicode = 1E9E;
},
{
color = 10;
glyphname = T;
lastChange = "2022-07-16 22:13:00 +0000";
layers = (
{
anchors = (
{
name = bottom;
position = "{280, 0}";
},
{
name = top;
position = "{280, 650}";
}
);
layerId = "8007C042-6FBA-4E49-99B8-8B738A4EBE86";
paths = (
{
closed = 1;
nodes = (
"320 0 LINE",
"320 590 LINE",
"236 590 LINE",
"236 0 LINE"
);
},
{
closed = 1;
nodes = (
"554 570 LINE",
"554 650 LINE",
"2 650 LINE",
"2 570 LINE"
);
}
);
width = 556;
},
{
anchors = (
{
name = bottom;
position = "{282, 0}";
},
{
name = top;
position = "{282, 650}";
}
);
layerId = "ADDE491E-C0C4-4659-943C-53377B387F47";
paths = (
{
closed = 1;
nodes = (
"356 0 LINE",
"356 530 LINE",
"208 530 LINE",
"208 0 LINE"
);
},
{
closed = 1;
nodes = (
"562 510 LINE",
"562 650 LINE",
"2 650 LINE",
"2 510 LINE"
);
}
);
width = 564;
},
{
anchors = (
{
name = bottom;
position = "{294, 0}";
},
{
name = top;
position = "{294, 650}";
}
);
layerId = "0CF550E6-48ED-4BA5-8C66-195B58FED074";
paths = (
{
closed = 1;
nodes = (
"400 0 LINE",
"400 478 LINE",
"188 478 LINE",
"188 0 LINE"
);
},
{
closed = 1;
nodes = (
"586 458 LINE",
"586 650 LINE",
"2 650 LINE",
"2 458 LINE"
);
}
);
width = 588;
},
{
anchors = (
{
name = bottom;
position = "{280, 0}";
},
{
name = top;
position = "{280, 650}";
}
);
components = (
{
name = inkstem_S;
transform = "{1, 0, 0, 1, 178, -194}";
},
{
name = inkstem_L;
transform = "{1, 0, 0, 1, 178, -16}";
},
{
name = inkstem_M;
transform = "{0, -1, 1, 0, -194, 710}";
},
{
name = inkstem_M;
transform = "{0, -1, 1, 0, 194, 710}";
}
);
layerId = m004;
paths = (
{
closed = 1;
nodes = (
"320 0 LINE",
"320 518 LINE SMOOTH",
"320 530 OFFCURVE",
"314 540 OFFCURVE",
"305 546 CURVE SMOOTH",
"297 551 OFFCURVE",
"292 560 OFFCURVE",
"292 570 CURVE SMOOTH",
"292 586 OFFCURVE",
"304 598 OFFCURVE",
"320 598 CURVE SMOOTH",
"330 598 OFFCURVE",
"339 593 OFFCURVE",
"344 585 CURVE SMOOTH",
"350 576 OFFCURVE",
"360 570 OFFCURVE",
"372 570 CURVE SMOOTH",
"554 570 LINE",
"554 650 LINE",
"2 650 LINE",
"2 570 LINE",
"184 570 LINE SMOOTH",
"196 570 OFFCURVE",
"206 576 OFFCURVE",
"212 585 CURVE SMOOTH",
"217 593 OFFCURVE",
"226 598 OFFCURVE",
"236 598 CURVE SMOOTH",
"252 598 OFFCURVE",
"264 586 OFFCURVE",
"264 570 CURVE SMOOTH",
"264 560 OFFCURVE",
"259 551 OFFCURVE",
"251 546 CURVE SMOOTH",
"242 540 OFFCURVE",
"236 530 OFFCURVE",
"236 518 CURVE SMOOTH",
"236 0 LINE"
);
}
);
width = 556;
}
);
leftKerningGroup = T;
rightKerningGroup = T;
rightMetricsKey = "=|";
unicode = 0054;
},
{
color = 10;
glyphname = U;
lastChange = "2022-07-16 22:12:55 +0000";
layers = (
{
anchors = (
{
name = ogonek;
position = "{448, 0}";
},
{
name = top;
position = "{320, 650}";
}
);
layerId = "8007C042-6FBA-4E49-99B8-8B738A4EBE86";
paths = (
{
closed = 1;
nodes = (
"470 -12 OFFCURVE",
"580 103 OFFCURVE",
"580 262 CURVE SMOOTH",
"580 650 LINE",
"496 650 LINE",
"496 264 LINE SMOOTH",
"496 153 OFFCURVE",
"421 72 OFFCURVE",
"318 72 CURVE SMOOTH",
"215 72 OFFCURVE",
"140 153 OFFCURVE",
"140 264 CURVE SMOOTH",
"140 650 LINE",
"56 650 LINE",
"56 262 LINE SMOOTH",
"56 103 OFFCURVE",
"166 -12 OFFCURVE",
"318 -12 CURVE SMOOTH"
);
}
);
width = 636;
},
{
anchors = (
{
name = ogonek;
position = "{452, 0}";
},
{
name = top;
position = "{316, 650}";
}
);
layerId = "ADDE491E-C0C4-4659-943C-53377B387F47";
paths = (
{
closed = 1;
nodes = (
"472 -12 OFFCURVE",
"584 102 OFFCURVE",
"584 264 CURVE SMOOTH",
"584 650 LINE",
"436 650 LINE",
"436 272 LINE SMOOTH",
"436 190 OFFCURVE",
"385 132 OFFCURVE",
"314 132 CURVE SMOOTH",
"243 132 OFFCURVE",
"192 190 OFFCURVE",
"192 272 CURVE SMOOTH",
"192 650 LINE",
"44 650 LINE",
"44 264 LINE SMOOTH",
"44 102 OFFCURVE",
"156 -12 OFFCURVE",
"314 -12 CURVE SMOOTH"
);
}
);
width = 628;
},
{
anchors = (
{
name = ogonek;
position = "{474, 0}";
},
{
name = top;
position = "{322, 650}";
}
);
layerId = "0CF550E6-48ED-4BA5-8C66-195B58FED074";
paths = (
{
closed = 1;
nodes = (
"494 -12 OFFCURVE",
"606 91 OFFCURVE",
"606 252 CURVE SMOOTH",
"606 650 LINE",
"394 650 LINE",
"394 256 LINE SMOOTH",
"394 205 OFFCURVE",
"365 172 OFFCURVE",
"320 172 CURVE SMOOTH",
"275 172 OFFCURVE",
"246 205 OFFCURVE",
"246 256 CURVE SMOOTH",
"246 650 LINE",
"34 650 LINE",
"34 252 LINE SMOOTH",
"34 91 OFFCURVE",
"146 -12 OFFCURVE",
"320 -12 CURVE SMOOTH"
);
}
);
width = 640;
},
{
anchors = (
{
name = ogonek;
position = "{448, 0}";
},
{
name = top;
position = "{320, 650}";
}
);
components = (
{
name = inkstem_S;
transform = "{1, 0, 0, 1, 40, -130}";
},
{
name = inkcurve_L;
transform = "{0, 1, -1, 0, 596, -70}";
},
{
name = inkstem_M;
transform = "{1, 0, 0, 1, -3, 48}";
},
{
name = inkstem_S;
transform = "{1, 0, 0, 1, 394, -130}";
},
{
name = inkstem_L;
transform = "{1, 0, 0, 1, -3, 226}";
},
{
name = inkstem_M;
transform = "{1, 0, 0, 1, 437, 48}";
},
{
name = inkstem_L;
transform = "{1, 0, 0, 1, 437, 226}";
}
);
layerId = m004;
paths = (
{
closed = 1;
nodes = (
"470 -12 OFFCURVE",
"580 103 OFFCURVE",
"580 262 CURVE SMOOTH",
"580 650 LINE",
"496 650 LINE",
"496 264 LINE SMOOTH",
"496 153 OFFCURVE",
"421 72 OFFCURVE",
"318 72 CURVE SMOOTH",
"215 72 OFFCURVE",
"140 153 OFFCURVE",
"140 264 CURVE SMOOTH",
"140 650 LINE",
"56 650 LINE",
"56 262 LINE SMOOTH",
"56 103 OFFCURVE",
"166 -12 OFFCURVE",
"318 -12 CURVE SMOOTH"
);
}
);
width = 636;
}
);
leftKerningGroup = U;
rightKerningGroup = U;
rightMetricsKey = "=|";
unicode = 0055;
},
{
glyphname = Uogonek;
lastChange = "2022-07-26 21:30:39 +0000";
layers = (
{
components = (
{
name = U;
}
);
layerId = "8007C042-6FBA-4E49-99B8-8B738A4EBE86";
paths = (
{
closed = 1;
nodes = (
"428 -190 OFFCURVE",
"442 -189 OFFCURVE",
"450 -188 CURVE",
"448 -129 LINE",
"442 -130 OFFCURVE",
"435 -130 OFFCURVE",
"432 -130 CURVE SMOOTH",
"404 -130 OFFCURVE",
"384 -116 OFFCURVE",
"384 -88 CURVE SMOOTH",
"384 -40 OFFCURVE",
"416 -10 OFFCURVE",
"480 42 CURVE",
"392 0 LINE",
"348 -28 OFFCURVE",
"312 -68 OFFCURVE",
"312 -108 CURVE SMOOTH",
"312 -164 OFFCURVE",
"352 -190 OFFCURVE",
"416 -190 CURVE SMOOTH"
);
}
);
width = 636;
},
{
components = (
{
name = U;
}
);
layerId = "ADDE491E-C0C4-4659-943C-53377B387F47";
paths = (
{
closed = 1;
nodes = (
"432 -208 OFFCURVE",
"453 -205 OFFCURVE",
"478 -200 CURVE",
"468 -123 LINE",
"462 -124 OFFCURVE",
"455 -124 OFFCURVE",
"452 -124 CURVE SMOOTH",
"426 -124 OFFCURVE",
"412 -111 OFFCURVE",
"412 -88 CURVE SMOOTH",
"412 -37 OFFCURVE",
"462 14 OFFCURVE",
"516 72 CURVE",
"388 0 LINE",
"320 -28 OFFCURVE",
"284 -72 OFFCURVE",
"284 -120 CURVE SMOOTH",
"284 -172 OFFCURVE",
"328 -208 OFFCURVE",
"404 -208 CURVE SMOOTH"
);
}
);
width = 628;
},
{
components = (
{
name = U;
}
);
layerId = "0CF550E6-48ED-4BA5-8C66-195B58FED074";
paths = (
{
closed = 1;
nodes = (
"454 -212 OFFCURVE",
"484 -209 OFFCURVE",
"506 -204 CURVE",
"488 -103 LINE",
"482 -104 OFFCURVE",
"478 -104 OFFCURVE",
"476 -104 CURVE SMOOTH",
"455 -104 OFFCURVE",
"442 -91 OFFCURVE",
"442 -68 CURVE SMOOTH",
"442 -40 OFFCURVE",
"460 0 OFFCURVE",
"524 56 CURVE",
"386 0 LINE",
"323 -26 OFFCURVE",
"282 -73 OFFCURVE",
"282 -120 CURVE SMOOTH",
"282 -176 OFFCURVE",
"340 -212 OFFCURVE",
"430 -212 CURVE SMOOTH"
);
}
);
width = 640;
},
{
components = (
{
name = U;
},
{
name = inkstem_S;
transform = "{1, 0, 0, 1, 256, -380}";
}
);
layerId = m004;
paths = (
{
closed = 1;
nodes = (
"428 -190 OFFCURVE",
"442 -189 OFFCURVE",
"450 -188 CURVE",
"448 -129 LINE",
"442 -130 OFFCURVE",
"435 -130 OFFCURVE",
"432 -130 CURVE SMOOTH",
"404 -130 OFFCURVE",
"384 -116 OFFCURVE",
"384 -88 CURVE SMOOTH",
"384 -40 OFFCURVE",
"416 -10 OFFCURVE",
"480 42 CURVE",
"392 0 LINE",
"348 -28 OFFCURVE",
"312 -68 OFFCURVE",
"312 -108 CURVE SMOOTH",
"312 -164 OFFCURVE",
"352 -190 OFFCURVE",
"416 -190 CURVE SMOOTH"
);
}
);
width = 636;
}
);
leftKerningGroup = U;
leftMetricsKey = U;
rightKerningGroup = U;
rightMetricsKey = U;
unicode = 0172;
},
{
color = 10;
glyphname = V;
lastChange = "2022-07-16 22:12:56 +0000";
layers = (
{
layerId = "8007C042-6FBA-4E49-99B8-8B738A4EBE86";
paths = (
{
closed = 1;
nodes = (
"338 0 LINE",
"572 650 LINE",
"482 650 LINE",
"292 102 LINE",
"96 650 LINE",
"4 650 LINE",
"242 0 LINE"
);
}
);
width = 576;
},
{
layerId = "ADDE491E-C0C4-4659-943C-53377B387F47";
paths = (
{
closed = 1;
nodes = (
"404 0 LINE",
"614 650 LINE",
"454 650 LINE",
"312 142 LINE",
"166 650 LINE",
"2 650 LINE",
"212 0 LINE"
);
}
);
width = 616;
},
{
layerId = "0CF550E6-48ED-4BA5-8C66-195B58FED074";
paths = (
{
closed = 1;
nodes = (
"468 0 LINE",
"660 650 LINE",
"428 650 LINE",
"336 186 LINE",
"234 650 LINE",
"0 650 LINE",
"188 0 LINE"
);
}
);
width = 660;
},
{
associatedMasterId = "0CF550E6-48ED-4BA5-8C66-195B58FED074";
layerId = "703658A5-02D6-45DA-8759-3BCCF0878B46";
name = "4 feb 22, 18:31";
paths = (
{
closed = 1;
nodes = (
"458 0 LINE",
"644 650 LINE",
"434 650 LINE",
"326 186 LINE",
"214 650 LINE",
"0 650 LINE",
"186 0 LINE"
);
}
);
width = 644;
},
{
components = (
{
name = inkstem_S;
transform = "{1, 0, 0, 1, 100, -14}";
},
{
name = inkstem_M;
transform = "{-0.9385, -0.34527, -0.34527, 0.9385, 333, 166}";
},
{
name = inkstem_S;
transform = "{1, 0, 0, 1, 280, -14}";
},
{
name = inkstem_S;
transform = "{1, 0, 0, 1, -30, 344}";
},
{
name = inkstem_M;
transform = "{0.9385, -0.34527, 0.34527, 0.9385, 246, 166}";
},
{
name = inkstem_S;
transform = "{1, 0, 0, 1, 407, 344}";
}
);
layerId = m004;
paths = (
{
closed = 1;
nodes = (
"338 0 LINE",
"572 650 LINE",
"482 650 LINE",
"305 140 LINE SMOOTH",
"303 134 OFFCURVE",
"305 128 OFFCURVE",
"310 124 CURVE SMOOTH",
"316 119 OFFCURVE",
"320 111 OFFCURVE",
"320 102 CURVE SMOOTH",
"320 86 OFFCURVE",
"308 74 OFFCURVE",
"292 74 CURVE SMOOTH",
"276 74 OFFCURVE",
"264 86 OFFCURVE",
"264 102 CURVE SMOOTH",
"264 111 OFFCURVE",
"267 119 OFFCURVE",
"274 124 CURVE SMOOTH",
"279 128 OFFCURVE",
"280 134 OFFCURVE",
"278 140 CURVE SMOOTH",
"96 650 LINE",
"4 650 LINE",
"242 0 LINE"
);
}
);
width = 576;
}
);
leftKerningGroup = V;
rightKerningGroup = V;
rightMetricsKey = "=|";
unicode = 0056;
},
{
color = 10;
glyphname = W;
lastChange = "2022-07-16 22:15:27 +0000";
layers = (
{
layerId = "8007C042-6FBA-4E49-99B8-8B738A4EBE86";
paths = (
{
closed = 1;
nodes = (
"246 0 LINE",
"382 520 LINE",
"514 0 LINE",
"628 0 LINE",
"720 650 LINE",
"634 650 LINE",
"564 108 LINE",
"430 648 LINE",
"338 648 LINE",
"198 108 LINE",
"128 650 LINE",
"40 650 LINE",
"130 0 LINE"
);
}
);
width = 760;
},
{
layerId = "ADDE491E-C0C4-4659-943C-53377B387F47";
paths = (
{
closed = 1;
nodes = (
"288 0 LINE",
"390 500 LINE",
"494 0 LINE",
"672 0 LINE",
"744 650 LINE",
"592 650 LINE",
"546 160 LINE",
"452 648 LINE",
"330 648 LINE",
"236 160 LINE",
"190 650 LINE",
"34 650 LINE",
"102 0 LINE"
);
}
);
width = 780;
},
{
layerId = "0CF550E6-48ED-4BA5-8C66-195B58FED074";
paths = (
{
closed = 1;
nodes = (
"334 0 LINE",
"396 492 LINE",
"460 0 LINE",
"696 0 LINE",
"764 650 LINE",
"550 650 LINE",
"524 192 LINE",
"458 648 LINE",
"334 648 LINE",
"276 192 LINE",
"242 650 LINE",
"24 650 LINE",
"88 0 LINE"
);
}
);
width = 792;
},
{
associatedMasterId = "0CF550E6-48ED-4BA5-8C66-195B58FED074";
layerId = "1E15B5BA-365E-4D77-BD4C-ABF0D1E7CEEC";
name = "22 feb 22, 18:04";
paths = (
{
closed = 1;
nodes = (
"340 0 LINE",
"397 480 LINE",
"456 0 LINE",
"698 0 LINE",
"764 650 LINE",
"548 650 LINE",
"532 212 LINE",
"460 648 LINE",
"332 648 LINE",
"268 212 LINE",
"244 650 LINE",
"24 650 LINE",
"84 0 LINE"
);
}
);
width = 792;
},
{
components = (
{
name = inkstem_S;
transform = "{1, 0, 0, 1, 38, -14}";
},
{
name = inkstem_S;
transform = "{1, 0, 0, 1, -9, 344}";
},
{
name = inkstem_S;
transform = "{1, 0, 0, 1, 521, -14}";
},
{
name = inkstem_S;
transform = "{1, 0, 0, 1, 569, 344}";
},
{
name = inkstem_L;
transform = "{0.97158, 0.23672, -0.23672, 0.97158, 439, 31}";
},
{
name = inkstem_L;
transform = "{0.96832, -0.24971, 0.24971, 0.96832, 127, 80}";
},
{
name = inkstem_M;
transform = "{0.99048, 0.13766, -0.13766, 0.99048, 57, 100}";
},
{
name = inkstem_M;
transform = "{0.99121, -0.13227, 0.13227, 0.99121, 506, 127}";
}
);
layerId = m004;
paths = (
{
closed = 1;
nodes = (
"246 0 LINE",
"371 478 LINE SMOOTH",
"373 485 OFFCURVE",
"371 493 OFFCURVE",
"364 498 CURVE SMOOTH",
"358 503 OFFCURVE",
"354 511 OFFCURVE",
"354 520 CURVE SMOOTH",
"354 536 OFFCURVE",
"366 548 OFFCURVE",
"382 548 CURVE SMOOTH",
"398 548 OFFCURVE",
"410 536 OFFCURVE",
"410 520 CURVE SMOOTH",
"410 511 OFFCURVE",
"407 503 OFFCURVE",
"400 498 CURVE SMOOTH",
"393 493 OFFCURVE",
"391 484 OFFCURVE",
"393 477 CURVE SMOOTH",
"514 0 LINE",
"628 0 LINE",
"720 650 LINE",
"634 650 LINE",
"570 152 LINE SMOOTH",
"568 140 OFFCURVE",
"571 136 OFFCURVE",
"577 133 CURVE SMOOTH",
"586 128 OFFCURVE",
"592 119 OFFCURVE",
"592 108 CURVE SMOOTH",
"592 92 OFFCURVE",
"580 80 OFFCURVE",
"564 80 CURVE SMOOTH",
"548 80 OFFCURVE",
"536 92 OFFCURVE",
"536 108 CURVE SMOOTH",
"536 117 OFFCURVE",
"540 125 OFFCURVE",
"546 130 CURVE SMOOTH",
"553 136 OFFCURVE",
"555 142 OFFCURVE",
"553 151 CURVE SMOOTH",
"430 648 LINE",
"338 648 LINE",
"209 151 LINE SMOOTH",
"207 142 OFFCURVE",
"209 136 OFFCURVE",
"216 130 CURVE SMOOTH",
"222 125 OFFCURVE",
"226 117 OFFCURVE",
"226 108 CURVE SMOOTH",
"226 92 OFFCURVE",
"214 80 OFFCURVE",
"198 80 CURVE SMOOTH",
"182 80 OFFCURVE",
"170 92 OFFCURVE",
"170 108 CURVE SMOOTH",
"170 119 OFFCURVE",
"176 128 OFFCURVE",
"185 133 CURVE SMOOTH",
"191 136 OFFCURVE",
"194 140 OFFCURVE",
"192 152 CURVE SMOOTH",
"128 650 LINE",
"40 650 LINE",
"130 0 LINE"
);
}
);
width = 760;
}
);
leftKerningGroup = W;
note = "make alternate";
rightKerningGroup = W;
unicode = 0057;
},
{
color = 10;
glyphname = X;
lastChange = "2022-07-16 22:12:57 +0000";
layers = (
{
layerId = "8007C042-6FBA-4E49-99B8-8B738A4EBE86";
paths = (
{
closed = 1;
nodes = (
"116 0 LINE",
"296 260 LINE",
"484 0 LINE",
"588 0 LINE",
"348 332 LINE",
"572 650 LINE",
"468 650 LINE",
"298 404 LINE",
"120 650 LINE",
"14 650 LINE",
"244 332 LINE",
"8 0 LINE"
);
}
);
width = 596;
},
{
layerId = "ADDE491E-C0C4-4659-943C-53377B387F47";
paths = (
{
closed = 1;
nodes = (
"196 0 LINE",
"312 208 LINE",
"426 0 LINE",
"620 0 LINE",
"394 332 LINE",
"604 650 LINE",
"416 650 LINE",
"312 448 LINE",
"200 650 LINE",
"8 650 LINE",
"230 326 LINE",
"4 0 LINE"
);
}
);
width = 624;
},
{
layerId = "0CF550E6-48ED-4BA5-8C66-195B58FED074";
paths = (
{
closed = 1;
nodes = (
"652 0 LINE",
"440 330 LINE",
"636 650 LINE",
"388 650 LINE",
"322 492 LINE",
"252 650 LINE",
"2 650 LINE",
"204 326 LINE",
"0 0 LINE",
"250 0 LINE",
"326 152 LINE",
"400 0 LINE"
);
}
);
width = 652;
},
{
components = (
{
name = inkstem_M;
transform = "{0.82377, -0.56693, 0.56693, 0.82377, -127, -100}";
},
{
name = inkstem_M;
transform = "{0.80902, 0.58779, -0.58779, 0.80902, 566, -212}";
},
{
name = inkstem_L;
transform = "{0.80946, 0.58718, -0.58718, 0.80946, 239, 243}";
},
{
name = inkstem_L;
transform = "{0.81723, -0.57631, 0.57631, 0.81723, 191, 356}";
}
);
layerId = m004;
paths = (
{
closed = 1;
nodes = (
"116 0 LINE",
"278 234 LINE SMOOTH",
"281 239 OFFCURVE",
"280 246 OFFCURVE",
"276 251 CURVE SMOOTH",
"272 256 OFFCURVE",
"269 263 OFFCURVE",
"269 270 CURVE SMOOTH",
"269 286 OFFCURVE",
"281 298 OFFCURVE",
"297 298 CURVE SMOOTH",
"313 298 OFFCURVE",
"325 286 OFFCURVE",
"325 270 CURVE SMOOTH",
"325 263 OFFCURVE",
"322 256 OFFCURVE",
"318 251 CURVE SMOOTH",
"312 245 OFFCURVE",
"312 238 OFFCURVE",
"316 232 CURVE SMOOTH",
"484 0 LINE",
"588 0 LINE",
"348 332 LINE",
"572 650 LINE",
"468 650 LINE",
"318 432 LINE SMOOTH",
"314 426 OFFCURVE",
"314 419 OFFCURVE",
"320 413 CURVE SMOOTH",
"324 408 OFFCURVE",
"327 401 OFFCURVE",
"327 394 CURVE SMOOTH",
"327 378 OFFCURVE",
"315 366 OFFCURVE",
"299 366 CURVE SMOOTH",
"283 366 OFFCURVE",
"271 378 OFFCURVE",
"271 394 CURVE SMOOTH",
"271 401 OFFCURVE",
"274 408 OFFCURVE",
"278 413 CURVE SMOOTH",
"282 418 OFFCURVE",
"283 424 OFFCURVE",
"280 429 CURVE SMOOTH",
"120 650 LINE",
"14 650 LINE",
"244 332 LINE",
"8 0 LINE"
);
}
);
width = 596;
}
);
leftKerningGroup = X;
rightKerningGroup = X;
rightMetricsKey = "=|";
unicode = 0058;
},
{
color = 10;
glyphname = Y;
lastChange = "2022-07-16 22:12:58 +0000";
layers = (
{
anchors = (
{
name = top;
position = "{288, 650}";
}
);
layerId = "8007C042-6FBA-4E49-99B8-8B738A4EBE86";
paths = (
{
closed = 1;
nodes = (
"331 0 LINE",
"331 196 LINE",
"558 650 LINE",
"462 650 LINE",
"289 296 LINE",
"100 650 LINE",
"2 650 LINE",
"247 196 LINE",
"247 0 LINE"
);
}
);
width = 560;
},
{
anchors = (
{
name = top;
position = "{312, 650}";
}
);
layerId = "ADDE491E-C0C4-4659-943C-53377B387F47";
paths = (
{
closed = 1;
nodes = (
"382 0 LINE",
"382 192 LINE",
"600 650 LINE",
"426 650 LINE",
"310 336 LINE",
"178 650 LINE",
"0 650 LINE",
"234 192 LINE",
"234 0 LINE"
);
}
);
width = 600;
},
{
anchors = (
{
name = top;
position = "{334, 650}";
}
);
layerId = "0CF550E6-48ED-4BA5-8C66-195B58FED074";
paths = (
{
closed = 1;
nodes = (
"436 0 LINE",
"436 200 LINE",
"646 650 LINE",
"402 650 LINE",
"332 388 LINE",
"246 650 LINE",
"-2 650 LINE",
"224 200 LINE",
"224 0 LINE"
);
}
);
width = 644;
},
{
anchors = (
{
name = top;
position = "{288, 650}";
}
);
components = (
{
name = inkstem_M;
transform = "{1, 0, 0, 1, 189, -196}";
},
{
name = inkstem_M;
transform = "{0.87928, 0.4763, -0.4763, 0.87928, 230, 106}";
},
{
name = inkstem_S;
transform = "{1, 0, 0, 1, -19, 344}";
},
{
name = inkstem_M;
transform = "{-0.89101, 0.45399, 0.45399, 0.89101, 348, 105}";
},
{
name = inkstem_S;
transform = "{1, 0, 0, 1, 382, 344}";
}
);
layerId = m004;
paths = (
{
closed = 1;
nodes = (
"331 0 LINE",
"331 196 LINE",
"558 650 LINE",
"462 650 LINE",
"306 331 LINE SMOOTH",
"304 326 OFFCURVE",
"305 320 OFFCURVE",
"310 315 CURVE SMOOTH",
"314 310 OFFCURVE",
"317 303 OFFCURVE",
"317 296 CURVE SMOOTH",
"317 280 OFFCURVE",
"305 268 OFFCURVE",
"289 268 CURVE SMOOTH",
"273 268 OFFCURVE",
"261 280 OFFCURVE",
"261 296 CURVE SMOOTH",
"261 303 OFFCURVE",
"264 310 OFFCURVE",
"268 315 CURVE SMOOTH",
"272 320 OFFCURVE",
"273 326 OFFCURVE",
"270 331 CURVE SMOOTH",
"100 650 LINE",
"2 650 LINE",
"247 196 LINE",
"247 0 LINE"
);
}
);
width = 560;
}
);
leftKerningGroup = Y;
rightKerningGroup = Y;
rightMetricsKey = "=|";
unicode = 0059;
},
{
color = 10;
glyphname = Z;
lastChange = "2022-07-16 22:12:59 +0000";
layers = (
{
anchors = (
{
name = top;
position = "{296, 650}";
}
);
layerId = "8007C042-6FBA-4E49-99B8-8B738A4EBE86";
paths = (
{
closed = 1;
nodes = (
"548 0 LINE",
"548 82 LINE",
"148 82 LINE",
"544 568 LINE",
"544 650 LINE",
"48 650 LINE",
"48 570 LINE",
"440 570 LINE",
"40 84 LINE",
"40 0 LINE"
);
}
);
width = 588;
},
{
anchors = (
{
name = top;
position = "{284, 650}";
}
);
layerId = "ADDE491E-C0C4-4659-943C-53377B387F47";
paths = (
{
closed = 1;
nodes = (
"536 0 LINE",
"536 142 LINE",
"192 142 LINE",
"530 514 LINE",
"530 650 LINE",
"40 650 LINE",
"40 510 LINE",
"374 510 LINE",
"32 138 LINE",
"32 0 LINE"
);
}
);
width = 568;
},
{
anchors = (
{
name = top;
position = "{286, 650}";
}
);
layerId = "0CF550E6-48ED-4BA5-8C66-195B58FED074";
paths = (
{
closed = 1;
nodes = (
"532 0 LINE",
"532 180 LINE",
"236 180 LINE",
"524 476 LINE",
"524 650 LINE",
"32 650 LINE",
"32 472 LINE",
"316 472 LINE",
"24 176 LINE",
"24 0 LINE"
);
}
);
width = 556;
},
{
anchors = (
{
name = top;
position = "{296, 650}";
}
);
components = (
{
name = inkstem_M;
transform = "{0, -1, 1, 0, 40, 142}";
},
{
name = inkstem_M;
transform = "{0.77715, -0.62932, 0.62932, 0.77715, -23, 95}";
},
{
name = inkstem_S;
transform = "{1, 0, 0, 1, 392, -208}";
},
{
name = inkstem_S;
transform = "{1, 0, 0, 1, 4, 360}";
},
{
name = inkstem_S;
transform = "{1, 0, 0, 1, 265, 165}";
},
{
name = inkstem_L;
transform = "{0, -1, 1, 0, -48, 710}";
}
);
layerId = m004;
paths = (
{
closed = 1;
nodes = (
"548 0 LINE",
"548 82 LINE",
"190 82 LINE SMOOTH",
"182 82 OFFCURVE",
"176 78 OFFCURVE",
"174 71 CURVE SMOOTH",
"170 61 OFFCURVE",
"160 54 OFFCURVE",
"148 54 CURVE SMOOTH",
"132 54 OFFCURVE",
"120 66 OFFCURVE",
"120 82 CURVE SMOOTH",
"120 98 OFFCURVE",
"132 110 OFFCURVE",
"148 110 CURVE SMOOTH",
"157 110 OFFCURVE",
"164 102 OFFCURVE",
"174 114 CURVE SMOOTH",
"544 568 LINE",
"544 650 LINE",
"48 650 LINE",
"48 570 LINE",
"400 570 LINE SMOOTH",
"408 570 OFFCURVE",
"412 574 OFFCURVE",
"414 581 CURVE SMOOTH",
"418 591 OFFCURVE",
"428 598 OFFCURVE",
"440 598 CURVE SMOOTH",
"456 598 OFFCURVE",
"468 586 OFFCURVE",
"468 570 CURVE SMOOTH",
"468 554 OFFCURVE",
"456 542 OFFCURVE",
"440 542 CURVE SMOOTH",
"429 542 OFFCURVE",
"423 550 OFFCURVE",
"412 536 CURVE SMOOTH",
"40 84 LINE",
"40 0 LINE"
);
}
);
width = 588;
}
);
leftKerningGroup = Z;
rightKerningGroup = Z;
rightMetricsKey = "=|";
unicode = 005A;
},
{
color = 10;
glyphname = a;
lastChange = "2022-07-22 14:50:58 +0000";
layers = (
{
anchors = (
{
name = ogonek;
position = "{428, 0}";
},
{
name = top;
position = "{246, 500}";
}
);
layerId = "8007C042-6FBA-4E49-99B8-8B738A4EBE86";
paths = (
{
closed = 1;
nodes = (
"302 -12 OFFCURVE",
"380 60 OFFCURVE",
"384 160 CURVE",
"356 204 LINE",
"356 124 OFFCURVE",
"296 66 OFFCURVE",
"212 66 CURVE SMOOTH",
"156 66 OFFCURVE",
"120 94 OFFCURVE",
"120 136 CURVE SMOOTH",
"120 172 OFFCURVE",
"148 200 OFFCURVE",
"192 208 CURVE SMOOTH",
"324 232 LINE SMOOTH",
"347 236 OFFCURVE",
"369 242 OFFCURVE",
"376 244 CURVE",
"356 258 LINE",
"356 100 LINE",
"374 0 LINE",
"438 0 LINE",
"436 100 LINE",
"436 328 LINE SMOOTH",
"436 435 OFFCURVE",
"358 512 OFFCURVE",
"248 512 CURVE SMOOTH",
"141 512 OFFCURVE",
"58 438 OFFCURVE",
"48 334 CURVE",
"136 324 LINE",
"140 394 OFFCURVE",
"188 440 OFFCURVE",
"252 440 CURVE SMOOTH",
"313 440 OFFCURVE",
"356 395 OFFCURVE",
"356 332 CURVE SMOOTH",
"356 316 OFFCURVE",
"343 303 OFFCURVE",
"326 300 CURVE SMOOTH",
"172 272 LINE SMOOTH",
"87 257 OFFCURVE",
"32 201 OFFCURVE",
"32 132 CURVE SMOOTH",
"32 45 OFFCURVE",
"97 -12 OFFCURVE",
"196 -12 CURVE SMOOTH"
);
}
);
width = 488;
},
{
anchors = (
{
name = ogonek;
position = "{440, 0}";
},
{
name = top;
position = "{254, 500}";
}
);
layerId = "ADDE491E-C0C4-4659-943C-53377B387F47";
paths = (
{
closed = 1;
nodes = (
"290 -12 OFFCURVE",
"366 57 OFFCURVE",
"370 152 CURVE",
"328 228 LINE",
"328 160 OFFCURVE",
"282 118 OFFCURVE",
"230 118 CURVE SMOOTH",
"194 118 OFFCURVE",
"174 137 OFFCURVE",
"174 164 CURVE SMOOTH",
"174 188 OFFCURVE",
"190 206 OFFCURVE",
"218 212 CURVE SMOOTH",
"294 228 LINE SMOOTH",
"313 232 OFFCURVE",
"342 240 OFFCURVE",
"348 244 CURVE",
"328 256 LINE",
"328 84 LINE",
"360 0 LINE",
"470 0 LINE",
"468 100 LINE",
"468 324 LINE SMOOTH",
"468 433 OFFCURVE",
"377 512 OFFCURVE",
"252 512 CURVE SMOOTH",
"155 512 OFFCURVE",
"69 452 OFFCURVE",
"46 368 CURVE",
"182 320 LINE",
"186 357 OFFCURVE",
"218 384 OFFCURVE",
"258 384 CURVE SMOOTH",
"299 384 OFFCURVE",
"328 359 OFFCURVE",
"328 324 CURVE SMOOTH",
"328 316 OFFCURVE",
"322 308 OFFCURVE",
"310 306 CURVE SMOOTH",
"146 272 LINE SMOOTH",
"76 257 OFFCURVE",
"26 200 OFFCURVE",
"26 136 CURVE SMOOTH",
"26 50 OFFCURVE",
"95 -12 OFFCURVE",
"190 -12 CURVE SMOOTH"
);
}
);
width = 512;
},
{
anchors = (
{
name = ogonek;
position = "{448, 0}";
},
{
name = top;
position = "{286, 500}";
}
);
layerId = "0CF550E6-48ED-4BA5-8C66-195B58FED074";
paths = (
{
closed = 1;
nodes = (
"286 -12 OFFCURVE",
"358 52 OFFCURVE",
"362 140 CURVE",
"316 208 LINE",
"316 169 OFFCURVE",
"297 144 OFFCURVE",
"268 144 CURVE SMOOTH",
"246 144 OFFCURVE",
"232 157 OFFCURVE",
"232 178 CURVE SMOOTH",
"232 197 OFFCURVE",
"245 212 OFFCURVE",
"266 216 CURVE SMOOTH",
"286 220 LINE SMOOTH",
"307 224 OFFCURVE",
"328 230 OFFCURVE",
"336 234 CURVE",
"316 250 LINE",
"316 84 LINE",
"348 0 LINE",
"518 0 LINE",
"516 100 LINE",
"516 308 LINE SMOOTH",
"516 428 OFFCURVE",
"420 512 OFFCURVE",
"276 512 CURVE SMOOTH",
"164 512 OFFCURVE",
"79 462 OFFCURVE",
"44 384 CURVE",
"236 316 LINE",
"240 343 OFFCURVE",
"258 360 OFFCURVE",
"282 360 CURVE SMOOTH",
"303 360 OFFCURVE",
"316 347 OFFCURVE",
"316 322 CURVE SMOOTH",
"316 312 OFFCURVE",
"310 304 OFFCURVE",
"300 302 CURVE SMOOTH",
"148 268 LINE SMOOTH",
"68 250 OFFCURVE",
"20 196 OFFCURVE",
"20 128 CURVE SMOOTH",
"20 46 OFFCURVE",
"90 -12 OFFCURVE",
"186 -12 CURVE SMOOTH"
);
}
);
width = 552;
},
{
anchors = (
{
name = ogonek;
position = "{480, 0}";
},
{
name = top;
position = "{278, 500}";
}
);
associatedMasterId = "0CF550E6-48ED-4BA5-8C66-195B58FED074";
layerId = "8EBCAF42-2BD2-4339-A83A-BF5DA41C1A10";
name = "22 feb 22, 17:12";
paths = (
{
closed = 1;
nodes = (
"510 0 LINE",
"508 100 LINE",
"508 308 LINE SMOOTH",
"508 428 OFFCURVE",
"412 512 OFFCURVE",
"268 512 CURVE SMOOTH",
"156 512 OFFCURVE",
"71 462 OFFCURVE",
"36 384 CURVE",
"228 310 LINE",
"232 338 OFFCURVE",
"251 356 OFFCURVE",
"276 356 CURVE SMOOTH",
"295 356 OFFCURVE",
"308 345 OFFCURVE",
"308 330 CURVE SMOOTH",
"308 84 LINE",
"340 0 LINE"
);
},
{
closed = 1;
nodes = (
"282 -12 OFFCURVE",
"350 47 OFFCURVE",
"354 140 CURVE",
"308 208 LINE",
"308 169 OFFCURVE",
"289 144 OFFCURVE",
"260 144 CURVE SMOOTH",
"238 144 OFFCURVE",
"224 157 OFFCURVE",
"224 176 CURVE SMOOTH",
"224 194 OFFCURVE",
"237 208 OFFCURVE",
"258 212 CURVE SMOOTH",
"278 216 LINE SMOOTH",
"299 220 OFFCURVE",
"308 222 OFFCURVE",
"308 224 CURVE",
"308 326 LINE",
"308 316 OFFCURVE",
"302 308 OFFCURVE",
"292 306 CURVE SMOOTH",
"144 276 LINE SMOOTH",
"64 260 OFFCURVE",
"12 204 OFFCURVE",
"12 132 CURVE SMOOTH",
"12 44 OFFCURVE",
"78 -12 OFFCURVE",
"180 -12 CURVE SMOOTH"
);
}
);
width = 544;
},
{
anchors = (
{
name = ogonek;
position = "{480, 0}";
},
{
name = top;
position = "{278, 512}";
}
);
associatedMasterId = "0CF550E6-48ED-4BA5-8C66-195B58FED074";
layerId = "BC953837-5B95-4851-B0A2-F8D90CDF58F5";
name = "31 gen 22, 15:13";
paths = (
{
closed = 1;
nodes = (
"510 0 LINE",
"508 100 LINE",
"508 308 LINE SMOOTH",
"508 428 OFFCURVE",
"412 512 OFFCURVE",
"268 512 CURVE SMOOTH",
"156 512 OFFCURVE",
"63 462 OFFCURVE",
"28 384 CURVE",
"224 312 LINE",
"224 344 OFFCURVE",
"242 364 OFFCURVE",
"270 364 CURVE SMOOTH",
"293 364 OFFCURVE",
"308 350 OFFCURVE",
"308 328 CURVE SMOOTH",
"308 84 LINE",
"340 0 LINE"
);
},
{
closed = 1;
nodes = (
"282 -12 OFFCURVE",
"350 47 OFFCURVE",
"354 140 CURVE",
"308 208 LINE",
"308 169 OFFCURVE",
"288 144 OFFCURVE",
"256 144 CURVE SMOOTH",
"234 144 OFFCURVE",
"220 157 OFFCURVE",
"220 176 CURVE SMOOTH",
"220 194 OFFCURVE",
"233 208 OFFCURVE",
"254 212 CURVE SMOOTH",
"274 216 LINE SMOOTH",
"295 220 OFFCURVE",
"308 223 OFFCURVE",
"308 224 CURVE",
"308 328 LINE",
"308 319 OFFCURVE",
"301 312 OFFCURVE",
"290 310 CURVE SMOOTH",
"144 280 LINE SMOOTH",
"64 264 OFFCURVE",
"12 208 OFFCURVE",
"12 136 CURVE SMOOTH",
"12 46 OFFCURVE",
"78 -12 OFFCURVE",
"180 -12 CURVE SMOOTH"
);
}
);
width = 540;
},
{
anchors = (
{
name = ogonek;
position = "{428, 0}";
},
{
name = top;
position = "{246, 500}";
}
);
components = (
{
name = inkstem_S;
transform = "{1, 0, 0, 1, -21, -120}";
},
{
name = inkcurve_L;
transform = "{0, 1, -1, 0, 492, -72}";
},
{
name = inkstem_S;
transform = "{1, 0, 0, 1, 7, 134}";
},
{
name = inkcurve_L;
transform = "{0, -1, 1, 0, -28, 576}";
},
{
name = inkstem_S;
transform = "{1, 0, 0, 1, 285, 134}";
},
{
name = inkstem_M;
transform = "{0.17365, -0.98481, 0.98481, 0.17365, -68, 298}";
}
);
layerId = m004;
paths = (
{
closed = 1;
nodes = (
"253 -12 OFFCURVE",
"302 8 OFFCURVE",
"334 42 CURVE SMOOTH",
"339 47 OFFCURVE",
"340 55 OFFCURVE",
"336 61 CURVE SMOOTH",
"333 65 OFFCURVE",
"332 70 OFFCURVE",
"332 76 CURVE SMOOTH",
"332 92 OFFCURVE",
"344 104 OFFCURVE",
"360 104 CURVE SMOOTH",
"376 104 OFFCURVE",
"388 92 OFFCURVE",
"388 76 CURVE SMOOTH",
"388 65 OFFCURVE",
"383 55 OFFCURVE",
"372 50 CURVE SMOOTH",
"368 48 OFFCURVE",
"366 43 OFFCURVE",
"367 37 CURVE SMOOTH",
"374 0 LINE",
"438 0 LINE",
"436 100 LINE",
"436 328 LINE SMOOTH",
"436 435 OFFCURVE",
"358 512 OFFCURVE",
"248 512 CURVE SMOOTH",
"141 512 OFFCURVE",
"58 438 OFFCURVE",
"48 334 CURVE",
"136 324 LINE",
"140 394 OFFCURVE",
"188 440 OFFCURVE",
"252 440 CURVE SMOOTH",
"313 440 OFFCURVE",
"356 395 OFFCURVE",
"356 332 CURVE SMOOTH",
"356 316 OFFCURVE",
"343 303 OFFCURVE",
"326 300 CURVE SMOOTH",
"172 272 LINE SMOOTH",
"87 257 OFFCURVE",
"32 201 OFFCURVE",
"32 132 CURVE SMOOTH",
"32 45 OFFCURVE",
"97 -12 OFFCURVE",
"196 -12 CURVE SMOOTH"
);
},
{
closed = 1;
nodes = (
"156 66 OFFCURVE",
"120 94 OFFCURVE",
"120 136 CURVE SMOOTH",
"120 172 OFFCURVE",
"148 200 OFFCURVE",
"192 208 CURVE SMOOTH",
"319 231 LINE SMOOTH",
"324 232 OFFCURVE",
"328 236 OFFCURVE",
"328 241 CURVE SMOOTH",
"329 256 OFFCURVE",
"341 267 OFFCURVE",
"356 267 CURVE SMOOTH",
"372 267 OFFCURVE",
"384 255 OFFCURVE",
"384 239 CURVE SMOOTH",
"384 225 OFFCURVE",
"375 215 OFFCURVE",
"363 212 CURVE SMOOTH",
"358 211 OFFCURVE",
"356 208 OFFCURVE",
"356 204 CURVE SMOOTH",
"356 124 OFFCURVE",
"296 66 OFFCURVE",
"212 66 CURVE SMOOTH"
);
},
{
closed = 0;
nodes = (
"356 211 LINE"
);
}
);
width = 488;
}
);
leftKerningGroup = a;
rightKerningGroup = n;
rightMetricsKey = "=n-2";
unicode = 0061;
},
{
glyphname = ae;
lastChange = "2022-07-28 20:06:21 +0000";
layers = (
{
layerId = "8007C042-6FBA-4E49-99B8-8B738A4EBE86";
paths = (
{
closed = 1;
nodes = (
"685 -12 OFFCURVE",
"774 51 OFFCURVE",
"794 140 CURVE",
"704 168 LINE",
"691 107 OFFCURVE",
"643 68 OFFCURVE",
"580 68 CURVE SMOOTH",
"493 68 OFFCURVE",
"432 140 OFFCURVE",
"432 250 CURVE SMOOTH",
"432 361 OFFCURVE",
"488 434 OFFCURVE",
"574 434 CURVE SMOOTH",
"646 434 OFFCURVE",
"700 379 OFFCURVE",
"712 295 CURVE",
"412 295 LINE",
"412 217 LINE",
"799 217 LINE",
"811 381 OFFCURVE",
"724 512 OFFCURVE",
"576 512 CURVE SMOOTH",
"491 512 OFFCURVE",
"423 468 OFFCURVE",
"384 400 CURVE",
"384 104 LINE",
"420 36 OFFCURVE",
"498 -12 OFFCURVE",
"582 -12 CURVE SMOOTH"
);
},
{
closed = 1;
nodes = (
"311 -12 OFFCURVE",
"392 54 OFFCURVE",
"408 144 CURVE",
"352 184 LINE",
"352 116 OFFCURVE",
"293 66 OFFCURVE",
"212 66 CURVE SMOOTH",
"156 66 OFFCURVE",
"116 98 OFFCURVE",
"116 142 CURVE SMOOTH",
"116 176 OFFCURVE",
"145 204 OFFCURVE",
"184 208 CURVE SMOOTH",
"352 224 LINE",
"352 316 LINE",
"352 302 OFFCURVE",
"347 294 OFFCURVE",
"328 292 CURVE SMOOTH",
"164 276 LINE SMOOTH",
"87 268 OFFCURVE",
"32 212 OFFCURVE",
"32 140 CURVE SMOOTH",
"32 52 OFFCURVE",
"105 -12 OFFCURVE",
"207 -12 CURVE SMOOTH"
);
},
{
closed = 1;
nodes = (
"432 100 LINE",
"432 332 LINE SMOOTH",
"432 441 OFFCURVE",
"358 512 OFFCURVE",
"244 512 CURVE SMOOTH",
"138 512 OFFCURVE",
"54 437 OFFCURVE",
"44 334 CURVE",
"132 320 LINE",
"134 390 OFFCURVE",
"182 436 OFFCURVE",
"246 436 CURVE SMOOTH",
"307 436 OFFCURVE",
"352 395 OFFCURVE",
"352 332 CURVE SMOOTH",
"352 100 LINE"
);
}
);
width = 832;
},
{
background = {
paths = (
{
closed = 1;
nodes = (
"631 -14 OFFCURVE",
"720 46 OFFCURVE",
"752 130 CURVE",
"616 174 LINE",
"608 139 OFFCURVE",
"579 116 OFFCURVE",
"542 116 CURVE SMOOTH",
"485 116 OFFCURVE",
"446 172 OFFCURVE",
"446 252 CURVE SMOOTH",
"446 327 OFFCURVE",
"482 380 OFFCURVE",
"534 380 CURVE SMOOTH",
"574 380 OFFCURVE",
"608 348 OFFCURVE",
"614 292 CURVE",
"424 292 LINE",
"424 220 LINE",
"754 220 LINE",
"755 228 OFFCURVE",
"756 240 OFFCURVE",
"756 252 CURVE SMOOTH",
"756 404 OFFCURVE",
"664 510 OFFCURVE",
"536 510 CURVE SMOOTH",
"456 510 OFFCURVE",
"384 465 OFFCURVE",
"356 401 CURVE",
"356 95 LINE",
"384 31 OFFCURVE",
"460 -14 OFFCURVE",
"540 -14 CURVE SMOOTH"
);
}
);
};
layerId = "ADDE491E-C0C4-4659-943C-53377B387F47";
paths = (
{
closed = 1;
nodes = (
"631 -14 OFFCURVE",
"720 46 OFFCURVE",
"752 130 CURVE",
"616 174 LINE",
"608 139 OFFCURVE",
"579 116 OFFCURVE",
"542 116 CURVE SMOOTH",
"485 116 OFFCURVE",
"446 172 OFFCURVE",
"446 252 CURVE SMOOTH",
"446 327 OFFCURVE",
"482 380 OFFCURVE",
"534 380 CURVE SMOOTH",
"574 380 OFFCURVE",
"608 348 OFFCURVE",
"614 292 CURVE",
"424 292 LINE",
"424 220 LINE",
"754 220 LINE",
"772 382 OFFCURVE",
"676 510 OFFCURVE",
"536 510 CURVE SMOOTH",
"456 510 OFFCURVE",
"384 465 OFFCURVE",
"356 401 CURVE",
"356 95 LINE",
"384 31 OFFCURVE",
"460 -14 OFFCURVE",
"540 -14 CURVE SMOOTH"
);
},
{
closed = 1;
nodes = (
"304 -12 OFFCURVE",
"390 48 OFFCURVE",
"406 132 CURVE",
"304 200 LINE",
"304 152 OFFCURVE",
"270 118 OFFCURVE",
"222 118 CURVE SMOOTH",
"187 118 OFFCURVE",
"162 137 OFFCURVE",
"162 164 CURVE SMOOTH",
"162 188 OFFCURVE",
"182 208 OFFCURVE",
"210 212 CURVE SMOOTH",
"304 224 LINE",
"304 316 LINE",
"304 302 OFFCURVE",
"299 295 OFFCURVE",
"280 292 CURVE SMOOTH",
"162 276 LINE SMOOTH",
"83 265 OFFCURVE",
"26 205 OFFCURVE",
"26 132 CURVE SMOOTH",
"26 48 OFFCURVE",
"97 -12 OFFCURVE",
"194 -12 CURVE SMOOTH"
);
},
{
closed = 1;
nodes = (
"444 100 LINE",
"444 324 LINE SMOOTH",
"444 433 OFFCURVE",
"357 512 OFFCURVE",
"232 512 CURVE SMOOTH",
"135 512 OFFCURVE",
"53 452 OFFCURVE",
"30 368 CURVE",
"166 320 LINE",
"170 357 OFFCURVE",
"198 384 OFFCURVE",
"238 384 CURVE SMOOTH",
"279 384 OFFCURVE",
"304 359 OFFCURVE",
"304 324 CURVE SMOOTH",
"304 100 LINE"
);
}
);
width = 782;
},
{
background = {
paths = (
{
closed = 1;
nodes = (
"658 -12 OFFCURVE",
"748 43 OFFCURVE",
"776 120 CURVE",
"604 192 LINE",
"598 168 OFFCURVE",
"578 152 OFFCURVE",
"554 152 CURVE SMOOTH",
"515 152 OFFCURVE",
"490 193 OFFCURVE",
"490 256 CURVE SMOOTH",
"490 314 OFFCURVE",
"513 352 OFFCURVE",
"550 352 CURVE SMOOTH",
"579 352 OFFCURVE",
"598 328 OFFCURVE",
"602 288 CURVE",
"470 288 LINE",
"470 220 LINE",
"782 220 LINE",
"783 230 OFFCURVE",
"784 242 OFFCURVE",
"784 256 CURVE SMOOTH",
"784 406 OFFCURVE",
"688 512 OFFCURVE",
"552 512 CURVE SMOOTH",
"474 512 OFFCURVE",
"410 480 OFFCURVE",
"370 420 CURVE",
"370 84 LINE",
"410 24 OFFCURVE",
"477 -12 OFFCURVE",
"558 -12 CURVE SMOOTH"
);
}
);
};
layerId = "0CF550E6-48ED-4BA5-8C66-195B58FED074";
paths = (
{
closed = 1;
nodes = (
"658 -12 OFFCURVE",
"748 43 OFFCURVE",
"776 120 CURVE",
"604 192 LINE",
"598 168 OFFCURVE",
"578 152 OFFCURVE",
"554 152 CURVE SMOOTH",
"515 152 OFFCURVE",
"490 193 OFFCURVE",
"490 256 CURVE SMOOTH",
"490 314 OFFCURVE",
"513 352 OFFCURVE",
"550 352 CURVE SMOOTH",
"579 352 OFFCURVE",
"598 328 OFFCURVE",
"602 288 CURVE",
"470 288 LINE",
"470 220 LINE",
"782 220 LINE",
"798 388 OFFCURVE",
"700 512 OFFCURVE",
"552 512 CURVE SMOOTH",
"474 512 OFFCURVE",
"410 480 OFFCURVE",
"370 420 CURVE",
"370 84 LINE",
"410 24 OFFCURVE",
"477 -12 OFFCURVE",
"558 -12 CURVE SMOOTH"
);
},
{
closed = 1;
nodes = (
"310 -12 OFFCURVE",
"398 51 OFFCURVE",
"416 140 CURVE",
"292 204 LINE",
"292 167 OFFCURVE",
"275 144 OFFCURVE",
"248 144 CURVE SMOOTH",
"229 144 OFFCURVE",
"216 157 OFFCURVE",
"216 178 CURVE SMOOTH",
"216 199 OFFCURVE",
"232 213 OFFCURVE",
"256 216 CURVE SMOOTH",
"292 220 LINE",
"292 314 LINE",
"292 304 OFFCURVE",
"286 296 OFFCURVE",
"276 294 CURVE SMOOTH",
"140 272 LINE SMOOTH",
"67 260 OFFCURVE",
"20 207 OFFCURVE",
"20 136 CURVE SMOOTH",
"20 49 OFFCURVE",
"96 -12 OFFCURVE",
"204 -12 CURVE SMOOTH"
);
},
{
closed = 1;
nodes = (
"490 100 LINE",
"490 308 LINE SMOOTH",
"490 428 OFFCURVE",
"400 512 OFFCURVE",
"256 512 CURVE SMOOTH",
"144 512 OFFCURVE",
"63 462 OFFCURVE",
"28 384 CURVE",
"216 316 LINE",
"220 343 OFFCURVE",
"236 360 OFFCURVE",
"260 360 CURVE SMOOTH",
"281 360 OFFCURVE",
"292 347 OFFCURVE",
"292 328 CURVE SMOOTH",
"292 100 LINE"
);
}
);
width = 804;
},
{
components = (
{
name = inkcurve_L;
transform = "{0, 1, 1, 0, 304, -72}";
},
{
name = inkstem_S;
transform = "{1, 0, 0, 1, 622, -152}";
},
{
name = inkstem_S;
transform = "{1, 0, 0, 1, 480, 6}";
},
{
name = inkcurve_L;
transform = "{0, -1, 1, 0, 298, 573}";
},
{
name = inkstem_S;
transform = "{1, 0, 0, 1, 608, 158}";
},
{
name = inkstem_S;
transform = "{1, 0, 0, 1, -24, -116}";
},
{
name = inkcurve_L;
transform = "{0, 1, -1, 0, 492, -72}";
},
{
name = inkstem_S;
transform = "{1, 0, 0, 1, 3, 134}";
},
{
name = inkcurve_L;
transform = "{0, -1, 1, 0, -32, 575}";
},
{
name = inkstem_L;
transform = "{0.09932, -0.99506, 0.99506, 0.09932, -88, 316}";
}
);
layerId = m004;
paths = (
{
closed = 1;
nodes = (
"273 -12 OFFCURVE",
"329 14 OFFCURVE",
"366 57 CURVE SMOOTH",
"371 64 OFFCURVE",
"370 71 OFFCURVE",
"366 80 CURVE SMOOTH",
"364 84 OFFCURVE",
"363 88 OFFCURVE",
"363 93 CURVE SMOOTH",
"363 109 OFFCURVE",
"375 121 OFFCURVE",
"391 121 CURVE SMOOTH",
"407 121 OFFCURVE",
"419 109 OFFCURVE",
"419 93 CURVE SMOOTH",
"419 88 OFFCURVE",
"418 84 OFFCURVE",
"416 80 CURVE SMOOTH",
"412 71 OFFCURVE",
"411 66 OFFCURVE",
"418 58 CURVE SMOOTH",
"459 15 OFFCURVE",
"519 -12 OFFCURVE",
"582 -12 CURVE SMOOTH",
"685 -12 OFFCURVE",
"774 51 OFFCURVE",
"794 140 CURVE",
"704 168 LINE",
"691 107 OFFCURVE",
"643 68 OFFCURVE",
"580 68 CURVE SMOOTH",
"516 68 OFFCURVE",
"466 107 OFFCURVE",
"444 172 CURVE SMOOTH",
"441 180 OFFCURVE",
"435 187 OFFCURVE",
"424 190 CURVE SMOOTH",
"412 193 OFFCURVE",
"404 203 OFFCURVE",
"404 217 CURVE SMOOTH",
"404 233 OFFCURVE",
"416 245 OFFCURVE",
"432 245 CURVE SMOOTH",
"444 245 OFFCURVE",
"454 238 OFFCURVE",
"458 228 CURVE SMOOTH",
"460 221 OFFCURVE",
"466 217 OFFCURVE",
"474 217 CURVE SMOOTH",
"799 217 LINE",
"811 381 OFFCURVE",
"724 512 OFFCURVE",
"576 512 CURVE SMOOTH",
"524 512 OFFCURVE",
"478 495 OFFCURVE",
"442 467 CURVE SMOOTH",
"432 460 OFFCURVE",
"430 450 OFFCURVE",
"433 440 CURVE SMOOTH",
"434 437 OFFCURVE",
"434 435 OFFCURVE",
"434 432 CURVE SMOOTH",
"434 416 OFFCURVE",
"422 404 OFFCURVE",
"406 404 CURVE SMOOTH",
"390 404 OFFCURVE",
"378 416 OFFCURVE",
"378 432 CURVE SMOOTH",
"378 436 OFFCURVE",
"379 440 OFFCURVE",
"380 443 CURVE SMOOTH",
"384 452 OFFCURVE",
"381 463 OFFCURVE",
"374 469 CURVE SMOOTH",
"342 496 OFFCURVE",
"297 512 OFFCURVE",
"244 512 CURVE SMOOTH",
"138 512 OFFCURVE",
"54 437 OFFCURVE",
"44 334 CURVE",
"132 320 LINE",
"134 390 OFFCURVE",
"182 436 OFFCURVE",
"246 436 CURVE SMOOTH",
"307 436 OFFCURVE",
"352 395 OFFCURVE",
"352 332 CURVE SMOOTH",
"352 316 LINE SMOOTH",
"352 302 OFFCURVE",
"347 294 OFFCURVE",
"328 292 CURVE SMOOTH",
"164 276 LINE SMOOTH",
"87 268 OFFCURVE",
"32 212 OFFCURVE",
"32 140 CURVE SMOOTH",
"32 52 OFFCURVE",
"105 -12 OFFCURVE",
"207 -12 CURVE SMOOTH"
);
},
{
closed = 1;
nodes = (
"156 66 OFFCURVE",
"116 98 OFFCURVE",
"116 142 CURVE SMOOTH",
"116 176 OFFCURVE",
"145 204 OFFCURVE",
"184 208 CURVE SMOOTH",
"352 224 LINE",
"352 184 LINE SMOOTH",
"352 116 OFFCURVE",
"293 66 OFFCURVE",
"212 66 CURVE SMOOTH"
);
},
{
closed = 1;
nodes = (
"416 267 OFFCURVE",
"404 279 OFFCURVE",
"404 295 CURVE SMOOTH",
"404 310 OFFCURVE",
"414 321 OFFCURVE",
"428 323 CURVE SMOOTH",
"436 324 OFFCURVE",
"443 329 OFFCURVE",
"445 335 CURVE SMOOTH",
"467 397 OFFCURVE",
"513 434 OFFCURVE",
"574 434 CURVE SMOOTH",
"634 434 OFFCURVE",
"681 396 OFFCURVE",
"702 335 CURVE SMOOTH",
"704 329 OFFCURVE",
"711 324 OFFCURVE",
"719 323 CURVE SMOOTH",
"733 321 OFFCURVE",
"743 310 OFFCURVE",
"743 295 CURVE SMOOTH",
"743 279 OFFCURVE",
"731 267 OFFCURVE",
"715 267 CURVE SMOOTH",
"703 267 OFFCURVE",
"693 274 OFFCURVE",
"689 284 CURVE SMOOTH",
"687 291 OFFCURVE",
"681 295 OFFCURVE",
"673 295 CURVE SMOOTH",
"474 295 LINE SMOOTH",
"466 295 OFFCURVE",
"460 291 OFFCURVE",
"458 284 CURVE SMOOTH",
"454 274 OFFCURVE",
"444 267 OFFCURVE",
"432 267 CURVE SMOOTH"
);
}
);
width = 832;
}
);
leftKerningGroup = a;
leftMetricsKey = a;
rightKerningGroup = o;
rightMetricsKey = e;
unicode = 00E6;
},
{
glyphname = b;
lastChange = "2022-07-17 10:21:33 +0000";
layers = (
{
layerId = "8007C042-6FBA-4E49-99B8-8B738A4EBE86";
paths = (
{
closed = 1;
nodes = (
"460 -12 OFFCURVE",
"558 98 OFFCURVE",
"558 252 CURVE SMOOTH",
"558 404 OFFCURVE",
"461 512 OFFCURVE",
"326 512 CURVE SMOOTH",
"190 512 OFFCURVE",
"92 404 OFFCURVE",
"92 252 CURVE SMOOTH",
"92 98 OFFCURVE",
"189 -12 OFFCURVE",
"324 -12 CURVE SMOOTH"
);
},
{
closed = 1;
nodes = (
"132 0 LINE",
"144 100 LINE",
"118 250 LINE",
"144 370 LINE",
"144 680 LINE",
"64 680 LINE",
"64 0 LINE"
);
},
{
closed = 1;
nodes = (
"211 68 OFFCURVE",
"142 144 OFFCURVE",
"142 250 CURVE SMOOTH",
"142 357 OFFCURVE",
"211 434 OFFCURVE",
"308 434 CURVE SMOOTH",
"405 434 OFFCURVE",
"474 357 OFFCURVE",
"474 250 CURVE SMOOTH",
"474 144 OFFCURVE",
"405 68 OFFCURVE",
"308 68 CURVE SMOOTH"
);
}
);
width = 590;
},
{
layerId = "ADDE491E-C0C4-4659-943C-53377B387F47";
paths = (
{
closed = 1;
nodes = (
"464 -12 OFFCURVE",
"552 98 OFFCURVE",
"552 252 CURVE SMOOTH",
"552 404 OFFCURVE",
"464 512 OFFCURVE",
"340 512 CURVE SMOOTH",
"218 512 OFFCURVE",
"130 404 OFFCURVE",
"130 252 CURVE SMOOTH",
"130 98 OFFCURVE",
"218 -12 OFFCURVE",
"342 -12 CURVE SMOOTH"
);
},
{
closed = 1;
nodes = (
"158 0 LINE",
"190 84 LINE",
"170 251 LINE",
"190 403 LINE",
"190 680 LINE",
"50 680 LINE",
"50 0 LINE"
);
},
{
closed = 1;
nodes = (
"236 124 OFFCURVE",
"190 177 OFFCURVE",
"190 251 CURVE SMOOTH",
"190 325 OFFCURVE",
"236 378 OFFCURVE",
"300 378 CURVE SMOOTH",
"364 378 OFFCURVE",
"410 325 OFFCURVE",
"410 251 CURVE SMOOTH",
"410 177 OFFCURVE",
"364 124 OFFCURVE",
"300 124 CURVE SMOOTH"
);
}
);
width = 578;
},
{
layerId = "0CF550E6-48ED-4BA5-8C66-195B58FED074";
paths = (
{
closed = 1;
nodes = (
"483 -12 OFFCURVE",
"570 97 OFFCURVE",
"570 252 CURVE SMOOTH",
"570 404 OFFCURVE",
"483 512 OFFCURVE",
"360 512 CURVE SMOOTH",
"237 512 OFFCURVE",
"150 403 OFFCURVE",
"150 248 CURVE SMOOTH",
"150 96 OFFCURVE",
"237 -12 OFFCURVE",
"360 -12 CURVE SMOOTH"
);
},
{
closed = 1;
nodes = (
"190 0 LINE",
"242 68 LINE",
"222 251 LINE",
"242 403 LINE",
"242 680 LINE",
"42 680 LINE",
"42 0 LINE"
);
},
{
closed = 1;
nodes = (
"261 166 OFFCURVE",
"232 199 OFFCURVE",
"232 251 CURVE SMOOTH",
"232 303 OFFCURVE",
"261 336 OFFCURVE",
"306 336 CURVE SMOOTH",
"351 336 OFFCURVE",
"380 303 OFFCURVE",
"380 251 CURVE SMOOTH",
"380 199 OFFCURVE",
"351 166 OFFCURVE",
"306 166 CURVE SMOOTH"
);
}
);
width = 590;
},
{
components = (
{
name = inkcurve_L;
transform = "{0, 1, 1, 0, 39, -72}";
},
{
name = inkstem_S;
transform = "{1, 0, 0, 1, 362, -156}";
},
{
name = inkcurve_L;
transform = "{-1, 0, 0, 1, 616, -28}";
},
{
name = inkcurve_L;
transform = "{0, -1, 1, 0, 27, 573}";
},
{
name = inkstem_S;
transform = "{1, 0, 0, 1, 356, 164}";
},
{
name = inkstem_M;
transform = "{1, 0, 0, 1, 3, -28}";
},
{
name = inkstem_L;
transform = "{1, 0, 0, 1, 4, 256}";
}
);
layerId = m004;
paths = (
{
closed = 1;
nodes = (
"460 -12 OFFCURVE",
"558 98 OFFCURVE",
"558 252 CURVE SMOOTH",
"558 404 OFFCURVE",
"461 512 OFFCURVE",
"326 512 CURVE SMOOTH",
"266 512 OFFCURVE",
"211 490 OFFCURVE",
"173 454 CURVE SMOOTH",
"163 445 OFFCURVE",
"172 434 OFFCURVE",
"172 422 CURVE SMOOTH",
"172 406 OFFCURVE",
"160 394 OFFCURVE",
"144 394 CURVE SMOOTH",
"128 394 OFFCURVE",
"116 406 OFFCURVE",
"116 422 CURVE SMOOTH",
"116 433 OFFCURVE",
"122 442 OFFCURVE",
"131 447 CURVE SMOOTH",
"139 451 OFFCURVE",
"144 458 OFFCURVE",
"144 466 CURVE SMOOTH",
"144 680 LINE",
"64 680 LINE",
"64 0 LINE",
"132 0 LINE",
"136 38 LINE SMOOTH",
"137 50 OFFCURVE",
"134 53 OFFCURVE",
"127 58 CURVE SMOOTH",
"119 63 OFFCURVE",
"114 72 OFFCURVE",
"114 82 CURVE SMOOTH",
"114 98 OFFCURVE",
"126 110 OFFCURVE",
"142 110 CURVE SMOOTH",
"158 110 OFFCURVE",
"170 98 OFFCURVE",
"170 82 CURVE SMOOTH",
"170 78 OFFCURVE",
"169 74 OFFCURVE",
"168 71 CURVE SMOOTH",
"165 62 OFFCURVE",
"166 53 OFFCURVE",
"172 47 CURVE SMOOTH",
"212 9 OFFCURVE",
"264 -12 OFFCURVE",
"324 -12 CURVE SMOOTH"
);
},
{
closed = 1;
nodes = (
"211 68 OFFCURVE",
"142 144 OFFCURVE",
"142 250 CURVE SMOOTH",
"142 357 OFFCURVE",
"211 434 OFFCURVE",
"308 434 CURVE SMOOTH",
"405 434 OFFCURVE",
"474 357 OFFCURVE",
"474 250 CURVE SMOOTH",
"474 144 OFFCURVE",
"405 68 OFFCURVE",
"308 68 CURVE SMOOTH"
);
}
);
width = 590;
}
);
leftKerningGroup = l;
leftMetricsKey = l;
rightKerningGroup = o;
rightMetricsKey = o;
unicode = 0062;
},
{
color = 10;
glyphname = c;
lastChange = "2022-07-17 10:18:40 +0000";
layers = (
{
anchors = (
{
name = bottom;
position = "{268, 0}";
},
{
name = top;
position = "{272, 500}";
}
);
layerId = "8007C042-6FBA-4E49-99B8-8B738A4EBE86";
paths = (
{
closed = 1;
nodes = (
"393 -12 OFFCURVE",
"488 65 OFFCURVE",
"504 172 CURVE",
"416 200 LINE",
"408 120 OFFCURVE",
"352 68 OFFCURVE",
"276 68 CURVE SMOOTH",
"184 68 OFFCURVE",
"118 144 OFFCURVE",
"118 252 CURVE SMOOTH",
"118 358 OFFCURVE",
"182 434 OFFCURVE",
"272 434 CURVE SMOOTH",
"346 434 OFFCURVE",
"404 381 OFFCURVE",
"412 308 CURVE",
"496 336 LINE",
"480 439 OFFCURVE",
"387 512 OFFCURVE",
"272 512 CURVE SMOOTH",
"132 512 OFFCURVE",
"32 403 OFFCURVE",
"32 250 CURVE SMOOTH",
"32 97 OFFCURVE",
"134 -12 OFFCURVE",
"276 -12 CURVE SMOOTH"
);
}
);
width = 532;
},
{
anchors = (
{
name = bottom;
position = "{268, 0}";
},
{
name = top;
position = "{274, 500}";
}
);
layerId = "ADDE491E-C0C4-4659-943C-53377B387F47";
paths = (
{
closed = 1;
nodes = (
"394 -12 OFFCURVE",
"488 56 OFFCURVE",
"508 172 CURVE",
"372 214 LINE",
"366 158 OFFCURVE",
"325 122 OFFCURVE",
"276 122 CURVE SMOOTH",
"216 122 OFFCURVE",
"172 175 OFFCURVE",
"172 250 CURVE SMOOTH",
"172 325 OFFCURVE",
"214 380 OFFCURVE",
"274 380 CURVE SMOOTH",
"320 380 OFFCURVE",
"356 348 OFFCURVE",
"368 294 CURVE",
"500 332 LINE",
"488 437 OFFCURVE",
"395 512 OFFCURVE",
"276 512 CURVE SMOOTH",
"130 512 OFFCURVE",
"26 403 OFFCURVE",
"26 248 CURVE SMOOTH",
"26 96 OFFCURVE",
"130 -12 OFFCURVE",
"276 -12 CURVE SMOOTH"
);
}
);
width = 532;
},
{
anchors = (
{
name = bottom;
position = "{272, 0}";
},
{
name = top;
position = "{276, 500}";
}
);
layerId = "0CF550E6-48ED-4BA5-8C66-195B58FED074";
paths = (
{
closed = 1;
nodes = (
"398 -12 OFFCURVE",
"498 64 OFFCURVE",
"518 172 CURVE",
"344 236 LINE",
"340 197 OFFCURVE",
"315 172 OFFCURVE",
"280 172 CURVE SMOOTH",
"240 172 OFFCURVE",
"214 203 OFFCURVE",
"214 252 CURVE SMOOTH",
"214 299 OFFCURVE",
"240 330 OFFCURVE",
"280 330 CURVE SMOOTH",
"313 330 OFFCURVE",
"336 309 OFFCURVE",
"338 276 CURVE",
"510 324 LINE",
"494 436 OFFCURVE",
"400 512 OFFCURVE",
"280 512 CURVE SMOOTH",
"128 512 OFFCURVE",
"20 403 OFFCURVE",
"20 250 CURVE SMOOTH",
"20 98 OFFCURVE",
"126 -12 OFFCURVE",
"274 -12 CURVE SMOOTH"
);
}
);
width = 534;
},
{
anchors = (
{
name = top;
position = "{274, 500}";
}
);
associatedMasterId = "0CF550E6-48ED-4BA5-8C66-195B58FED074";
layerId = "4337AB0E-E05F-40B1-97FE-E96E0986FA42";
name = "22 feb 22, 17:19";
paths = (
{
closed = 1;
nodes = (
"400 -12 OFFCURVE",
"502 60 OFFCURVE",
"518 172 CURVE",
"342 236 LINE",
"338 197 OFFCURVE",
"313 172 OFFCURVE",
"278 172 CURVE SMOOTH",
"238 172 OFFCURVE",
"212 203 OFFCURVE",
"212 252 CURVE SMOOTH",
"212 299 OFFCURVE",
"238 330 OFFCURVE",
"278 330 CURVE SMOOTH",
"311 330 OFFCURVE",
"334 309 OFFCURVE",
"336 276 CURVE",
"510 324 LINE",
"494 436 OFFCURVE",
"398 512 OFFCURVE",
"278 512 CURVE SMOOTH",
"126 512 OFFCURVE",
"18 403 OFFCURVE",
"18 250 CURVE SMOOTH",
"18 97 OFFCURVE",
"125 -12 OFFCURVE",
"276 -12 CURVE SMOOTH"
);
}
);
width = 534;
},
{
associatedMasterId = "0CF550E6-48ED-4BA5-8C66-195B58FED074";
layerId = "03B77A18-2BCA-41FF-BCB1-5E7D9FD91DE6";
name = "31 gen 22, 15:09";
paths = (
{
closed = 1;
nodes = (
"402 -12 OFFCURVE",
"504 54 OFFCURVE",
"528 148 CURVE",
"352 212 LINE",
"348 177 OFFCURVE",
"323 154 OFFCURVE",
"288 154 CURVE SMOOTH",
"242 154 OFFCURVE",
"212 192 OFFCURVE",
"212 252 CURVE SMOOTH",
"212 310 OFFCURVE",
"239 348 OFFCURVE",
"282 348 CURVE SMOOTH",
"314 348 OFFCURVE",
"336 326 OFFCURVE",
"340 292 CURVE",
"524 328 LINE",
"504 436 OFFCURVE",
"412 512 OFFCURVE",
"284 512 CURVE SMOOTH",
"129 512 OFFCURVE",
"20 402 OFFCURVE",
"20 250 CURVE SMOOTH",
"20 98 OFFCURVE",
"128 -12 OFFCURVE",
"284 -12 CURVE SMOOTH"
);
}
);
width = 544;
},
{
anchors = (
{
name = bottom;
position = "{268, 0}";
},
{
name = top;
position = "{272, 500}";
}
);
components = (
{
name = inkcurve_L;
transform = "{1, 0, 0, 1, -27, -28}";
},
{
name = inkcurve_L;
transform = "{0, -1, 1, 0, -4, 573}";
},
{
name = inkcurve_L;
transform = "{0, 1, 1, 0, 0, -72}";
},
{
name = inkstem_S;
transform = "{1, 0, 0, 1, 32, -160}";
},
{
name = inkstem_S;
transform = "{1, 0, 0, 1, 342, -119}";
},
{
name = inkstem_S;
transform = "{1, 0, 0, 1, 32, 158}";
},
{
name = inkstem_S;
transform = "{1, 0, 0, 1, 334, 128}";
}
);
layerId = m004;
paths = (
{
closed = 1;
nodes = (
"393 -12 OFFCURVE",
"488 65 OFFCURVE",
"504 172 CURVE",
"416 200 LINE",
"408 120 OFFCURVE",
"352 68 OFFCURVE",
"276 68 CURVE SMOOTH",
"184 68 OFFCURVE",
"118 144 OFFCURVE",
"118 252 CURVE SMOOTH",
"118 358 OFFCURVE",
"182 434 OFFCURVE",
"272 434 CURVE SMOOTH",
"346 434 OFFCURVE",
"404 381 OFFCURVE",
"412 308 CURVE",
"496 336 LINE",
"480 439 OFFCURVE",
"387 512 OFFCURVE",
"272 512 CURVE SMOOTH",
"132 512 OFFCURVE",
"32 403 OFFCURVE",
"32 250 CURVE SMOOTH",
"32 97 OFFCURVE",
"134 -12 OFFCURVE",
"276 -12 CURVE SMOOTH"
);
}
);
width = 532;
}
);
leftKerningGroup = o;
leftMetricsKey = o;
rightKerningGroup = c;
unicode = 0063;
},
{
glyphname = ccedilla;
lastChange = "2022-07-27 19:48:23 +0000";
layers = (
{
components = (
{
name = c;
},
{
name = cedillacomb;
transform = "{1, 0, 0, 1, -32, 0}";
}
);
layerId = "8007C042-6FBA-4E49-99B8-8B738A4EBE86";
width = 532;
},
{
components = (
{
name = c;
},
{
name = cedillacomb;
transform = "{1, 0, 0, 1, -32, 0}";
}
);
layerId = "ADDE491E-C0C4-4659-943C-53377B387F47";
width = 532;
},
{
components = (
{
name = c;
},
{
name = cedillacomb;
transform = "{1, 0, 0, 1, -28, 0}";
}
);
layerId = "0CF550E6-48ED-4BA5-8C66-195B58FED074";
width = 534;
},
{
components = (
{
name = c;
}
);
layerId = m004;
paths = (
{
closed = 1;
nodes = (
"292 -209 OFFCURVE",
"360 -180 OFFCURVE",
"360 -124 CURVE SMOOTH",
"360 -84 OFFCURVE",
"325 -56 OFFCURVE",
"276 -48 CURVE",
"291 0 LINE",
"246 0 LINE",
"224 -76 LINE",
"264 -80 LINE SMOOTH",
"293 -83 OFFCURVE",
"312 -98 OFFCURVE",
"312 -118 CURVE SMOOTH",
"312 -148 OFFCURVE",
"268 -160 OFFCURVE",
"200 -144 CURVE",
"198 -196 LINE"
);
}
);
width = 532;
}
);
leftKerningGroup = o;
leftMetricsKey = c;
rightKerningGroup = c;
rightMetricsKey = c;
unicode = 00E7;
},
{
glyphname = d;
lastChange = "2022-07-17 10:57:34 +0000";
layers = (
{
anchors = (
{
name = topright;
position = "{568, 500}";
}
);
layerId = "8007C042-6FBA-4E49-99B8-8B738A4EBE86";
paths = (
{
closed = 1;
nodes = (
"401 -12 OFFCURVE",
"498 97 OFFCURVE",
"498 249 CURVE SMOOTH",
"498 402 OFFCURVE",
"400 512 OFFCURVE",
"264 512 CURVE SMOOTH",
"129 512 OFFCURVE",
"32 404 OFFCURVE",
"32 252 CURVE SMOOTH",
"32 98 OFFCURVE",
"130 -12 OFFCURVE",
"266 -12 CURVE SMOOTH"
);
},
{
closed = 1;
nodes = (
"186 68 OFFCURVE",
"116 144 OFFCURVE",
"116 250 CURVE SMOOTH",
"116 357 OFFCURVE",
"186 434 OFFCURVE",
"283 434 CURVE SMOOTH",
"380 434 OFFCURVE",
"450 357 OFFCURVE",
"450 250 CURVE SMOOTH",
"450 144 OFFCURVE",
"380 68 OFFCURVE",
"283 68 CURVE SMOOTH"
);
},
{
closed = 1;
nodes = (
"530 0 LINE",
"528 100 LINE",
"528 680 LINE",
"448 680 LINE",
"448 380 LINE",
"471 246 LINE",
"450 100 LINE",
"462 0 LINE"
);
}
);
width = 592;
},
{
anchors = (
{
name = topright;
position = "{570, 500}";
}
);
layerId = "ADDE491E-C0C4-4659-943C-53377B387F47";
paths = (
{
closed = 1;
nodes = (
"369 -12 OFFCURVE",
"456 97 OFFCURVE",
"456 251 CURVE SMOOTH",
"456 404 OFFCURVE",
"369 512 OFFCURVE",
"246 512 CURVE SMOOTH",
"117 512 OFFCURVE",
"26 403 OFFCURVE",
"26 248 CURVE SMOOTH",
"26 96 OFFCURVE",
"117 -12 OFFCURVE",
"246 -12 CURVE SMOOTH"
);
},
{
closed = 1;
nodes = (
"216 124 OFFCURVE",
"170 177 OFFCURVE",
"170 251 CURVE SMOOTH",
"170 325 OFFCURVE",
"216 378 OFFCURVE",
"280 378 CURVE SMOOTH",
"344 378 OFFCURVE",
"390 325 OFFCURVE",
"390 251 CURVE SMOOTH",
"390 177 OFFCURVE",
"344 124 OFFCURVE",
"280 124 CURVE SMOOTH"
);
},
{
closed = 1;
nodes = (
"532 0 LINE",
"530 100 LINE",
"530 680 LINE",
"390 680 LINE",
"390 403 LINE",
"410 251 LINE",
"390 84 LINE",
"422 0 LINE"
);
}
);
width = 580;
},
{
anchors = (
{
name = topright;
position = "{590, 500}";
}
);
layerId = "0CF550E6-48ED-4BA5-8C66-195B58FED074";
paths = (
{
closed = 1;
nodes = (
"356 -12 OFFCURVE",
"444 98 OFFCURVE",
"444 252 CURVE SMOOTH",
"444 404 OFFCURVE",
"356 512 OFFCURVE",
"232 512 CURVE SMOOTH",
"108 512 OFFCURVE",
"20 402 OFFCURVE",
"20 248 CURVE SMOOTH",
"20 96 OFFCURVE",
"108 -12 OFFCURVE",
"232 -12 CURVE SMOOTH"
);
},
{
closed = 1;
nodes = (
"241 166 OFFCURVE",
"210 201 OFFCURVE",
"210 251 CURVE SMOOTH",
"210 301 OFFCURVE",
"241 336 OFFCURVE",
"285 336 CURVE SMOOTH",
"329 336 OFFCURVE",
"360 301 OFFCURVE",
"360 251 CURVE SMOOTH",
"360 201 OFFCURVE",
"329 166 OFFCURVE",
"285 166 CURVE SMOOTH"
);
},
{
closed = 1;
nodes = (
"552 0 LINE",
"550 100 LINE",
"550 680 LINE",
"350 680 LINE",
"350 403 LINE",
"370 251 LINE",
"350 68 LINE",
"402 0 LINE"
);
}
);
width = 592;
},
{
anchors = (
{
name = topright;
position = "{568, 500}";
}
);
components = (
{
name = inkstem_S;
transform = "{1, 0, 0, 1, 32, -160}";
},
{
name = inkcurve_L;
transform = "{0, 1, 1, 0, 4, -72}";
},
{
name = inkcurve_L;
transform = "{1, 0, 0, 1, -27, -28}";
},
{
name = inkstem_S;
transform = "{1, 0, 0, 1, 32, 158}";
},
{
name = inkcurve_L;
transform = "{0, -1, 1, 0, -4, 574}";
},
{
name = inkstem_L;
transform = "{1, 0, 0, 1, 388, 256}";
},
{
name = inkstem_M;
transform = "{1, 0, 0, 1, 388, -28}";
}
);
layerId = m004;
paths = (
{
closed = 1;
nodes = (
"328 -12 OFFCURVE",
"381 11 OFFCURVE",
"422 51 CURVE SMOOTH",
"434 63 OFFCURVE",
"424 74 OFFCURVE",
"424 86 CURVE SMOOTH",
"424 102 OFFCURVE",
"436 114 OFFCURVE",
"452 114 CURVE SMOOTH",
"468 114 OFFCURVE",
"480 102 OFFCURVE",
"480 86 CURVE SMOOTH",
"480 76 OFFCURVE",
"475 67 OFFCURVE",
"467 62 CURVE SMOOTH",
"460 57 OFFCURVE",
"456 52 OFFCURVE",
"457 42 CURVE SMOOTH",
"462 0 LINE",
"530 0 LINE",
"528 100 LINE",
"528 680 LINE",
"448 680 LINE",
"448 462 LINE SMOOTH",
"448 454 OFFCURVE",
"453 447 OFFCURVE",
"461 443 CURVE SMOOTH",
"470 438 OFFCURVE",
"476 429 OFFCURVE",
"476 418 CURVE SMOOTH",
"476 402 OFFCURVE",
"464 390 OFFCURVE",
"448 390 CURVE SMOOTH",
"432 390 OFFCURVE",
"420 402 OFFCURVE",
"420 418 CURVE SMOOTH",
"420 434 OFFCURVE",
"430 441 OFFCURVE",
"418 452 CURVE SMOOTH",
"380 488 OFFCURVE",
"326 512 OFFCURVE",
"264 512 CURVE SMOOTH",
"129 512 OFFCURVE",
"32 404 OFFCURVE",
"32 252 CURVE SMOOTH",
"32 98 OFFCURVE",
"130 -12 OFFCURVE",
"266 -12 CURVE SMOOTH"
);
},
{
closed = 1;
nodes = (
"186 68 OFFCURVE",
"116 144 OFFCURVE",
"116 250 CURVE SMOOTH",
"116 357 OFFCURVE",
"186 434 OFFCURVE",
"283 434 CURVE SMOOTH",
"380 434 OFFCURVE",
"450 357 OFFCURVE",
"450 250 CURVE SMOOTH",
"450 144 OFFCURVE",
"380 68 OFFCURVE",
"283 68 CURVE SMOOTH"
);
}
);
width = 592;
}
);
leftKerningGroup = o;
leftMetricsKey = o;
rightKerningGroup = l;
rightMetricsKey = "=l-2";
unicode = 0064;
},
{
color = 3;
glyphname = eth;
lastChange = "2022-07-27 21:08:17 +0000";
layers = (
{
layerId = "ADDE491E-C0C4-4659-943C-53377B387F47";
paths = (
{
closed = 1;
nodes = (
"408 -12 OFFCURVE",
"508 97 OFFCURVE",
"508 272 CURVE SMOOTH",
"508 456 OFFCURVE",
"392 624 OFFCURVE",
"212 700 CURVE",
"148 580 LINE",
"260 538 OFFCURVE",
"340 476 OFFCURVE",
"364 368 CURVE",
"380 376 LINE",
"352 416 OFFCURVE",
"300 440 OFFCURVE",
"240 440 CURVE SMOOTH",
"116 440 OFFCURVE",
"22 349 OFFCURVE",
"22 220 CURVE SMOOTH",
"22 84 OFFCURVE",
"120 -12 OFFCURVE",
"256 -12 CURVE SMOOTH"
);
},
{
closed = 1;
nodes = (
"211 128 OFFCURVE",
"172 176 OFFCURVE",
"172 244 CURVE SMOOTH",
"172 312 OFFCURVE",
"211 360 OFFCURVE",
"266 360 CURVE SMOOTH",
"321 360 OFFCURVE",
"360 312 OFFCURVE",
"360 244 CURVE SMOOTH",
"360 176 OFFCURVE",
"321 128 OFFCURVE",
"266 128 CURVE SMOOTH"
);
},
{
closed = 1;
nodes = (
"456 656 LINE",
"396 728 LINE",
"152 524 LINE",
"212 452 LINE"
);
}
);
width = 536;
},
{
layerId = "0CF550E6-48ED-4BA5-8C66-195B58FED074";
paths = (
{
closed = 1;
nodes = (
"402 -12 OFFCURVE",
"504 100 OFFCURVE",
"504 272 CURVE SMOOTH",
"504 440 OFFCURVE",
"409 620 OFFCURVE",
"276 700 CURVE",
"136 540 LINE",
"216 512 OFFCURVE",
"300 452 OFFCURVE",
"352 376 CURVE",
"372 392 LINE",
"348 420 OFFCURVE",
"296 440 OFFCURVE",
"236 440 CURVE SMOOTH",
"108 440 OFFCURVE",
"16 347 OFFCURVE",
"16 216 CURVE SMOOTH",
"16 83 OFFCURVE",
"114 -12 OFFCURVE",
"250 -12 CURVE SMOOTH"
);
},
{
closed = 1;
nodes = (
"231 172 OFFCURVE",
"208 202 OFFCURVE",
"208 244 CURVE SMOOTH",
"208 286 OFFCURVE",
"231 316 OFFCURVE",
"264 316 CURVE SMOOTH",
"297 316 OFFCURVE",
"320 286 OFFCURVE",
"320 244 CURVE SMOOTH",
"320 202 OFFCURVE",
"297 172 OFFCURVE",
"264 172 CURVE SMOOTH"
);
},
{
closed = 1;
nodes = (
"504 620 LINE",
"396 736 LINE",
"276 612 LINE",
"376 504 LINE"
);
}
);
width = 532;
},
{
layerId = "8007C042-6FBA-4E49-99B8-8B738A4EBE86";
paths = (
{
closed = 1;
nodes = (
"392 -12 OFFCURVE",
"488 88 OFFCURVE",
"488 252 CURVE SMOOTH",
"488 432 OFFCURVE",
"368 644 OFFCURVE",
"136 688 CURVE",
"120 608 LINE",
"240 584 OFFCURVE",
"324 512 OFFCURVE",
"376 412 CURVE",
"388 424 LINE",
"356 448 OFFCURVE",
"306 462 OFFCURVE",
"256 462 CURVE SMOOTH",
"122 462 OFFCURVE",
"28 363 OFFCURVE",
"28 224 CURVE SMOOTH",
"28 86 OFFCURVE",
"120 -12 OFFCURVE",
"256 -12 CURVE SMOOTH"
);
},
{
closed = 1;
nodes = (
"174 69 OFFCURVE",
"112 137 OFFCURVE",
"112 230 CURVE SMOOTH",
"112 324 OFFCURVE",
"174 392 OFFCURVE",
"260 392 CURVE SMOOTH",
"346 392 OFFCURVE",
"408 324 OFFCURVE",
"408 230 CURVE SMOOTH",
"408 136 OFFCURVE",
"346 68 OFFCURVE",
"260 68 CURVE SMOOTH"
);
},
{
closed = 1;
nodes = (
"368 664 LINE",
"316 720 LINE",
"128 548 LINE",
"176 492 LINE"
);
}
);
width = 516;
},
{
associatedMasterId = "8007C042-6FBA-4E49-99B8-8B738A4EBE86";
layerId = "1ED8C291-1B6C-47B6-8892-CF0BEA371CD3";
name = "4 lug 22, 23:43";
paths = (
{
closed = 1;
nodes = (
"398 -12 OFFCURVE",
"488 92 OFFCURVE",
"488 248 CURVE SMOOTH",
"488 480 OFFCURVE",
"308 680 OFFCURVE",
"64 688 CURVE",
"60 606 LINE",
"185 606 OFFCURVE",
"316 532 OFFCURVE",
"372 416 CURVE",
"384 424 LINE",
"354 447 OFFCURVE",
"300 462 OFFCURVE",
"252 462 CURVE SMOOTH",
"125 462 OFFCURVE",
"28 364 OFFCURVE",
"28 228 CURVE SMOOTH",
"28 88 OFFCURVE",
"126 -12 OFFCURVE",
"258 -12 CURVE SMOOTH"
);
},
{
closed = 1;
nodes = (
"173 69 OFFCURVE",
"112 136 OFFCURVE",
"112 229 CURVE SMOOTH",
"112 323 OFFCURVE",
"173 392 OFFCURVE",
"258 392 CURVE SMOOTH",
"343 392 OFFCURVE",
"404 323 OFFCURVE",
"404 229 CURVE SMOOTH",
"404 135 OFFCURVE",
"343 68 OFFCURVE",
"258 68 CURVE SMOOTH"
);
},
{
closed = 1;
nodes = (
"343 669 LINE",
"292 720 LINE",
"111 539 LINE",
"162 488 LINE"
);
}
);
width = 516;
},
{
components = (
{
name = inkcurve_L;
transform = "{0, 1, 1, 0, -16, -73}";
},
{
name = inkcurve_L;
transform = "{1, 0, 0, 1, -27, -48}";
},
{
name = inkstem_S;
transform = "{1, 0, 0, 1, 298, -160}";
},
{
name = inkstem_S;
transform = "{1, 0, 0, 1, 31, 128}";
},
{
name = inkcurve_L;
transform = "{-1, 0, 0, 1, 548, -48}";
}
);
layerId = m004;
paths = (
{
closed = 1;
nodes = (
"392 -12 OFFCURVE",
"488 88 OFFCURVE",
"488 252 CURVE SMOOTH",
"488 366 OFFCURVE",
"440 492 OFFCURVE",
"346 581 CURVE SMOOTH",
"340 587 OFFCURVE",
"330 589 OFFCURVE",
"321 586 CURVE SMOOTH",
"318 585 OFFCURVE",
"314 584 OFFCURVE",
"310 584 CURVE SMOOTH",
"294 584 OFFCURVE",
"282 596 OFFCURVE",
"282 612 CURVE SMOOTH",
"282 628 OFFCURVE",
"294 640 OFFCURVE",
"310 640 CURVE SMOOTH",
"322 640 OFFCURVE",
"329 629 OFFCURVE",
"341 640 CURVE SMOOTH",
"368 664 LINE",
"316 720 LINE",
"243 653 LINE",
"210 669 OFFCURVE",
"175 681 OFFCURVE",
"136 688 CURVE",
"120 608 LINE",
"123 607 OFFCURVE",
"127 606 OFFCURVE",
"130 606 CURVE SMOOTH",
"145 604 OFFCURVE",
"151 608 OFFCURVE",
"157 613 CURVE SMOOTH",
"162 617 OFFCURVE",
"169 620 OFFCURVE",
"176 620 CURVE SMOOTH",
"192 620 OFFCURVE",
"204 608 OFFCURVE",
"204 592 CURVE SMOOTH",
"204 576 OFFCURVE",
"192 564 OFFCURVE",
"176 564 CURVE SMOOTH",
"164 564 OFFCURVE",
"156 575 OFFCURVE",
"143 562 CURVE SMOOTH",
"128 548 LINE",
"176 492 LINE",
"248 557 LINE",
"280 536 OFFCURVE",
"308 510 OFFCURVE",
"332 481 CURVE SMOOTH",
"339 474 OFFCURVE",
"350 469 OFFCURVE",
"360 469 CURVE SMOOTH",
"376 469 OFFCURVE",
"388 457 OFFCURVE",
"388 441 CURVE SMOOTH",
"388 425 OFFCURVE",
"376 413 OFFCURVE",
"360 413 CURVE SMOOTH",
"344 413 OFFCURVE",
"332 425 OFFCURVE",
"332 441 CURVE SMOOTH",
"332 447 OFFCURVE",
"326 453 OFFCURVE",
"317 455 CURVE SMOOTH",
"298 459 OFFCURVE",
"277 462 OFFCURVE",
"256 462 CURVE SMOOTH",
"122 462 OFFCURVE",
"28 363 OFFCURVE",
"28 224 CURVE SMOOTH",
"28 86 OFFCURVE",
"120 -12 OFFCURVE",
"256 -12 CURVE SMOOTH"
);
},
{
closed = 1;
nodes = (
"174 69 OFFCURVE",
"112 137 OFFCURVE",
"112 230 CURVE SMOOTH",
"112 324 OFFCURVE",
"174 392 OFFCURVE",
"260 392 CURVE SMOOTH",
"346 392 OFFCURVE",
"408 324 OFFCURVE",
"408 230 CURVE SMOOTH",
"408 136 OFFCURVE",
"346 68 OFFCURVE",
"260 68 CURVE SMOOTH"
);
}
);
width = 516;
},
{
associatedMasterId = m004;
layerId = "5FAE5DF6-0785-46B1-BA0B-01290EA25C4C";
name = "4 lug 22, 23:43";
paths = (
{
closed = 1;
nodes = (
"398 -12 OFFCURVE",
"488 92 OFFCURVE",
"488 248 CURVE SMOOTH",
"488 480 OFFCURVE",
"308 680 OFFCURVE",
"64 688 CURVE",
"60 606 LINE",
"185 606 OFFCURVE",
"316 532 OFFCURVE",
"372 416 CURVE",
"384 424 LINE",
"354 447 OFFCURVE",
"300 462 OFFCURVE",
"252 462 CURVE SMOOTH",
"125 462 OFFCURVE",
"28 364 OFFCURVE",
"28 228 CURVE SMOOTH",
"28 88 OFFCURVE",
"126 -12 OFFCURVE",
"258 -12 CURVE SMOOTH"
);
},
{
closed = 1;
nodes = (
"173 69 OFFCURVE",
"112 136 OFFCURVE",
"112 229 CURVE SMOOTH",
"112 323 OFFCURVE",
"173 392 OFFCURVE",
"258 392 CURVE SMOOTH",
"343 392 OFFCURVE",
"404 323 OFFCURVE",
"404 229 CURVE SMOOTH",
"404 135 OFFCURVE",
"343 68 OFFCURVE",
"258 68 CURVE SMOOTH"
);
},
{
closed = 1;
nodes = (
"343 669 LINE",
"292 720 LINE",
"111 539 LINE",
"162 488 LINE"
);
}
);
width = 516;
}
);
leftMetricsKey = "=o-4";
unicode = 00F0;
},
{
glyphname = dcroat;
lastChange = "2022-07-22 20:42:40 +0000";
layers = (
{
components = (
{
name = d;
}
);
layerId = "8007C042-6FBA-4E49-99B8-8B738A4EBE86";
paths = (
{
closed = 1;
nodes = (
"592 574 LINE",
"592 642 LINE",
"208 642 LINE",
"208 574 LINE"
);
}
);
width = 600;
},
{
components = (
{
name = d;
}
);
layerId = "ADDE491E-C0C4-4659-943C-53377B387F47";
paths = (
{
closed = 1;
nodes = (
"586 550 LINE",
"586 646 LINE",
"162 646 LINE",
"162 550 LINE"
);
}
);
width = 592;
},
{
components = (
{
name = d;
}
);
layerId = "0CF550E6-48ED-4BA5-8C66-195B58FED074";
paths = (
{
closed = 1;
nodes = (
"598 536 LINE",
"598 636 LINE",
"162 636 LINE",
"162 536 LINE"
);
}
);
width = 602;
},
{
components = (
{
name = inkstem_S;
transform = "{1, 0, 0, 1, 32, -160}";
},
{
name = inkcurve_L;
transform = "{0, 1, 1, 0, 4, -72}";
},
{
name = inkcurve_L;
transform = "{1, 0, 0, 1, -27, -28}";
},
{
name = inkstem_S;
transform = "{1, 0, 0, 1, 32, 158}";
},
{
name = inkstem_M;
transform = "{1, 0, 0, 1, 388, -28}";
},
{
name = inkcurve_L;
transform = "{0, -1, 1, 0, -4, 574}";
},
{
name = inkstem_L;
transform = "{0, -1, 1, 0, 12, 708}";
}
);
layerId = m004;
paths = (
{
closed = 1;
nodes = (
"328 -12 OFFCURVE",
"381 11 OFFCURVE",
"422 51 CURVE SMOOTH",
"434 63 OFFCURVE",
"424 74 OFFCURVE",
"424 86 CURVE SMOOTH",
"424 102 OFFCURVE",
"436 114 OFFCURVE",
"452 114 CURVE SMOOTH",
"468 114 OFFCURVE",
"480 102 OFFCURVE",
"480 86 CURVE SMOOTH",
"480 76 OFFCURVE",
"475 67 OFFCURVE",
"467 62 CURVE SMOOTH",
"460 57 OFFCURVE",
"456 52 OFFCURVE",
"457 42 CURVE SMOOTH",
"462 0 LINE",
"530 0 LINE",
"528 100 LINE",
"528 522 LINE SMOOTH",
"528 534 OFFCURVE",
"522 544 OFFCURVE",
"513 550 CURVE SMOOTH",
"505 555 OFFCURVE",
"500 564 OFFCURVE",
"500 574 CURVE SMOOTH",
"500 590 OFFCURVE",
"512 602 OFFCURVE",
"528 602 CURVE SMOOTH",
"538 602 OFFCURVE",
"547 597 OFFCURVE",
"552 589 CURVE SMOOTH",
"558 580 OFFCURVE",
"568 574 OFFCURVE",
"580 574 CURVE SMOOTH",
"592 574 LINE",
"592 642 LINE",
"528 642 LINE",
"528 680 LINE",
"448 680 LINE",
"448 642 LINE",
"208 642 LINE",
"208 574 LINE",
"448 574 LINE",
"448 462 LINE SMOOTH",
"448 454 OFFCURVE",
"453 447 OFFCURVE",
"461 443 CURVE SMOOTH",
"470 438 OFFCURVE",
"476 429 OFFCURVE",
"476 418 CURVE SMOOTH",
"476 402 OFFCURVE",
"464 390 OFFCURVE",
"448 390 CURVE SMOOTH",
"432 390 OFFCURVE",
"420 402 OFFCURVE",
"420 418 CURVE SMOOTH",
"420 434 OFFCURVE",
"430 441 OFFCURVE",
"418 452 CURVE SMOOTH",
"380 488 OFFCURVE",
"326 512 OFFCURVE",
"264 512 CURVE SMOOTH",
"129 512 OFFCURVE",
"32 404 OFFCURVE",
"32 252 CURVE SMOOTH",
"32 98 OFFCURVE",
"130 -12 OFFCURVE",
"266 -12 CURVE SMOOTH"
);
},
{
closed = 1;
nodes = (
"186 68 OFFCURVE",
"116 144 OFFCURVE",
"116 250 CURVE SMOOTH",
"116 357 OFFCURVE",
"186 434 OFFCURVE",
"283 434 CURVE SMOOTH",
"380 434 OFFCURVE",
"450 357 OFFCURVE",
"450 250 CURVE SMOOTH",
"450 144 OFFCURVE",
"380 68 OFFCURVE",
"283 68 CURVE SMOOTH"
);
}
);
width = 600;
}
);
leftKerningGroup = o;
leftMetricsKey = d;
rightKerningGroup = lslash;
unicode = 0111;
},
{
glyphname = e;
lastChange = "2022-07-27 20:38:21 +0000";
layers = (
{
anchors = (
{
name = ogonek;
position = "{404, 0}";
},
{
name = top;
position = "{272, 500}";
}
);
layerId = "8007C042-6FBA-4E49-99B8-8B738A4EBE86";
paths = (
{
closed = 1;
nodes = (
"388 -12 OFFCURVE",
"478 48 OFFCURVE",
"502 136 CURVE",
"416 164 LINE",
"404 108 OFFCURVE",
"350 68 OFFCURVE",
"282 68 CURVE SMOOTH",
"186 68 OFFCURVE",
"118 147 OFFCURVE",
"118 254 CURVE SMOOTH",
"118 358 OFFCURVE",
"182 434 OFFCURVE",
"274 434 CURVE SMOOTH",
"350 434 OFFCURVE",
"410 379 OFFCURVE",
"422 295 CURVE",
"98 295 LINE",
"98 217 LINE",
"507 217 LINE",
"519 385 OFFCURVE",
"425 512 OFFCURVE",
"272 512 CURVE SMOOTH",
"132 512 OFFCURVE",
"32 403 OFFCURVE",
"32 250 CURVE SMOOTH",
"32 97 OFFCURVE",
"135 -12 OFFCURVE",
"280 -12 CURVE SMOOTH"
);
}
);
width = 540;
},
{
anchors = (
{
name = ogonek;
position = "{410, 0}";
},
{
name = top;
position = "{274, 500}";
}
);
background = {
paths = (
{
closed = 1;
nodes = (
"387 -12 OFFCURVE",
"481 48 OFFCURVE",
"508 132 CURVE",
"368 176 LINE",
"357 142 OFFCURVE",
"320 118 OFFCURVE",
"278 118 CURVE SMOOTH",
"214 118 OFFCURVE",
"168 174 OFFCURVE",
"168 252 CURVE SMOOTH",
"168 328 OFFCURVE",
"211 382 OFFCURVE",
"272 382 CURVE SMOOTH",
"321 382 OFFCURVE",
"362 346 OFFCURVE",
"370 296 CURVE",
"160 296 LINE",
"160 216 LINE",
"514 216 LINE",
"515 224 OFFCURVE",
"516 236 OFFCURVE",
"516 250 CURVE SMOOTH",
"516 402 OFFCURVE",
"414 512 OFFCURVE",
"274 512 CURVE SMOOTH",
"130 512 OFFCURVE",
"26 402 OFFCURVE",
"26 250 CURVE SMOOTH",
"26 97 OFFCURVE",
"131 -12 OFFCURVE",
"280 -12 CURVE SMOOTH"
);
}
);
};
layerId = "ADDE491E-C0C4-4659-943C-53377B387F47";
paths = (
{
closed = 1;
nodes = (
"388 -12 OFFCURVE",
"476 44 OFFCURVE",
"504 124 CURVE",
"368 176 LINE",
"356 142 OFFCURVE",
"322 120 OFFCURVE",
"280 120 CURVE SMOOTH",
"214 120 OFFCURVE",
"168 174 OFFCURVE",
"168 252 CURVE SMOOTH",
"168 328 OFFCURVE",
"211 382 OFFCURVE",
"272 382 CURVE SMOOTH",
"322 382 OFFCURVE",
"362 346 OFFCURVE",
"370 296 CURVE",
"148 296 LINE",
"148 216 LINE",
"514 216 LINE",
"532 364 OFFCURVE",
"441 512 OFFCURVE",
"274 512 CURVE SMOOTH",
"130 512 OFFCURVE",
"26 402 OFFCURVE",
"26 250 CURVE SMOOTH",
"26 97 OFFCURVE",
"131 -12 OFFCURVE",
"280 -12 CURVE SMOOTH"
);
}
);
width = 542;
},
{
anchors = (
{
name = ogonek;
position = "{424, 0}";
},
{
name = top;
position = "{276, 500}";
}
);
background = {
paths = (
{
closed = 1;
nodes = (
"388 -12 OFFCURVE",
"482 40 OFFCURVE",
"514 116 CURVE",
"346 192 LINE",
"339 168 OFFCURVE",
"315 152 OFFCURVE",
"284 152 CURVE SMOOTH",
"235 152 OFFCURVE",
"204 193 OFFCURVE",
"204 256 CURVE SMOOTH",
"204 314 OFFCURVE",
"231 352 OFFCURVE",
"274 352 CURVE SMOOTH",
"308 352 OFFCURVE",
"332 327 OFFCURVE",
"336 288 CURVE",
"184 288 LINE",
"184 220 LINE",
"522 220 LINE",
"523 230 OFFCURVE",
"524 242 OFFCURVE",
"524 256 CURVE SMOOTH",
"524 406 OFFCURVE",
"421 512 OFFCURVE",
"276 512 CURVE SMOOTH",
"126 512 OFFCURVE",
"20 404 OFFCURVE",
"20 252 CURVE SMOOTH",
"20 97 OFFCURVE",
"129 -12 OFFCURVE",
"282 -12 CURVE SMOOTH"
);
}
);
};
layerId = "0CF550E6-48ED-4BA5-8C66-195B58FED074";
paths = (
{
closed = 1;
nodes = (
"388 -12 OFFCURVE",
"482 40 OFFCURVE",
"514 116 CURVE",
"346 192 LINE",
"339 168 OFFCURVE",
"315 152 OFFCURVE",
"284 152 CURVE SMOOTH",
"235 152 OFFCURVE",
"204 193 OFFCURVE",
"204 256 CURVE SMOOTH",
"204 314 OFFCURVE",
"231 352 OFFCURVE",
"274 352 CURVE SMOOTH",
"308 352 OFFCURVE",
"332 327 OFFCURVE",
"336 288 CURVE",
"184 288 LINE",
"184 220 LINE",
"522 220 LINE",
"538 384 OFFCURVE",
"438 512 OFFCURVE",
"276 512 CURVE SMOOTH",
"127 512 OFFCURVE",
"20 403 OFFCURVE",
"20 250 CURVE SMOOTH",
"20 97 OFFCURVE",
"129 -12 OFFCURVE",
"282 -12 CURVE SMOOTH"
);
}
);
width = 544;
},
{
anchors = (
{
name = ogonek;
position = "{495, 10}";
},
{
name = top;
position = "{274, 500}";
}
);
associatedMasterId = "0CF550E6-48ED-4BA5-8C66-195B58FED074";
layerId = "63E39043-617C-45A3-96FF-6334E6E2C5AF";
name = "22 feb 22, 17:21";
paths = (
{
closed = 1;
nodes = (
"392 -12 OFFCURVE",
"486 40 OFFCURVE",
"518 116 CURVE",
"342 196 LINE",
"335 170 OFFCURVE",
"312 154 OFFCURVE",
"282 154 CURVE SMOOTH",
"233 154 OFFCURVE",
"202 193 OFFCURVE",
"202 254 CURVE SMOOTH",
"202 312 OFFCURVE",
"230 350 OFFCURVE",
"274 350 CURVE SMOOTH",
"307 350 OFFCURVE",
"330 328 OFFCURVE",
"334 290 CURVE",
"182 290 LINE",
"182 218 LINE",
"520 218 LINE",
"521 228 OFFCURVE",
"522 242 OFFCURVE",
"522 256 CURVE SMOOTH",
"522 406 OFFCURVE",
"419 512 OFFCURVE",
"274 512 CURVE SMOOTH",
"124 512 OFFCURVE",
"18 404 OFFCURVE",
"18 252 CURVE SMOOTH",
"18 97 OFFCURVE",
"128 -12 OFFCURVE",
"284 -12 CURVE SMOOTH"
);
}
);
width = 540;
},
{
anchors = (
{
name = ogonek;
position = "{404, 0}";
},
{
name = top;
position = "{272, 500}";
}
);
associatedMasterId = "8007C042-6FBA-4E49-99B8-8B738A4EBE86";
layerId = "ED7D3EBC-99FF-4C96-8EA7-8377BA8F4A8D";
name = "26 giu 22, 11:52";
paths = (
{
closed = 1;
nodes = (
"388 -12 OFFCURVE",
"482 52 OFFCURVE",
"504 140 CURVE",
"414 168 LINE",
"402 110 OFFCURVE",
"342 68 OFFCURVE",
"276 68 CURVE SMOOTH",
"184 68 OFFCURVE",
"118 145 OFFCURVE",
"118 252 CURVE SMOOTH",
"118 358 OFFCURVE",
"181 434 OFFCURVE",
"268 434 CURVE SMOOTH",
"340 434 OFFCURVE",
"406 385 OFFCURVE",
"422 297 CURVE",
"110 297 LINE",
"110 219 LINE",
"507 219 LINE",
"508 227 OFFCURVE",
"508 232 OFFCURVE",
"508 236 CURVE SMOOTH",
"508 396 OFFCURVE",
"416 512 OFFCURVE",
"272 512 CURVE SMOOTH",
"132 512 OFFCURVE",
"32 401 OFFCURVE",
"32 248 CURVE SMOOTH",
"32 97 OFFCURVE",
"132 -12 OFFCURVE",
"276 -12 CURVE SMOOTH"
);
}
);
width = 540;
},
{
anchors = (
{
name = ogonek;
position = "{410, 0}";
},
{
name = top;
position = "{274, 500}";
}
);
associatedMasterId = "ADDE491E-C0C4-4659-943C-53377B387F47";
background = {
paths = (
{
closed = 1;
nodes = (
"387 -12 OFFCURVE",
"481 48 OFFCURVE",
"508 132 CURVE",
"368 176 LINE",
"357 142 OFFCURVE",
"320 118 OFFCURVE",
"278 118 CURVE SMOOTH",
"214 118 OFFCURVE",
"168 174 OFFCURVE",
"168 252 CURVE SMOOTH",
"168 328 OFFCURVE",
"211 382 OFFCURVE",
"272 382 CURVE SMOOTH",
"321 382 OFFCURVE",
"362 346 OFFCURVE",
"370 296 CURVE",
"160 296 LINE",
"160 216 LINE",
"514 216 LINE",
"515 224 OFFCURVE",
"516 236 OFFCURVE",
"516 250 CURVE SMOOTH",
"516 402 OFFCURVE",
"414 512 OFFCURVE",
"274 512 CURVE SMOOTH",
"130 512 OFFCURVE",
"26 402 OFFCURVE",
"26 250 CURVE SMOOTH",
"26 97 OFFCURVE",
"131 -12 OFFCURVE",
"280 -12 CURVE SMOOTH"
);
}
);
};
layerId = "4E33FB44-547F-4DFC-9587-E0DF8CCD1E73";
name = "26 giu 22, 15:09";
paths = (
{
closed = 1;
nodes = (
"387 -12 OFFCURVE",
"481 48 OFFCURVE",
"508 132 CURVE",
"368 176 LINE",
"357 142 OFFCURVE",
"320 118 OFFCURVE",
"278 118 CURVE SMOOTH",
"214 118 OFFCURVE",
"168 174 OFFCURVE",
"168 252 CURVE SMOOTH",
"168 328 OFFCURVE",
"211 382 OFFCURVE",
"272 382 CURVE SMOOTH",
"321 382 OFFCURVE",
"362 346 OFFCURVE",
"370 296 CURVE",
"160 296 LINE",
"160 216 LINE",
"514 216 LINE",
"515 224 OFFCURVE",
"516 236 OFFCURVE",
"516 250 CURVE SMOOTH",
"516 402 OFFCURVE",
"414 512 OFFCURVE",
"274 512 CURVE SMOOTH",
"130 512 OFFCURVE",
"26 402 OFFCURVE",
"26 250 CURVE SMOOTH",
"26 97 OFFCURVE",
"131 -12 OFFCURVE",
"280 -12 CURVE SMOOTH"
);
}
);
width = 542;
},
{
anchors = (
{
name = ogonek;
position = "{404, 0}";
},
{
name = top;
position = "{272, 500}";
}
);
components = (
{
name = inkstem_S;
transform = "{1, 0, 0, 1, 32, -158}";
},
{
name = inkcurve_L;
transform = "{0, 1, 1, 0, 0, -72}";
},
{
name = inkstem_S;
transform = "{1, 0, 0, 1, 332, -152}";
},
{
name = inkstem_S;
transform = "{1, 0, 0, 1, 32, 158}";
},
{
name = inkcurve_L;
transform = "{0, -1, 1, 0, -6, 573}";
},
{
name = inkstem_S;
transform = "{1, 0, 0, 1, 314, 158}";
},
{
name = inkstem_S;
transform = "{1, 0, 0, 1, 176, 6}";
}
);
layerId = m004;
paths = (
{
closed = 1;
nodes = (
"388 -12 OFFCURVE",
"478 48 OFFCURVE",
"502 136 CURVE",
"416 164 LINE",
"404 108 OFFCURVE",
"350 68 OFFCURVE",
"282 68 CURVE SMOOTH",
"213 68 OFFCURVE",
"158 110 OFFCURVE",
"133 173 CURVE SMOOTH",
"130 181 OFFCURVE",
"123 187 OFFCURVE",
"112 190 CURVE SMOOTH",
"100 193 OFFCURVE",
"92 203 OFFCURVE",
"92 217 CURVE SMOOTH",
"92 233 OFFCURVE",
"104 245 OFFCURVE",
"120 245 CURVE SMOOTH",
"132 245 OFFCURVE",
"142 238 OFFCURVE",
"146 228 CURVE SMOOTH",
"148 221 OFFCURVE",
"154 217 OFFCURVE",
"162 217 CURVE SMOOTH",
"507 217 LINE",
"519 385 OFFCURVE",
"425 512 OFFCURVE",
"272 512 CURVE SMOOTH",
"132 512 OFFCURVE",
"32 403 OFFCURVE",
"32 250 CURVE SMOOTH",
"32 97 OFFCURVE",
"135 -12 OFFCURVE",
"280 -12 CURVE SMOOTH"
);
},
{
closed = 1;
nodes = (
"104 267 OFFCURVE",
"92 279 OFFCURVE",
"92 295 CURVE SMOOTH",
"92 310 OFFCURVE",
"102 321 OFFCURVE",
"116 323 CURVE SMOOTH",
"124 324 OFFCURVE",
"131 329 OFFCURVE",
"133 335 CURVE SMOOTH",
"157 395 OFFCURVE",
"209 434 OFFCURVE",
"274 434 CURVE SMOOTH",
"337 434 OFFCURVE",
"389 396 OFFCURVE",
"412 335 CURVE SMOOTH",
"414 329 OFFCURVE",
"421 324 OFFCURVE",
"429 323 CURVE SMOOTH",
"443 321 OFFCURVE",
"453 310 OFFCURVE",
"453 295 CURVE SMOOTH",
"453 279 OFFCURVE",
"441 267 OFFCURVE",
"425 267 CURVE SMOOTH",
"413 267 OFFCURVE",
"403 274 OFFCURVE",
"399 284 CURVE SMOOTH",
"397 291 OFFCURVE",
"391 295 OFFCURVE",
"383 295 CURVE SMOOTH",
"162 295 LINE SMOOTH",
"154 295 OFFCURVE",
"148 291 OFFCURVE",
"146 284 CURVE SMOOTH",
"142 274 OFFCURVE",
"132 267 OFFCURVE",
"120 267 CURVE SMOOTH"
);
}
);
width = 540;
},
{
anchors = (
{
name = ogonek;
position = "{404, 0}";
},
{
name = top;
position = "{272, 500}";
}
);
associatedMasterId = m004;
layerId = "C05C285B-FEF5-4C17-966A-CF0F96F3D645";
name = "26 giu 22, 11:52";
paths = (
{
closed = 1;
nodes = (
"388 -12 OFFCURVE",
"482 52 OFFCURVE",
"504 140 CURVE",
"414 168 LINE",
"402 110 OFFCURVE",
"342 68 OFFCURVE",
"276 68 CURVE SMOOTH",
"184 68 OFFCURVE",
"118 145 OFFCURVE",
"118 252 CURVE SMOOTH",
"118 358 OFFCURVE",
"181 434 OFFCURVE",
"268 434 CURVE SMOOTH",
"340 434 OFFCURVE",
"406 385 OFFCURVE",
"422 297 CURVE",
"110 297 LINE",
"110 219 LINE",
"507 219 LINE",
"508 227 OFFCURVE",
"508 232 OFFCURVE",
"508 236 CURVE SMOOTH",
"508 396 OFFCURVE",
"416 512 OFFCURVE",
"272 512 CURVE SMOOTH",
"132 512 OFFCURVE",
"32 401 OFFCURVE",
"32 248 CURVE SMOOTH",
"32 97 OFFCURVE",
"132 -12 OFFCURVE",
"276 -12 CURVE SMOOTH"
);
}
);
width = 540;
}
);
leftKerningGroup = o;
leftMetricsKey = o;
rightKerningGroup = o;
rightMetricsKey = o;
unicode = 0065;
},
{
glyphname = eogonek;
lastChange = "2022-07-27 19:49:19 +0000";
layers = (
{
components = (
{
name = e;
}
);
layerId = "8007C042-6FBA-4E49-99B8-8B738A4EBE86";
paths = (
{
closed = 1;
nodes = (
"384 -190 OFFCURVE",
"398 -189 OFFCURVE",
"406 -188 CURVE",
"404 -129 LINE",
"398 -130 OFFCURVE",
"391 -130 OFFCURVE",
"388 -130 CURVE SMOOTH",
"360 -130 OFFCURVE",
"340 -116 OFFCURVE",
"340 -88 CURVE SMOOTH",
"340 -35 OFFCURVE",
"386 -1 OFFCURVE",
"440 48 CURVE",
"348 0 LINE",
"304 -28 OFFCURVE",
"268 -64 OFFCURVE",
"268 -112 CURVE SMOOTH",
"268 -164 OFFCURVE",
"308 -190 OFFCURVE",
"372 -190 CURVE SMOOTH"
);
}
);
width = 540;
},
{
components = (
{
name = e;
}
);
layerId = "ADDE491E-C0C4-4659-943C-53377B387F47";
paths = (
{
closed = 1;
nodes = (
"384 -208 OFFCURVE",
"405 -205 OFFCURVE",
"430 -200 CURVE",
"420 -123 LINE",
"414 -124 OFFCURVE",
"407 -124 OFFCURVE",
"404 -124 CURVE SMOOTH",
"381 -124 OFFCURVE",
"364 -106 OFFCURVE",
"364 -80 CURVE SMOOTH",
"364 -48 OFFCURVE",
"386 -8 OFFCURVE",
"450 48 CURVE",
"340 0 LINE",
"272 -28 OFFCURVE",
"236 -72 OFFCURVE",
"236 -120 CURVE SMOOTH",
"236 -172 OFFCURVE",
"280 -208 OFFCURVE",
"356 -208 CURVE SMOOTH"
);
}
);
width = 542;
},
{
components = (
{
name = e;
}
);
layerId = "0CF550E6-48ED-4BA5-8C66-195B58FED074";
paths = (
{
closed = 1;
nodes = (
"392 -212 OFFCURVE",
"422 -209 OFFCURVE",
"444 -204 CURVE",
"426 -103 LINE",
"420 -104 OFFCURVE",
"416 -104 OFFCURVE",
"414 -104 CURVE SMOOTH",
"395 -104 OFFCURVE",
"380 -91 OFFCURVE",
"380 -68 CURVE SMOOTH",
"380 -42 OFFCURVE",
"400 -6 OFFCURVE",
"464 50 CURVE",
"324 0 LINE",
"261 -26 OFFCURVE",
"220 -73 OFFCURVE",
"220 -120 CURVE SMOOTH",
"220 -176 OFFCURVE",
"278 -212 OFFCURVE",
"368 -212 CURVE SMOOTH"
);
}
);
width = 544;
},
{
components = (
{
name = e;
},
{
name = inkstem_S;
transform = "{1, 0, 0, 1, 212, -380}";
}
);
layerId = m004;
paths = (
{
closed = 1;
nodes = (
"384 -190 OFFCURVE",
"398 -189 OFFCURVE",
"406 -188 CURVE",
"404 -129 LINE",
"398 -130 OFFCURVE",
"391 -130 OFFCURVE",
"388 -130 CURVE SMOOTH",
"360 -130 OFFCURVE",
"340 -116 OFFCURVE",
"340 -88 CURVE SMOOTH",
"340 -35 OFFCURVE",
"384 -4 OFFCURVE",
"440 44 CURVE",
"348 0 LINE",
"304 -28 OFFCURVE",
"268 -64 OFFCURVE",
"268 -112 CURVE SMOOTH",
"268 -164 OFFCURVE",
"308 -190 OFFCURVE",
"372 -190 CURVE SMOOTH"
);
}
);
width = 540;
}
);
leftKerningGroup = o;
leftMetricsKey = e;
rightKerningGroup = o;
rightMetricsKey = e;
unicode = 0119;
},
{
glyphname = schwa;
lastChange = "2022-07-22 20:38:58 +0000";
layers = (
{
components = (
{
name = inkstem_S;
transform = "{1, 0, 0, 1, 309, 160}";
},
{
name = inkcurve_L;
transform = "{0, 1, 1, 0, -4, -73}";
},
{
name = inkstem_S;
transform = "{1, 0, 0, 1, 19, 154}";
},
{
name = inkstem_S;
transform = "{1, 0, 0, 1, 310, -160}";
},
{
name = inkcurve_L;
transform = "{0, -1, 1, 0, -8, 574}";
},
{
name = inkstem_S;
transform = "{1, 0, 0, 1, 36, -168}";
},
{
name = inkstem_S;
transform = "{1, 0, 0, 1, 164, -6}";
}
);
layerId = m004;
paths = (
{
closed = 1;
nodes = (
"410 -12 OFFCURVE",
"508 96 OFFCURVE",
"508 248 CURVE SMOOTH",
"508 402 OFFCURVE",
"405 512 OFFCURVE",
"264 512 CURVE SMOOTH",
"160 512 OFFCURVE",
"72 452 OFFCURVE",
"48 368 CURVE",
"140 340 LINE",
"154 398 OFFCURVE",
"206 434 OFFCURVE",
"270 434 CURVE SMOOTH",
"337 434 OFFCURVE",
"387 396 OFFCURVE",
"409 333 CURVE SMOOTH",
"412 323 OFFCURVE",
"420 316 OFFCURVE",
"431 314 CURVE SMOOTH",
"443 312 OFFCURVE",
"450 300 OFFCURVE",
"450 287 CURVE SMOOTH",
"450 271 OFFCURVE",
"438 259 OFFCURVE",
"422 259 CURVE SMOOTH",
"410 259 OFFCURVE",
"400 266 OFFCURVE",
"396 276 CURVE SMOOTH",
"394 283 OFFCURVE",
"388 287 OFFCURVE",
"380 287 CURVE SMOOTH",
"33 287 LINE",
"21 113 OFFCURVE",
"121 -12 OFFCURVE",
"270 -12 CURVE SMOOTH"
);
},
{
closed = 1;
nodes = (
"201 68 OFFCURVE",
"148 107 OFFCURVE",
"128 169 CURVE SMOOTH",
"126 175 OFFCURVE",
"119 180 OFFCURVE",
"111 181 CURVE SMOOTH",
"97 183 OFFCURVE",
"87 194 OFFCURVE",
"87 209 CURVE SMOOTH",
"87 225 OFFCURVE",
"99 237 OFFCURVE",
"115 237 CURVE SMOOTH",
"127 237 OFFCURVE",
"137 230 OFFCURVE",
"141 220 CURVE SMOOTH",
"143 213 OFFCURVE",
"149 209 OFFCURVE",
"157 209 CURVE SMOOTH",
"380 209 LINE SMOOTH",
"388 209 OFFCURVE",
"394 213 OFFCURVE",
"396 220 CURVE SMOOTH",
"400 230 OFFCURVE",
"410 237 OFFCURVE",
"422 237 CURVE SMOOTH",
"438 237 OFFCURVE",
"450 225 OFFCURVE",
"450 209 CURVE SMOOTH",
"450 194 OFFCURVE",
"440 183 OFFCURVE",
"426 181 CURVE SMOOTH",
"418 180 OFFCURVE",
"411 175 OFFCURVE",
"409 169 CURVE SMOOTH",
"387 106 OFFCURVE",
"338 68 OFFCURVE",
"270 68 CURVE SMOOTH"
);
}
);
width = 540;
},
{
layerId = "8007C042-6FBA-4E49-99B8-8B738A4EBE86";
paths = (
{
closed = 1;
nodes = (
"410 -12 OFFCURVE",
"508 96 OFFCURVE",
"508 248 CURVE SMOOTH",
"508 402 OFFCURVE",
"405 512 OFFCURVE",
"264 512 CURVE SMOOTH",
"160 512 OFFCURVE",
"72 452 OFFCURVE",
"48 368 CURVE",
"140 340 LINE",
"154 398 OFFCURVE",
"206 434 OFFCURVE",
"270 434 CURVE SMOOTH",
"362 434 OFFCURVE",
"422 360 OFFCURVE",
"422 248 CURVE SMOOTH",
"422 139 OFFCURVE",
"362 68 OFFCURVE",
"270 68 CURVE SMOOTH",
"187 68 OFFCURVE",
"128 124 OFFCURVE",
"120 209 CURVE",
"442 209 LINE",
"442 287 LINE",
"33 287 LINE",
"21 113 OFFCURVE",
"121 -12 OFFCURVE",
"270 -12 CURVE SMOOTH"
);
}
);
width = 540;
},
{
layerId = "ADDE491E-C0C4-4659-943C-53377B387F47";
paths = (
{
closed = 1;
nodes = (
"413 -12 OFFCURVE",
"514 96 OFFCURVE",
"514 248 CURVE SMOOTH",
"514 402 OFFCURVE",
"410 512 OFFCURVE",
"264 512 CURVE SMOOTH",
"156 512 OFFCURVE",
"66 452 OFFCURVE",
"42 372 CURVE",
"176 324 LINE",
"187 359 OFFCURVE",
"224 382 OFFCURVE",
"266 382 CURVE SMOOTH",
"330 382 OFFCURVE",
"374 328 OFFCURVE",
"374 246 CURVE SMOOTH",
"374 170 OFFCURVE",
"334 120 OFFCURVE",
"272 120 CURVE SMOOTH",
"220 120 OFFCURVE",
"182 156 OFFCURVE",
"176 208 CURVE",
"394 208 LINE",
"394 288 LINE",
"28 288 LINE",
"12 112 OFFCURVE",
"112 -12 OFFCURVE",
"268 -12 CURVE SMOOTH"
);
}
);
width = 540;
},
{
layerId = "0CF550E6-48ED-4BA5-8C66-195B58FED074";
paths = (
{
closed = 1;
nodes = (
"418 -12 OFFCURVE",
"520 95 OFFCURVE",
"520 248 CURVE SMOOTH",
"520 401 OFFCURVE",
"416 512 OFFCURVE",
"264 512 CURVE SMOOTH",
"156 512 OFFCURVE",
"67 455 OFFCURVE",
"36 380 CURVE",
"202 312 LINE",
"209 336 OFFCURVE",
"233 352 OFFCURVE",
"262 352 CURVE SMOOTH",
"308 352 OFFCURVE",
"338 311 OFFCURVE",
"338 248 CURVE SMOOTH",
"338 190 OFFCURVE",
"312 152 OFFCURVE",
"272 152 CURVE SMOOTH",
"240 152 OFFCURVE",
"212 176 OFFCURVE",
"210 214 CURVE",
"358 214 LINE",
"358 282 LINE",
"22 282 LINE",
"5 111 OFFCURVE",
"108 -12 OFFCURVE",
"268 -12 CURVE SMOOTH"
);
}
);
width = 540;
}
);
leftKerningGroup = o;
leftMetricsKey = o;
rightKerningGroup = o;
rightMetricsKey = o;
unicode = 0259;
},
